<?xml version="1.0" encoding="UTF-8" standalone="no"?>
<svg
   xmlns:dc="http://purl.org/dc/elements/1.1/"
   xmlns:cc="http://creativecommons.org/ns#"
   xmlns:rdf="http://www.w3.org/1999/02/22-rdf-syntax-ns#"
   xmlns:svg="http://www.w3.org/2000/svg"
   xmlns="http://www.w3.org/2000/svg"
   xmlns:sodipodi="http://sodipodi.sourceforge.net/DTD/sodipodi-0.dtd"
   xmlns:inkscape="http://www.inkscape.org/namespaces/inkscape"
   role="img"
   viewBox="0 0 24 24"
   version="1.1"
   id="svg6"
   sodipodi:docname="amazonalexa.svg"
   inkscape:version="0.92.5 (2060ec1f9f, 2020-04-08)">
  <metadata
     id="metadata12">
    <rdf:RDF>
      <cc:Work
         rdf:about="">
        <dc:format>image/svg+xml</dc:format>
        <dc:type
           rdf:resource="http://purl.org/dc/dcmitype/StillImage" />
      </cc:Work>
    </rdf:RDF>
  </metadata>
  <defs
     id="defs10" />
  <sodipodi:namedview
     pagecolor="#ffffff"
     bordercolor="#666666"
     borderopacity="1"
     objecttolerance="10"
     gridtolerance="10"
     guidetolerance="10"
     inkscape:pageopacity="0"
     inkscape:pageshadow="2"
     inkscape:window-width="747"
     inkscape:window-height="480"
     id="namedview8"
     showgrid="false"
     inkscape:zoom="9.8333333"
     inkscape:cx="12"
     inkscape:cy="12"
     inkscape:window-x="0"
     inkscape:window-y="0"
     inkscape:window-maximized="0"
     inkscape:current-layer="svg6" />
  <title
     id="title2">Amazon Alexa icon</title>
  <path
     d="m 12,2.4 c -5.304,0 -9.6,4.296 -9.6,9.6 0,4.872 3.624,8.888 8.32,9.52 V 19.6 A 1.272,1.272 0 0 0 9.856,18.376 6.728,6.728 0 0 1 5.28,11.84 6.696,6.696 0 0 1 12.072,5.28 6.72,6.72 0 0 1 18.72,12.248 l -0.008,0.056 a 6.944,6.944 0 0 1 -0.024,0.304 c 0,0.056 -0.008,0.112 -0.016,0.16 0,0.064 -0.008,0.128 -0.016,0.184 l -0.016,0.08 c -0.824,5.424 -7.88,8.464 -7.92,8.488 0.416,0.056 0.848,0.08 1.28,0.08 5.304,0 9.6,-4.296 9.6,-9.6 0,-5.304 -4.296,-9.6 -9.6,-9.6 z"
     id="path4"
     inkscape:connector-curvature="0"
     style="stroke-width:0.80000001" />
</svg>
