<?xml version="1.0" encoding="UTF-8" standalone="no"?>
<svg
   xmlns:dc="http://purl.org/dc/elements/1.1/"
   xmlns:cc="http://creativecommons.org/ns#"
   xmlns:rdf="http://www.w3.org/1999/02/22-rdf-syntax-ns#"
   xmlns:svg="http://www.w3.org/2000/svg"
   xmlns="http://www.w3.org/2000/svg"
   xmlns:sodipodi="http://sodipodi.sourceforge.net/DTD/sodipodi-0.dtd"
   xmlns:inkscape="http://www.inkscape.org/namespaces/inkscape"
   role="img"
   viewBox="0 0 24 24"
   version="1.1"
   id="svg6"
   sodipodi:docname="ansible.svg"
   inkscape:version="0.92.5 (2060ec1f9f, 2020-04-08)">
  <metadata
     id="metadata12">
    <rdf:RDF>
      <cc:Work
         rdf:about="">
        <dc:format>image/svg+xml</dc:format>
        <dc:type
           rdf:resource="http://purl.org/dc/dcmitype/StillImage" />
      </cc:Work>
    </rdf:RDF>
  </metadata>
  <defs
     id="defs10" />
  <sodipodi:namedview
     pagecolor="#ffffff"
     bordercolor="#666666"
     borderopacity="1"
     objecttolerance="10"
     gridtolerance="10"
     guidetolerance="10"
     inkscape:pageopacity="0"
     inkscape:pageshadow="2"
     inkscape:window-width="1920"
     inkscape:window-height="1005"
     id="namedview8"
     showgrid="false"
     inkscape:zoom="9.8333333"
     inkscape:cx="-5.7457627"
     inkscape:cy="12"
     inkscape:window-x="0"
     inkscape:window-y="0"
     inkscape:window-maximized="1"
     inkscape:current-layer="svg6" />
  <title
     id="title2">Ansible icon</title>
  <path
     d="m 11.02784,9.8232364 3.9831,3.1407496 -2.6367,-6.5126996 z m 1.17555,-9.75204996 c -5.6346502,0 -10.2000002,4.56534996 -10.2000002,10.19999956 0,5.63465 4.56535,10.2 10.2000002,10.2 5.63465,0 10.2,-4.56535 10.2,-10.2 0,-5.6346496 -4.56535,-10.19999956 -10.2,-10.19999956 z M 17.13084,14.780436 c -0.0094,0.40035 -0.34255,0.7157 -0.74375,0.7055 -0.2006,0 -0.3536,-0.0765 -0.5644,-0.24905 l -5.2615,-4.25 -1.7671502,4.42255 h -1.5283 L 11.72569,4.6951864 c 0.1054,-0.2669 0.36295,-0.442 0.6494,-0.4301 0.2771,-0.0119 0.5355,0.16065 0.6307,0.4301 l 4.0579,9.7698996 c 0.03825,0.09435 0.068,0.1989 0.068,0.2958 -8.5e-4,0.0077 -8.5e-4,0.0077 -8.5e-4,0.01955 z"
     id="path4"
     inkscape:connector-curvature="0"
     style="stroke-width:0.85000002" />
</svg>
