<?xml version="1.0" encoding="UTF-8" standalone="no"?>
<svg
   xmlns:dc="http://purl.org/dc/elements/1.1/"
   xmlns:cc="http://creativecommons.org/ns#"
   xmlns:rdf="http://www.w3.org/1999/02/22-rdf-syntax-ns#"
   xmlns:svg="http://www.w3.org/2000/svg"
   xmlns="http://www.w3.org/2000/svg"
   xmlns:sodipodi="http://sodipodi.sourceforge.net/DTD/sodipodi-0.dtd"
   xmlns:inkscape="http://www.inkscape.org/namespaces/inkscape"
   role="img"
   viewBox="0 0 24 24"
   version="1.1"
   id="svg6"
   sodipodi:docname="azurepipelines.svg"
   inkscape:version="0.92.5 (2060ec1f9f, 2020-04-08)">
  <metadata
     id="metadata12">
    <rdf:RDF>
      <cc:Work
         rdf:about="">
        <dc:format>image/svg+xml</dc:format>
        <dc:type
           rdf:resource="http://purl.org/dc/dcmitype/StillImage" />
      </cc:Work>
    </rdf:RDF>
  </metadata>
  <defs
     id="defs10" />
  <sodipodi:namedview
     pagecolor="#ffffff"
     bordercolor="#666666"
     borderopacity="1"
     objecttolerance="10"
     gridtolerance="10"
     guidetolerance="10"
     inkscape:pageopacity="0"
     inkscape:pageshadow="2"
     inkscape:window-width="747"
     inkscape:window-height="480"
     id="namedview8"
     showgrid="false"
     inkscape:zoom="9.8333333"
     inkscape:cx="12"
     inkscape:cy="12"
     inkscape:window-x="0"
     inkscape:window-y="0"
     inkscape:window-maximized="0"
     inkscape:current-layer="svg6" />
  <title
     id="title2">Azure Pipelines icon</title>
  <path
     d="m 3.8400066,16.799999 h -1.44 v 4.8 h 4.8 v -1.44 h -3.36 z m 16.9600004,-14.4 h -7.144 a 1.6,1.6 0 0 0 -1.336,0.712 l -2.7200004,4.08 h -6.4 a 0.8,0.8 0 0 0 -0.8,0.8 v 4.4 l 2.8,2.888 0.96,-1.032 1.2,1.2 -0.96,0.976 1.184,1.184 0.976,-0.976 1.2,1.208 -0.96,0.96 2.8000004,2.8 h 4.4 a 0.8,0.8 0 0 0 0.8,-0.8 v -6.4 l 4.088,-2.72 a 1.6,1.6 0 0 0 0.712,-1.344 v -7.136 a 0.8,0.8 0 0 0 -0.8,-0.8 z m -4,7.2 a 2.4,2.4 0 1 1 0,-4.8 2.4,2.4 0 0 1 0,4.8 z"
     id="path4"
     inkscape:connector-curvature="0"
     style="stroke-width:0.80000001" />
</svg>
