<?xml version="1.0" encoding="UTF-8" standalone="no"?>
<svg
   xmlns:dc="http://purl.org/dc/elements/1.1/"
   xmlns:cc="http://creativecommons.org/ns#"
   xmlns:rdf="http://www.w3.org/1999/02/22-rdf-syntax-ns#"
   xmlns:svg="http://www.w3.org/2000/svg"
   xmlns="http://www.w3.org/2000/svg"
   xmlns:sodipodi="http://sodipodi.sourceforge.net/DTD/sodipodi-0.dtd"
   xmlns:inkscape="http://www.inkscape.org/namespaces/inkscape"
   role="img"
   viewBox="0 0 24 24"
   version="1.1"
   id="svg6"
   sodipodi:docname="box.svg"
   inkscape:version="0.92.5 (2060ec1f9f, 2020-04-08)">
  <metadata
     id="metadata12">
    <rdf:RDF>
      <cc:Work
         rdf:about="">
        <dc:format>image/svg+xml</dc:format>
        <dc:type
           rdf:resource="http://purl.org/dc/dcmitype/StillImage" />
      </cc:Work>
    </rdf:RDF>
  </metadata>
  <defs
     id="defs10" />
  <sodipodi:namedview
     pagecolor="#ffffff"
     bordercolor="#666666"
     borderopacity="1"
     objecttolerance="10"
     gridtolerance="10"
     guidetolerance="10"
     inkscape:pageopacity="0"
     inkscape:pageshadow="2"
     inkscape:window-width="747"
     inkscape:window-height="480"
     id="namedview8"
     showgrid="false"
     inkscape:zoom="9.8333333"
     inkscape:cx="12"
     inkscape:cy="12"
     inkscape:window-x="0"
     inkscape:window-y="0"
     inkscape:window-maximized="0"
     inkscape:current-layer="svg6" />
  <title
     id="title2">Box icon</title>
  <path
     d="m 3.1672107,6.8184665 c -0.432,0 -0.7672,0.336 -0.7672,0.7192 v 6.0392005 a 3.672,3.672 0 0 0 3.6904,3.5952 3.7736,3.7736 0 0 0 3.308,-1.9656 c 0.6232003,1.1504 1.8696003,1.9656 3.2592003,1.9656 2.0616,0 3.7392,-1.6296 3.7392,-3.6904 0.048,-1.9656 -1.6296,-3.5960005 -3.6904,-3.5960005 -1.3904,0 -2.636,0.7672005 -3.2592003,1.9176005 -0.624,-1.1504 -1.8704,-1.9176005 -3.308,-1.9176005 -0.8632,0 -1.6304,0.2880005 -2.2536,0.7192005 V 7.5376665 a 0.736,0.736 0 0 0 -0.7184,-0.7192 z m 13.3144003,2.9896 a 0.76,0.76 0 0 0 -0.5632,0.1264 c -0.288,0.2400005 -0.3832,0.7192005 -0.144,1.0544005 l 1.9176,2.4928 -1.9168,2.492 c -0.24,0.336 -0.192,0.768 0.144,1.008 0.3352,0.24 0.8128,0.2384 1.0528,-0.0976 l 1.6312,-2.1088 1.6768,2.1576 c 0.24,0.288 0.7192,0.3352 1.0544,0.096 0.288,-0.24 0.336,-0.672 0.0968,-1.0072 l -1.8704,-2.492 1.8704,-2.4456 c 0.24,-0.3352 0.2384,-0.8144 -0.0968,-1.0544 -0.384,-0.2400005 -0.8152,-0.1920005 -1.0544,0.144 l -1.6768,2.0608 -1.632,-2.156 c -0.1192,-0.1440005 -0.2984,-0.2400005 -0.4896,-0.2704005 z M 6.0904107,11.323267 c 1.2464,0 2.2536,1.008 2.2536,2.2064 0,1.2464 -1.0072,2.2048 -2.2536,2.2048 -1.2464,0 -2.2528,-0.9584 -2.2528,-2.2048 0,-1.1984 1.0064,-2.2064 2.2528,-2.2064 z m 6.6160003,0 c 1.2464,0 2.2528,1.008 2.2528,2.2064 -0.048,1.2464 -1.0544,2.2048 -2.2528,2.2048 -1.2464,0 -2.2536,-0.9584 -2.2536,-2.2048 0,-1.1984 1.0072,-2.2064 2.2536,-2.2064 z"
     id="path4"
     inkscape:connector-curvature="0"
     style="stroke-width:0.80000001" />
</svg>
