<?xml version="1.0" encoding="UTF-8" standalone="no"?>
<svg
   xmlns:dc="http://purl.org/dc/elements/1.1/"
   xmlns:cc="http://creativecommons.org/ns#"
   xmlns:rdf="http://www.w3.org/1999/02/22-rdf-syntax-ns#"
   xmlns:svg="http://www.w3.org/2000/svg"
   xmlns="http://www.w3.org/2000/svg"
   xmlns:sodipodi="http://sodipodi.sourceforge.net/DTD/sodipodi-0.dtd"
   xmlns:inkscape="http://www.inkscape.org/namespaces/inkscape"
   role="img"
   viewBox="0 0 24 24"
   version="1.1"
   id="svg6"
   sodipodi:docname="buildkite.svg"
   inkscape:version="0.92.5 (2060ec1f9f, 2020-04-08)">
  <metadata
     id="metadata12">
    <rdf:RDF>
      <cc:Work
         rdf:about="">
        <dc:format>image/svg+xml</dc:format>
        <dc:type
           rdf:resource="http://purl.org/dc/dcmitype/StillImage" />
      </cc:Work>
    </rdf:RDF>
  </metadata>
  <defs
     id="defs10" />
  <sodipodi:namedview
     pagecolor="#ffffff"
     bordercolor="#666666"
     borderopacity="1"
     objecttolerance="10"
     gridtolerance="10"
     guidetolerance="10"
     inkscape:pageopacity="0"
     inkscape:pageshadow="2"
     inkscape:window-width="747"
     inkscape:window-height="480"
     id="namedview8"
     showgrid="false"
     inkscape:zoom="9.8333333"
     inkscape:cx="12"
     inkscape:cy="12"
     inkscape:window-x="0"
     inkscape:window-y="0"
     inkscape:window-maximized="0"
     inkscape:current-layer="svg6" />
  <title
     id="title2">Buildkite icon</title>
  <path
     d="M 21.2904,8.91429 15.156,5.82949 v 6.1696 l 6.1344,-3.084 z m -12.3576002,6.1712 v -6.1712 l -6.2232,-3.0848 v 6.1704 l 6.224,3.0856 z m -6.3864,-9.5192 a 0.3056,0.3056 0 0 1 0.3016,-0.0136 l 6.0848,3.0168 6.0856002,-3.0168 a 0.3088,0.3088 0 0 1 0.2768,0 l 6.1344,3.0856 a 0.3088,0.3088 0 0 1 0.1704,0.276 v 6.168 a 0.3104,0.3104 0 0 1 -0.1704,0.2768 l -6.1344,3.088 a 0.3112,0.3112 0 0 1 -0.4496,-0.276 v -5.672 l -5.7752002,2.864 a 0.3136,0.3136 0 0 1 -0.2752,0 l -6.2232,-3.0864 a 0.3096,0.3096 0 0 1 -0.172,-0.2768 v -6.1704 a 0.308,0.308 0 0 1 0.1464,-0.2632 z"
     id="path4"
     inkscape:connector-curvature="0"
     style="stroke-width:0.80000001" />
</svg>
