<?xml version="1.0" encoding="UTF-8" standalone="no"?>
<svg
   xmlns:dc="http://purl.org/dc/elements/1.1/"
   xmlns:cc="http://creativecommons.org/ns#"
   xmlns:rdf="http://www.w3.org/1999/02/22-rdf-syntax-ns#"
   xmlns:svg="http://www.w3.org/2000/svg"
   xmlns="http://www.w3.org/2000/svg"
   xmlns:sodipodi="http://sodipodi.sourceforge.net/DTD/sodipodi-0.dtd"
   xmlns:inkscape="http://www.inkscape.org/namespaces/inkscape"
   role="img"
   viewBox="0 0 24 24"
   version="1.1"
   id="svg6"
   sodipodi:docname="codecov.svg"
   inkscape:version="0.92.5 (2060ec1f9f, 2020-04-08)">
  <metadata
     id="metadata12">
    <rdf:RDF>
      <cc:Work
         rdf:about="">
        <dc:format>image/svg+xml</dc:format>
        <dc:type
           rdf:resource="http://purl.org/dc/dcmitype/StillImage" />
      </cc:Work>
    </rdf:RDF>
  </metadata>
  <defs
     id="defs10" />
  <sodipodi:namedview
     pagecolor="#ffffff"
     bordercolor="#666666"
     borderopacity="1"
     objecttolerance="10"
     gridtolerance="10"
     guidetolerance="10"
     inkscape:pageopacity="0"
     inkscape:pageshadow="2"
     inkscape:window-width="747"
     inkscape:window-height="480"
     id="namedview8"
     showgrid="false"
     inkscape:zoom="9.8333333"
     inkscape:cx="12"
     inkscape:cy="12"
     inkscape:window-x="0"
     inkscape:window-y="0"
     inkscape:window-maximized="0"
     inkscape:current-layer="svg6" />
  <title
     id="title2">Codecov icon</title>
  <path
     d="m 12.004806,2.7845915 c -5.2919998,0.004 -9.6007998,4.28 -9.6047998,9.5343995 v 0.024 l 1.6336,0.952 0.0224,-0.0144 a 4.656,4.656 0 0 1 2.6464,-0.816 c 0.296,0 0.5864,0.0272 0.868,0.08 l -0.0288,-0.0048 a 4.552,4.552 0 0 1 2.2992,1.144 l -0.0032,-0.0016 0.2799998,0.2608 0.1584,-0.3472 c 0.1536,-0.336 0.3312,-0.6512 0.528,-0.9384 0.08,-0.1152 0.1664,-0.232 0.2656,-0.3568 l 0.164,-0.2056 -0.2016,-0.1688 a 6.664,6.664 0 0 0 -3.0687998,-1.4456 l -0.0416,-0.0064 a 6.852,6.852 0 0 0 -3.264,0.2008 l 0.048,-0.0128 c 0.7776,-3.4047995 3.7712,-5.7783995 7.3063998,-5.7807995 a 7.448,7.448 0 0 1 5.28,2.1704 7.3568,7.3568 0 0 1 2.0064,3.5983995 6.708,6.708 0 0 0 -1.9984,-0.3032 h -0.1232 c -0.2848,0.0048 -0.56,0.0264 -0.8288,0.0624 l 0.036,-0.004 -0.0336,0.0048 a 6.4824,6.4824 0 0 0 -0.312,0.048 c -0.0456,0.008 -0.0912,0.0176 -0.136,0.0264 a 6.4816,6.4816 0 0 0 -0.3136,0.072 l -0.1104,0.0272 a 7.368,7.368 0 0 0 -0.3864,0.1152 l -0.024,0.008 c -0.2832,0.096 -0.5664,0.2144 -0.84,0.352 l -0.0216,0.0104 c -0.1216,0.0608 -0.244,0.128 -0.376,0.2048 l -0.028,0.0176 a 6.5728,6.5728 0 0 0 -1.6864,1.44 l -0.0088,0.0112 -0.06,0.0736 a 6.676,6.676 0 0 0 -0.3024,0.4024 c -0.0704,0.104 -0.1416,0.2152 -0.2304,0.3616 l -0.048,0.0832 a 7.188,7.188 0 0 0 -0.1872,0.3456 l -0.0128,0.0232 c -0.136,0.272 -0.2536,0.5584 -0.352,0.8504 l -0.0136,0.0424 a 6.4416,6.4416 0 0 0 -0.328,2.1728 v -0.0056 0.0896 a 9.6,9.6 0 0 0 0.0184,0.3448 l -0.0016,-0.0296 a 9.3408,9.3408 0 0 0 0.0336,0.3296 l 0.004,0.0336 0.0104,0.0824 c 0.0144,0.1016 0.0304,0.2016 0.0496,0.3024 0.1928,1.0128 0.676,2.0256 1.396,2.928 l 0.0328,0.0408 0.0336,-0.04 c 0.2872,-0.3392 0.9992,-1.416 1.06,-2.0616 v -0.012 l -0.0048,-0.0104 a 4.448,4.448 0 0 1 -0.512,-2.076 c 0,-2.4128 1.896,-4.4168 4.3168,-4.5616 l 0.16,-0.0056 a 4.744,4.744 0 0 1 2.776,0.82 l 0.0216,0.0152 1.6328,-0.9496 v -0.024 a 9.416,9.416 0 0 0 -2.808,-6.7383995 9.5696,9.5696 0 0 0 -6.7864,-2.7864 z"
     id="path4"
     inkscape:connector-curvature="0"
     style="stroke-width:0.80000001" />
</svg>
