<?xml version="1.0" encoding="UTF-8" standalone="no"?>
<svg
   xmlns:dc="http://purl.org/dc/elements/1.1/"
   xmlns:cc="http://creativecommons.org/ns#"
   xmlns:rdf="http://www.w3.org/1999/02/22-rdf-syntax-ns#"
   xmlns:svg="http://www.w3.org/2000/svg"
   xmlns="http://www.w3.org/2000/svg"
   xmlns:sodipodi="http://sodipodi.sourceforge.net/DTD/sodipodi-0.dtd"
   xmlns:inkscape="http://www.inkscape.org/namespaces/inkscape"
   role="img"
   viewBox="0 0 24 24"
   version="1.1"
   id="svg6"
   sodipodi:docname="consul.svg"
   inkscape:version="0.92.5 (2060ec1f9f, 2020-04-08)">
  <metadata
     id="metadata12">
    <rdf:RDF>
      <cc:Work
         rdf:about="">
        <dc:format>image/svg+xml</dc:format>
        <dc:type
           rdf:resource="http://purl.org/dc/dcmitype/StillImage" />
      </cc:Work>
    </rdf:RDF>
  </metadata>
  <defs
     id="defs10" />
  <sodipodi:namedview
     pagecolor="#ffffff"
     bordercolor="#666666"
     borderopacity="1"
     objecttolerance="10"
     gridtolerance="10"
     guidetolerance="10"
     inkscape:pageopacity="0"
     inkscape:pageshadow="2"
     inkscape:window-width="747"
     inkscape:window-height="480"
     id="namedview8"
     showgrid="false"
     inkscape:zoom="9.8333333"
     inkscape:cx="12"
     inkscape:cy="12"
     inkscape:window-x="0"
     inkscape:window-y="0"
     inkscape:window-maximized="0"
     inkscape:current-layer="svg6" />
  <title
     id="title2">Consul icon</title>
  <path
     d="m 13.76409,12.024225 a 2.130015,2.130015 0 0 0 -2.1301,-2.1301 2.130015,2.130015 0 0 0 -2.12993,2.1301 2.130015,2.130015 0 0 0 2.130015,2.130015 2.130015,2.130015 0 0 0 2.130015,-2.1301 z m 3.001945,2.55e-4 a 0.982515,0.98226 0 0 0 -0.98243,-0.98226 0.982515,0.98226 0 0 0 -0.982515,0.98226 0.982515,0.98226 0 0 0 0.982515,0.982175 0.982515,0.98226 0 0 0 0.98243,-0.982175 z m 4.072945,4.683755 a 0.98396,0.98294 0 0 0 -0.984045,-0.98294 0.98396,0.98294 0 0 0 -0.98396,0.98294 0.98396,0.98294 0 0 0 0.98396,0.98294 0.98396,0.98294 0 0 0 0.984045,-0.98294 z M 19.4358,13.6048 a 0.98039,0.98345 0 0 0 -0.980305,-0.98345 0.98039,0.98345 0 0 0 -0.98039,0.98345 0.98039,0.98345 0 0 0 0.98039,0.983535 0.98039,0.98345 0 0 0 0.980305,-0.98345 z m 2.76352,0.05262 a 0.98107,0.98073 0 0 0 -0.98107,-0.98073 0.98107,0.98073 0 0 0 -0.98107,0.98073 0.98107,0.98073 0 0 0 0.98107,0.98073 0.98107,0.98073 0 0 0 0.98107,-0.98073 z m -2.78715,-3.30055 a 0.982685,0.980475 0 0 0 -0.9826,-0.980475 0.982685,0.980475 0 0 0 -0.98277,0.980475 0.982685,0.980475 0 0 0 0.982685,0.980475 0.982685,0.980475 0 0 0 0.98277,-0.980475 z M 22.2,10.395115 a 0.98719,0.98345 0 0 0 -0.98719,-0.98345 0.98719,0.98345 0 0 0 -0.987105,0.98345 0.98719,0.98345 0 0 0 0.987105,0.98362 0.98719,0.98345 0 0 0 0.98719,-0.98362 z m -1.3821,-3.08635 a 0.983875,0.986085 0 0 0 -0.983875,-0.986 0.983875,0.986085 0 0 0 -0.983875,0.986 0.983875,0.986085 0 0 0 0.983875,0.98617 A 0.983875,0.986085 0 0 0 20.8179,7.30885 Z M 11.674535,2.12572 c -2.64333,0 -5.12465,1.025355 -6.986745,2.88779 C 2.8251,6.88487 1.8,9.365595 1.8,11.99983 c 0,2.64265 1.025695,5.123715 2.88779,6.986405 1.87238,1.86337 4.353105,2.88813 6.986745,2.88813 2.1913,0 4.26496,-0.70142 5.99675,-2.0281 l -1.20666,-1.57454 c -1.382355,1.0591 -3.03858,1.61908 -4.79009,1.61908 -2.10596,0 -4.08952,-0.819485 -5.585945,-2.30809 -1.4858,-1.48648 -2.30503,-3.47038 -2.30503,-5.5828 0,-2.10664 0.819825,-4.0902 2.30843,-5.584755 1.48614,-1.48648 3.469445,-2.30605 5.582545,-2.30605 1.7493,0 3.405865,0.56015 4.791025,1.619845 l 1.205215,-1.5759 C 15.93669,2.827055 13.86337,2.125635 11.67445,2.125635 Z"
     id="path4"
     inkscape:connector-curvature="0"
     style="stroke-width:0.85000002" />
</svg>
