<?xml version="1.0" encoding="UTF-8" standalone="no"?>
<svg
   xmlns:dc="http://purl.org/dc/elements/1.1/"
   xmlns:cc="http://creativecommons.org/ns#"
   xmlns:rdf="http://www.w3.org/1999/02/22-rdf-syntax-ns#"
   xmlns:svg="http://www.w3.org/2000/svg"
   xmlns="http://www.w3.org/2000/svg"
   xmlns:sodipodi="http://sodipodi.sourceforge.net/DTD/sodipodi-0.dtd"
   xmlns:inkscape="http://www.inkscape.org/namespaces/inkscape"
   role="img"
   viewBox="0 0 24 24"
   version="1.1"
   id="svg6"
   sodipodi:docname="dependabot.svg"
   inkscape:version="0.92.5 (2060ec1f9f, 2020-04-08)">
  <metadata
     id="metadata12">
    <rdf:RDF>
      <cc:Work
         rdf:about="">
        <dc:format>image/svg+xml</dc:format>
        <dc:type
           rdf:resource="http://purl.org/dc/dcmitype/StillImage" />
      </cc:Work>
    </rdf:RDF>
  </metadata>
  <defs
     id="defs10" />
  <sodipodi:namedview
     pagecolor="#ffffff"
     bordercolor="#666666"
     borderopacity="1"
     objecttolerance="10"
     gridtolerance="10"
     guidetolerance="10"
     inkscape:pageopacity="0"
     inkscape:pageshadow="2"
     inkscape:window-width="747"
     inkscape:window-height="480"
     id="namedview8"
     showgrid="false"
     inkscape:zoom="9.8333333"
     inkscape:cx="12"
     inkscape:cy="12"
     inkscape:window-x="0"
     inkscape:window-y="0"
     inkscape:window-maximized="0"
     inkscape:current-layer="svg6" />
  <title
     id="title2">Dependabot icon</title>
  <path
     d="m 11.1592,2.65088 a 1.5344,1.5344 0 0 1 1.6816,0 l 7.46672,4.89456 c 0.4328,0.2832 0.6928,0.7656 0.6928,1.2832 v 6.34264 c 0,0.5176 -0.2608,1 -0.6928,1.2832 l -7.46672,4.89464 a 1.5344,1.5344 0 0 1 -1.6816,0 L 3.69248,16.45456 a 1.5328,1.5328 0 0 1 -0.6928,-1.2832 V 8.82864 c 0,-0.5176 0.2608,-1 0.6928,-1.2832 z M 12.6,8.39984 v 0.6 H 7.79984 a 0.6,0.6 0 0 0 -0.6,0.60008 V 12 h -0.4 a 0.2,0.2 0 0 0 -0.2,0.2 v 2 c 0,0.11048 0.0896,0.20008 0.2,0.20008 h 0.4 v 1.2 c 0,0.332 0.2688,0.6 0.6,0.6 h 8.40032 a 0.6,0.6 0 0 0 0.6,-0.6 v -1.2 h 0.4 a 0.2,0.2 0 0 0 0.2,-0.2 v -2 A 0.2,0.2 0 0 0 17.20016,12 h -0.4 V 9.59992 a 0.6,0.6 0 0 0 -0.6,-0.6 H 13.2 V 6.79984 a 0.2,0.2 0 0 0 -0.2,-0.2 h -1.4 a 0.2,0.2 0 0 0 -0.2,0.2 v 1.4 c 0,0.1104 0.0896,0.2 0.2,0.2 z m 2.62888,4.07136 -1.2576,1.2576 a 0.2424,0.2424 0 0 1 -0.3424,0 l -0.7576,-0.7576 a 0.2424,0.2424 0 0 1 0,-0.3424 l 0.2576,-0.2576 a 0.2424,0.2424 0 0 1 0.3424,0 l 0.328,0.3288 0.8296,-0.8288 a 0.2424,0.2424 0 0 1 0.3424,0 l 0.2576,0.2576 a 0.2424,0.2424 0 0 1 0,0.3424 z M 9.9712,13.728 v 8e-4 a 0.2424,0.2424 0 0 1 -0.3424,0 L 8.8704,12.9712 a 0.2416,0.2416 0 0 1 0,-0.3424 l 0.2584,-0.2576 a 0.2424,0.2424 0 0 1 0.3416,0 L 9.8,12.7 10.6288,11.8704 a 0.2424,0.2424 0 0 1 0.3416,0 l 0.2584,0.2576 a 0.2424,0.2424 0 0 1 0,0.3424 z"
     id="path4"
     inkscape:connector-curvature="0"
     style="stroke-width:0.80000001" />
</svg>
