<?xml version="1.0" encoding="UTF-8" standalone="no"?>
<svg
   xmlns:dc="http://purl.org/dc/elements/1.1/"
   xmlns:cc="http://creativecommons.org/ns#"
   xmlns:rdf="http://www.w3.org/1999/02/22-rdf-syntax-ns#"
   xmlns:svg="http://www.w3.org/2000/svg"
   xmlns="http://www.w3.org/2000/svg"
   xmlns:sodipodi="http://sodipodi.sourceforge.net/DTD/sodipodi-0.dtd"
   xmlns:inkscape="http://www.inkscape.org/namespaces/inkscape"
   role="img"
   viewBox="0 0 24 24"
   version="1.1"
   id="svg6"
   sodipodi:docname="digitalocean.svg"
   inkscape:version="0.92.5 (2060ec1f9f, 2020-04-08)">
  <metadata
     id="metadata12">
    <rdf:RDF>
      <cc:Work
         rdf:about="">
        <dc:format>image/svg+xml</dc:format>
        <dc:type
           rdf:resource="http://purl.org/dc/dcmitype/StillImage" />
      </cc:Work>
    </rdf:RDF>
  </metadata>
  <defs
     id="defs10" />
  <sodipodi:namedview
     pagecolor="#ffffff"
     bordercolor="#666666"
     borderopacity="1"
     objecttolerance="10"
     gridtolerance="10"
     guidetolerance="10"
     inkscape:pageopacity="0"
     inkscape:pageshadow="2"
     inkscape:window-width="1920"
     inkscape:window-height="1005"
     id="namedview8"
     showgrid="false"
     inkscape:zoom="9.8333333"
     inkscape:cx="12"
     inkscape:cy="12"
     inkscape:window-x="0"
     inkscape:window-y="0"
     inkscape:window-maximized="1"
     inkscape:current-layer="svg6" />
  <title
     id="title2">DigitalOcean icon</title>
  <path
     d="m 12.033899,1.7999958 c -5.6372001,-0.017 -10.2297501,4.5645 -10.2297501,10.1932002 h 3.9423 c 0,-4.1845502 4.1497,-7.4213502 8.5544001,-5.8267502 a 5.9075,5.9075 0 0 1 3.52495,3.5258 c 1.60565,4.4004502 -1.6354,8.5467502 -5.814,8.5544002 v -3.9185 H 8.0822489 v 3.92955 h 3.9185001 v 3.9423 c 6.681,0 11.87195,-6.4498 9.68745,-13.4555002 -0.94775,-3.0515 -3.38725,-5.4791 -6.43875,-6.43875 a 10.88,10.88 0 0 0 -3.2164,-0.50575 z M 8.0813989,18.257696 h -3.0277 v 3.0294 h 3.0277 z m -3.02855,0 v -2.5313 h -2.53045 v 2.5313 z"
     id="path4"
     inkscape:connector-curvature="0"
     style="stroke-width:0.85000002" />
</svg>
