<?xml version="1.0" encoding="UTF-8" standalone="no"?>
<svg
   xmlns:dc="http://purl.org/dc/elements/1.1/"
   xmlns:cc="http://creativecommons.org/ns#"
   xmlns:rdf="http://www.w3.org/1999/02/22-rdf-syntax-ns#"
   xmlns:svg="http://www.w3.org/2000/svg"
   xmlns="http://www.w3.org/2000/svg"
   xmlns:sodipodi="http://sodipodi.sourceforge.net/DTD/sodipodi-0.dtd"
   xmlns:inkscape="http://www.inkscape.org/namespaces/inkscape"
   role="img"
   viewBox="0 0 24 24"
   version="1.1"
   id="svg6"
   sodipodi:docname="elementary.svg"
   inkscape:version="0.92.5 (2060ec1f9f, 2020-04-08)">
  <metadata
     id="metadata12">
    <rdf:RDF>
      <cc:Work
         rdf:about="">
        <dc:format>image/svg+xml</dc:format>
        <dc:type
           rdf:resource="http://purl.org/dc/dcmitype/StillImage" />
      </cc:Work>
    </rdf:RDF>
  </metadata>
  <defs
     id="defs10" />
  <sodipodi:namedview
     pagecolor="#ffffff"
     bordercolor="#666666"
     borderopacity="1"
     objecttolerance="10"
     gridtolerance="10"
     guidetolerance="10"
     inkscape:pageopacity="0"
     inkscape:pageshadow="2"
     inkscape:window-width="747"
     inkscape:window-height="480"
     id="namedview8"
     showgrid="false"
     inkscape:zoom="9.8333333"
     inkscape:cx="12"
     inkscape:cy="12"
     inkscape:window-x="0"
     inkscape:window-y="0"
     inkscape:window-maximized="0"
     inkscape:current-layer="svg6" />
  <title
     id="title2">elementary icon</title>
  <path
     d="m 12,2.4 a 9.6,9.6 0 1 0 0,19.2 9.6,9.6 0 0 0 0,-19.2 z m 0,0.8 a 8.8,8.8 0 0 1 8.472,6.408 15.272,15.272 0 0 1 -3.728,4.864 c -0.752,0.648 -1.568,1.224 -2.464,1.632 -0.904,0.4 -1.896,0.64 -2.88,0.576 a 4.984,4.984 0 0 1 -2.128,-0.608 16.016,16.016 0 0 0 4.544,-3.664 7.976,7.976 0 0 0 1.848,-3.336 c 0.144,-0.632 0.16,-1.28 0.032,-1.92 A 3.536,3.536 0 0 0 14.832,5.464 3.464,3.464 0 0 0 13.232,4.512 4.2,4.2 0 0 0 11.368,4.448 6.24,6.24 0 0 0 8.16,6.28 7.816,7.816 0 0 0 5.808,12.272 6.304,6.304 0 0 0 7.368,15.944 14.4,14.4 0 0 1 4.52,16.624 8.8,8.8 0 0 1 12,3.2 Z m 0.056,1.776 c 0.616,0 1.24,0.192 1.736,0.56 0.44,0.336 0.776,0.816 0.96,1.344 0.184,0.52 0.24,1.096 0.168,1.648 a 6.28,6.28 0 0 1 -1.36,3.008 12.976,12.976 0 0 1 -5.096,3.968 C 8.08,15.168 7.744,14.768 7.504,14.32 a 5.288,5.288 0 0 1 -0.6,-3.096 C 7,10.168 7.368,9.144 7.864,8.192 A 6.336,6.336 0 0 1 10.28,5.456 c 0.544,-0.296 1.16,-0.48 1.776,-0.48 z m 8.664,5.84 A 8.8,8.8 0 0 1 5.216,17.6 15.84,15.84 0 0 0 8.12,16.64 c 0.408,0.32 0.864,0.568 1.336,0.752 A 6.4,6.4 0 0 0 13.808,17.36 10.64,10.64 0 0 0 17.52,15 a 16,16 0 0 0 3.2,-4.176 z"
     id="path4"
     inkscape:connector-curvature="0"
     style="stroke-width:0.80000001" />
</svg>
