<?xml version="1.0" encoding="UTF-8" standalone="no"?>
<svg
   xmlns:dc="http://purl.org/dc/elements/1.1/"
   xmlns:cc="http://creativecommons.org/ns#"
   xmlns:rdf="http://www.w3.org/1999/02/22-rdf-syntax-ns#"
   xmlns:svg="http://www.w3.org/2000/svg"
   xmlns="http://www.w3.org/2000/svg"
   xmlns:sodipodi="http://sodipodi.sourceforge.net/DTD/sodipodi-0.dtd"
   xmlns:inkscape="http://www.inkscape.org/namespaces/inkscape"
   role="img"
   viewBox="0 0 24 24"
   version="1.1"
   id="svg6"
   sodipodi:docname="firefoxbrowser.svg"
   inkscape:version="0.92.5 (2060ec1f9f, 2020-04-08)">
  <metadata
     id="metadata12">
    <rdf:RDF>
      <cc:Work
         rdf:about="">
        <dc:format>image/svg+xml</dc:format>
        <dc:type
           rdf:resource="http://purl.org/dc/dcmitype/StillImage" />
      </cc:Work>
    </rdf:RDF>
  </metadata>
  <defs
     id="defs10" />
  <sodipodi:namedview
     pagecolor="#ffffff"
     bordercolor="#666666"
     borderopacity="1"
     objecttolerance="10"
     gridtolerance="10"
     guidetolerance="10"
     inkscape:pageopacity="0"
     inkscape:pageshadow="2"
     inkscape:window-width="747"
     inkscape:window-height="480"
     id="namedview8"
     showgrid="false"
     inkscape:zoom="9.8333333"
     inkscape:cx="12"
     inkscape:cy="12"
     inkscape:window-x="0"
     inkscape:window-y="0"
     inkscape:window-maximized="0"
     inkscape:current-layer="svg6" />
  <title
     id="title2">Firefox Browser icon</title>
  <path
     d="m 9.4591794,8.2296 c 0.0064,0 0.0032,0 0,0 z m -2.24,-1.12 c 0.0048,0 0.0024,0 0,0 z M 20.622379,8.8384 c -0.404,-0.972 -1.224,-2.0224 -1.8664,-2.3544 0.5232,1.0264 0.8264,2.056 0.9416,2.824 l 0.0016,0.016 c -1.0512,-2.6224 -2.8352,-3.68 -4.2928,-5.9816 -0.0728,-0.1176 -0.1472,-0.2336 -0.2184,-0.3568 a 2.836,2.836 0 0 1 -0.104,-0.192 1.6944,1.6944 0 0 1 -0.1376,-0.368 0.024,0.024 0 0 0 -0.0216,-0.024 0.0304,0.0304 0 0 0 -0.0168,0 l -0.0048,8e-4 a 0.0296,0.0296 0 0 0 -0.008,0.004 l 0.004,-0.0064 c -2.068,1.212 -2.9256,3.3344 -3.1456,4.6848 a 4.9576,4.9576 0 0 0 -1.8439996,0.4696 0.2376,0.2376 0 0 0 -0.1176,0.296 c 0.0456,0.1296 0.192,0.192 0.3167996,0.136 a 4.4976,4.4976 0 0 1 1.6064,-0.4184 l 0.0536,-0.004 a 4.6776,4.6776 0 0 1 1.5656,0.1776 l 0.076,0.024 a 4.6528,4.6528 0 0 1 0.4928,0.1824 c 0.064,0.0288 0.128,0.0584 0.1904,0.0896 l 0.0856,0.044 a 4.668,4.668 0 0 1 0.2944,0.1688 4.7624,4.7624 0 0 1 1.6272,1.6832 c -0.496,-0.3496 -1.3864,-0.6944 -2.2424,-0.5448 3.3464,1.672 2.448,7.4336 -2.1896,7.216 a 4.1312,4.1312 0 0 1 -1.2104,-0.2336 3.536,3.536 0 0 1 -0.4304,-0.1856 c -1.1359996,-0.588 -2.0743996,-1.6968 -2.1919996,-3.0448 0,0 0.4296,-1.6 3.0759996,-1.6 0.2856,0 1.104,-0.7984 1.1184,-1.0296 -0.004,-0.076 -1.6232,-0.72 -2.2535996,-1.3416 -0.3376,-0.3328 -0.4976,-0.4928 -0.64,-0.6136 a 2.776,2.776 0 0 0 -0.2408,-0.1816 4.3104,4.3104 0 0 1 -0.0256,-2.2736 c -0.956,0.4352 -1.6992,1.1224 -2.24,1.7304 h -0.0048 c -0.368,-0.4672 -0.3424,-2.008 -0.3216,-2.3304 -0.0048,-0.02 -0.2744,0.1408 -0.3112,0.1648 -0.3248,0.232 -0.6296,0.4928 -0.9088,0.7792 -0.3176,0.3224 -0.608,0.6712 -0.868,1.0424 a 7.8528,7.8528 0 0 0 -1.2496,2.816 c -0.0024,0.0104 -0.088,0.3896 -0.152,0.8584 -0.0104,0.072 -0.0208,0.1448 -0.0296,0.2176 a 6.24,6.24 0 0 0 -0.0552,0.5336 l -0.0016,0.0272 -0.0184,0.3096 -8e-4,0.048 c 0,5.1384 4.1656,9.3024 9.3039996,9.3024 4.6016,0 8.4216,-3.3408 9.1704,-7.7288 0.016,-0.1192 0.028,-0.2384 0.0416,-0.3584 0.1856,-1.5952 -0.02,-3.272 -0.6024,-4.6752 z"
     id="path4"
     inkscape:connector-curvature="0"
     style="stroke-width:0.80000001" />
</svg>
