<?xml version="1.0" encoding="UTF-8" standalone="no"?>
<svg
   xmlns:dc="http://purl.org/dc/elements/1.1/"
   xmlns:cc="http://creativecommons.org/ns#"
   xmlns:rdf="http://www.w3.org/1999/02/22-rdf-syntax-ns#"
   xmlns:svg="http://www.w3.org/2000/svg"
   xmlns="http://www.w3.org/2000/svg"
   xmlns:sodipodi="http://sodipodi.sourceforge.net/DTD/sodipodi-0.dtd"
   xmlns:inkscape="http://www.inkscape.org/namespaces/inkscape"
   role="img"
   viewBox="0 0 24 24"
   version="1.1"
   id="svg6"
   sodipodi:docname="gatsby.svg"
   inkscape:version="0.92.5 (2060ec1f9f, 2020-04-08)">
  <metadata
     id="metadata12">
    <rdf:RDF>
      <cc:Work
         rdf:about="">
        <dc:format>image/svg+xml</dc:format>
        <dc:type
           rdf:resource="http://purl.org/dc/dcmitype/StillImage" />
      </cc:Work>
    </rdf:RDF>
  </metadata>
  <defs
     id="defs10" />
  <sodipodi:namedview
     pagecolor="#ffffff"
     bordercolor="#666666"
     borderopacity="1"
     objecttolerance="10"
     gridtolerance="10"
     guidetolerance="10"
     inkscape:pageopacity="0"
     inkscape:pageshadow="2"
     inkscape:window-width="747"
     inkscape:window-height="480"
     id="namedview8"
     showgrid="false"
     inkscape:zoom="9.8333333"
     inkscape:cx="12"
     inkscape:cy="12"
     inkscape:window-x="0"
     inkscape:window-y="0"
     inkscape:window-maximized="0"
     inkscape:current-layer="svg6" />
  <title
     id="title2">Gatsby icon</title>
  <path
     d="m 12,2.4 c -5.28,0 -9.6,4.32 -9.6,9.6 0,5.28 4.32,9.6 9.6,9.6 5.28,0 9.6,-4.32 9.6,-9.6 0,-5.28 -4.32,-9.6 -9.6,-9.6 z m 0,2.0568 c 2.5368,0 4.732,1.2344 6.1032,3.0864 l -1.0288,0.892 C 15.9088,6.8576 14.0568,5.8288 12,5.8288 c -2.6744,0 -4.9368,1.7144 -5.8288,4.1144 l 7.8856,7.8856 c 1.9888,-0.6856 3.4984,-2.4 3.9784,-4.4576 h -3.292 V 12 h 4.8 c 0,3.5656 -2.5376,6.5824 -5.8976,7.336 L 4.664,10.3552 C 5.4176,6.9944 8.4344,4.456 12,4.456 Z m -7.5432,7.68 7.4752,7.4064 c -1.92,-0.0688 -3.8408,-0.7544 -5.2808,-2.1944 -1.44,-1.44 -2.1944,-3.3608 -2.1944,-5.212 z"
     id="path4"
     inkscape:connector-curvature="0"
     style="stroke-width:0.80000001" />
</svg>
