<?xml version="1.0" encoding="UTF-8" standalone="no"?>
<svg
   xmlns:dc="http://purl.org/dc/elements/1.1/"
   xmlns:cc="http://creativecommons.org/ns#"
   xmlns:rdf="http://www.w3.org/1999/02/22-rdf-syntax-ns#"
   xmlns:svg="http://www.w3.org/2000/svg"
   xmlns="http://www.w3.org/2000/svg"
   xmlns:sodipodi="http://sodipodi.sourceforge.net/DTD/sodipodi-0.dtd"
   xmlns:inkscape="http://www.inkscape.org/namespaces/inkscape"
   role="img"
   viewBox="0 0 24 24"
   version="1.1"
   id="svg6"
   sodipodi:docname="git.svg"
   inkscape:version="0.92.5 (2060ec1f9f, 2020-04-08)">
  <metadata
     id="metadata12">
    <rdf:RDF>
      <cc:Work
         rdf:about="">
        <dc:format>image/svg+xml</dc:format>
        <dc:type
           rdf:resource="http://purl.org/dc/dcmitype/StillImage" />
      </cc:Work>
    </rdf:RDF>
  </metadata>
  <defs
     id="defs10" />
  <sodipodi:namedview
     pagecolor="#ffffff"
     bordercolor="#666666"
     borderopacity="1"
     objecttolerance="10"
     gridtolerance="10"
     guidetolerance="10"
     inkscape:pageopacity="0"
     inkscape:pageshadow="2"
     inkscape:window-width="747"
     inkscape:window-height="480"
     id="namedview8"
     showgrid="false"
     inkscape:zoom="9.8333333"
     inkscape:cx="12"
     inkscape:cy="12"
     inkscape:window-x="0"
     inkscape:window-y="0"
     inkscape:window-maximized="0"
     inkscape:current-layer="svg6" />
  <title
     id="title2">Git icon</title>
  <path
     d="m 21.236775,11.143975 -8.3832,-8.3824 c -0.4832,-0.4824 -1.2656,-0.4824 -1.7504,0 l -1.7368,1.74 2.208,2.208 c 0.516,-0.172 1.1032,-0.056 1.5112,0.3528 0.4128,0.412 0.5264,1.0064 0.3504,1.52 l 2.1264,2.128 c 0.516,-0.1784 1.1096,-0.0624 1.52,0.348 0.5768,0.576 0.5768,1.5072 0,2.0832 -0.5752,0.5752 -1.5048,0.5752 -2.08,0 -0.4312,-0.4328 -0.5392,-1.0696 -0.3232,-1.5968 l -1.9912,-1.9808 v 5.22 c 0.1408,0.0688 0.2736,0.1624 0.3904,0.2784 0.5704,0.5768 0.5704,1.5064 0,2.08 -0.5752,0.5768 -1.5112,0.5768 -2.0872,0 -0.5752,-0.5752 -0.5752,-1.5032 0,-2.0784 0.1456,-0.144 0.3096,-0.2528 0.484,-0.3248 v -5.2712 c -0.1736,-0.0728 -0.3392,-0.1776 -0.48,-0.3208 -0.436,-0.436 -0.5408,-1.0736 -0.3168,-1.6072 l -2.1696,-2.18 -5.7488,5.7448 c -0.48,0.484 -0.48,1.2672 0,1.7512 l 8.384,8.3816 c 0.4832,0.4832 1.2656,0.4832 1.7488,0 l 8.344,-8.344 c 0.484,-0.4824 0.484,-1.2656 0,-1.7496"
     id="path4"
     inkscape:connector-curvature="0"
     style="stroke-width:0.80000001" />
</svg>
