<?xml version="1.0" encoding="UTF-8" standalone="no"?>
<svg
   xmlns:dc="http://purl.org/dc/elements/1.1/"
   xmlns:cc="http://creativecommons.org/ns#"
   xmlns:rdf="http://www.w3.org/1999/02/22-rdf-syntax-ns#"
   xmlns:svg="http://www.w3.org/2000/svg"
   xmlns="http://www.w3.org/2000/svg"
   xmlns:sodipodi="http://sodipodi.sourceforge.net/DTD/sodipodi-0.dtd"
   xmlns:inkscape="http://www.inkscape.org/namespaces/inkscape"
   role="img"
   viewBox="0 0 24 24"
   version="1.1"
   id="svg6"
   sodipodi:docname="gitea.svg"
   inkscape:version="0.92.5 (2060ec1f9f, 2020-04-08)">
  <metadata
     id="metadata12">
    <rdf:RDF>
      <cc:Work
         rdf:about="">
        <dc:format>image/svg+xml</dc:format>
        <dc:type
           rdf:resource="http://purl.org/dc/dcmitype/StillImage" />
      </cc:Work>
    </rdf:RDF>
  </metadata>
  <defs
     id="defs10" />
  <sodipodi:namedview
     pagecolor="#ffffff"
     bordercolor="#666666"
     borderopacity="1"
     objecttolerance="10"
     gridtolerance="10"
     guidetolerance="10"
     inkscape:pageopacity="0"
     inkscape:pageshadow="2"
     inkscape:window-width="747"
     inkscape:window-height="480"
     id="namedview8"
     showgrid="false"
     inkscape:zoom="9.8333333"
     inkscape:cx="12"
     inkscape:cy="12"
     inkscape:window-x="0"
     inkscape:window-y="0"
     inkscape:window-maximized="0"
     inkscape:current-layer="svg6" />
  <title
     id="title2">Gitea icon</title>
  <path
     d="m 5.7671885,6.0824 c -0.1976,0 -0.42,0.016 -0.672,0.0704 -0.2664,0.056 -1.024,0.2264 -1.6432,0.8216 -1.3744,1.2256 -1.024,3.1736 -0.9808,3.4672 0.052,0.3568 0.2104,1.3496 0.968,2.2144 1.3992,1.7128 4.4104,1.6736 4.4104,1.6736 0,0 0.3696,0.8824 0.9344,1.6952 0.764,1.0104 1.5487995,1.7984 2.3119995,1.8936 1.9248,0 5.7696,-0.0032 5.7696,-0.0032 0,0 0.3664,0.0032 0.864,-0.3152 0.428,-0.2592 0.8104,-0.7144 0.8104,-0.7144 0,0 0.3936,-0.4216 0.944,-1.384 0.168,-0.296 0.308,-0.5832 0.4304,-0.8544 0,0 1.6856,-3.5768 1.6856,-7.0584 -0.0336,-1.0544 -0.2936,-1.24 -0.3544,-1.3016 -0.1248,-0.1248 -0.2928,-0.1224 -0.2928,-0.1224 0,0 -3.58,0.2016 -5.4336,0.2448 -0.4064,0.0088 -0.8096,0.0184 -1.2096,0.0216 v 3.5792 l -0.5072,-0.2408 c 0,-1.112 -0.0032,-3.336 -0.0032,-3.336 -0.8856,0.0128 -2.724,-0.0672 -2.724,-0.0672 0,0 -4.3191995,-0.216 -4.7895995,-0.2592 -0.1496,-0.0088 -0.3208,-0.0256 -0.5184,-0.0256 z m 0.2832,1.4656 h 0.0888 c 0,0 0.2168,1.8152 0.48,2.8776 0.22,0.892 0.7568,2.3744 0.7568,2.3744 0,0 -0.7968,-0.0952 -1.3128,-0.2784 -0.792,-0.2592 -1.1272,-0.5712 -1.1272,-0.5712 0,0 -0.584,-0.4088 -0.8768,-1.216 -0.504,-1.3504 -0.0424,-2.1744 -0.0424,-2.1744 0,0 0.256,-0.6872 1.176,-0.916 0.316,-0.0848 0.6904,-0.096 0.8576,-0.096 z m 6.6639995,2.0432 c 0.208,0.0024 0.4072,0.1016 0.4072,0.1016 l 0.6944,0.3376 -0.4232,0.86 a 0.5488,0.5488 0 0 0 -0.4912,0.2872 0.548,0.548 0 0 0 0.0576,0.6048 l -0.7512,1.5392 a 0.552,0.552 0 0 0 -0.528,0.4216 0.5496,0.5496 0 0 0 0.2776,0.6104 0.5488,0.5488 0 0 0 0.6936,-0.1648 0.5504,0.5504 0 0 0 -0.0552,-0.7056 l 0.7328,-1.4992 a 0.5336,0.5336 0 0 0 0.1896,-0.016 0.5256,0.5256 0 0 0 0.2168,-0.1096 7.0608,7.0608 0 0 1 0.8128,0.4096 0.6088,0.6088 0 0 1 0.2288,0.2256 c 0.0584,0.168 -0.0584,0.4552 -0.0584,0.4552 -0.0696,0.232 -0.5616,1.24 -0.5616,1.24 a 0.5536,0.5536 0 0 0 -0.5408,0.3816 0.5448,0.5448 0 1 0 0.9256,-0.2016 c 0.0584,-0.1128 0.1128,-0.2256 0.1712,-0.3448 0.152,-0.3176 0.412,-0.928 0.412,-0.928 0.028,-0.0528 0.1744,-0.3152 0.0824,-0.6512 -0.076,-0.348 -0.384,-0.5104 -0.384,-0.5104 -0.3736,-0.2408 -0.8928,-0.464 -0.8928,-0.464 0,0 0,-0.1248 -0.0336,-0.216 a 0.5504,0.5504 0 0 0 -0.1184,-0.1928 l 0.4128,-0.8496 2.312,1.1208 c 0,0 0.384,0.1744 0.4664,0.4952 0.0584,0.2256 -0.0152,0.4272 -0.0552,0.5256 -0.192,0.4696 -1.68,3.4536 -1.68,3.4536 0,0 -0.1856,0.4432 -0.5984,0.4704 a 0.852,0.852 0 0 1 -0.3144,-0.036 l -0.1616,-0.064 -3.448,-1.68 c 0,0 -0.3336,-0.1744 -0.392,-0.4768 -0.0664,-0.248 0.0832,-0.5528 0.0832,-0.5528 l 1.6584,-3.4176 c 0,0 0.1464,-0.296 0.3728,-0.3976 a 0.684,0.684 0 0 1 0.28,-0.0616 z"
     id="path4"
     inkscape:connector-curvature="0"
     style="stroke-width:0.80000001" />
</svg>
