<?xml version="1.0" encoding="UTF-8" standalone="no"?>
<svg
   xmlns:dc="http://purl.org/dc/elements/1.1/"
   xmlns:cc="http://creativecommons.org/ns#"
   xmlns:rdf="http://www.w3.org/1999/02/22-rdf-syntax-ns#"
   xmlns:svg="http://www.w3.org/2000/svg"
   xmlns="http://www.w3.org/2000/svg"
   xmlns:sodipodi="http://sodipodi.sourceforge.net/DTD/sodipodi-0.dtd"
   xmlns:inkscape="http://www.inkscape.org/namespaces/inkscape"
   role="img"
   viewBox="0 0 24 24"
   version="1.1"
   id="svg6"
   sodipodi:docname="github.svg"
   inkscape:version="0.92.5 (2060ec1f9f, 2020-04-08)">
  <metadata
     id="metadata12">
    <rdf:RDF>
      <cc:Work
         rdf:about="">
        <dc:format>image/svg+xml</dc:format>
        <dc:type
           rdf:resource="http://purl.org/dc/dcmitype/StillImage" />
      </cc:Work>
    </rdf:RDF>
  </metadata>
  <defs
     id="defs10" />
  <sodipodi:namedview
     pagecolor="#ffffff"
     bordercolor="#666666"
     borderopacity="1"
     objecttolerance="10"
     gridtolerance="10"
     guidetolerance="10"
     inkscape:pageopacity="0"
     inkscape:pageshadow="2"
     inkscape:window-width="747"
     inkscape:window-height="480"
     id="namedview8"
     showgrid="false"
     inkscape:zoom="9.8333333"
     inkscape:cx="12"
     inkscape:cy="12"
     inkscape:window-x="0"
     inkscape:window-y="0"
     inkscape:window-maximized="0"
     inkscape:current-layer="svg6" />
  <title
     id="title2">GitHub icon</title>
  <path
     d="m 12,2.6375735 c -5.304,0 -9.6,4.2984 -9.6,9.5999995 0,4.2424 2.7504,7.84 6.564,9.108 0.48,0.0904 0.656,-0.2064 0.656,-0.4616 0,-0.228 -0.008,-0.832 -0.012,-1.632 -2.6704,0.5792 -3.2336,-1.288 -3.2336,-1.288 -0.4368,-1.108 -1.068,-1.404 -1.068,-1.404 -0.8696,-0.5952 0.0672,-0.5832 0.0672,-0.5832 0.964,0.0672 1.4704,0.9888 1.4704,0.9888 0.856,1.468 2.2472,1.044 2.796,0.7984 0.0864,-0.6208 0.3336,-1.044 0.608,-1.284 -2.132,-0.24 -4.3728,-1.0656 -4.3728,-4.744 0,-1.048 0.372,-1.9039995 0.988,-2.5759995 -0.108,-0.2424 -0.432,-1.2184 0.084,-2.5408 0,0 0.804,-0.2576 2.64,0.984 0.768,-0.2136 1.584,-0.3192 2.4,-0.324 0.816,0.0048 1.632,0.1104 2.4,0.324 1.824,-1.2416 2.628,-0.984 2.628,-0.984 0.516,1.3224 0.192,2.2984 0.096,2.5408 0.612,0.672 0.984,1.5279995 0.984,2.5759995 0,3.688 -2.244,4.5 -4.38,4.736 0.336,0.288 0.648,0.8768 0.648,1.776 0,1.2848 -0.012,2.3168 -0.012,2.6288 0,0.252 0.168,0.552 0.66,0.456 3.8408,-1.2592 6.5888,-4.8592 6.5888,-9.0952 0,-5.3015995 -4.2984,-9.5999995 -9.6,-9.5999995"
     id="path4"
     inkscape:connector-curvature="0"
     style="stroke-width:0.80000001" />
</svg>
