<?xml version="1.0" encoding="UTF-8" standalone="no"?>
<svg
   xmlns:dc="http://purl.org/dc/elements/1.1/"
   xmlns:cc="http://creativecommons.org/ns#"
   xmlns:rdf="http://www.w3.org/1999/02/22-rdf-syntax-ns#"
   xmlns:svg="http://www.w3.org/2000/svg"
   xmlns="http://www.w3.org/2000/svg"
   xmlns:sodipodi="http://sodipodi.sourceforge.net/DTD/sodipodi-0.dtd"
   xmlns:inkscape="http://www.inkscape.org/namespaces/inkscape"
   role="img"
   viewBox="0 0 24 24"
   version="1.1"
   id="svg6"
   sodipodi:docname="githubactions.svg"
   inkscape:version="0.92.5 (2060ec1f9f, 2020-04-08)">
  <metadata
     id="metadata12">
    <rdf:RDF>
      <cc:Work
         rdf:about="">
        <dc:format>image/svg+xml</dc:format>
        <dc:type
           rdf:resource="http://purl.org/dc/dcmitype/StillImage" />
      </cc:Work>
    </rdf:RDF>
  </metadata>
  <defs
     id="defs10" />
  <sodipodi:namedview
     pagecolor="#ffffff"
     bordercolor="#666666"
     borderopacity="1"
     objecttolerance="10"
     gridtolerance="10"
     guidetolerance="10"
     inkscape:pageopacity="0"
     inkscape:pageshadow="2"
     inkscape:window-width="747"
     inkscape:window-height="480"
     id="namedview8"
     showgrid="false"
     inkscape:zoom="9.8333333"
     inkscape:cx="12"
     inkscape:cy="12"
     inkscape:window-x="0"
     inkscape:window-y="0"
     inkscape:window-maximized="0"
     inkscape:current-layer="svg6" />
  <title
     id="title2">GitHub Actions icon</title>
  <path
     d="M 11.1364,13.5606 A 0.425,0.425 0 0 1 10.83635,13.4365 L 10.2031,12.80495 a 0.425,0.425 0 1 1 0.6001,-0.6018 l 0.3332,0.33235 1.00385,-1.003 a 0.42523645,0.42523645 0 0 1 0.6018,0.60095 L 11.4373,13.4365 a 0.4284,0.4284 0 0 1 -0.3009,0.1241 z m 7.95005,-0.12495 1.3039,-1.3022 A 0.425,0.425 0 0 0 19.7894,11.5325 l -1.00385,1.003 -0.3332,-0.33235 a 0.425,0.425 0 1 0 -0.6001,0.6018 l 0.6341,0.63155 a 0.42245,0.42245 0 0 0 0.6001,-8.5e-4 z M 5.64795,8.1342 7.8214,6.78695 A 0.85,0.85 0 0 0 7.8265,5.3445 L 5.65305,3.976 A 0.85,0.85 0 0 0 4.35,4.6951 V 7.4117 A 0.85085,0.85085 0 0 0 5.64795,8.1342 Z M 7.37345,6.0636 5.2,7.4117 V 4.6951 Z M 22.2,12.425 c 0,1.6405 -1.3345,2.975 -2.975,2.975 A 2.97755,2.97755 0 0 1 16.284,12.85 H 14.516 A 2.97755,2.97755 0 0 1 11.575,15.4 2.9767,2.9767 0 0 1 8.634,12.85 H 8.1597 C 7.3335,12.85 6.5872,12.51085 6.05,11.9643 V 16.25 c 0,1.4059 1.1441,2.55 2.55,2.55 h 0.034 c 0.2074,-1.43905 1.445,-2.55 2.941,-2.55 1.6405,0 2.975,1.3345 2.975,2.975 0,1.6405 -1.3345,2.975 -2.975,2.975 A 2.9767,2.9767 0 0 1 8.634,19.65 H 8.6 c -1.8751,0 -3.4,-1.5249 -3.4,-3.4 V 10.21415 A 4.2568,4.2568 0 0 1 1.8,6.05 C 1.8,3.70655 3.70655,1.8 6.05,1.8 8.39345,1.8 10.3,3.70655 10.3,6.05 A 4.25425,4.25425 0 0 1 6.0908,10.2983 2.1097,2.1097 0 0 0 8.1597,12 H 8.634 C 8.8414,10.56095 10.079,9.45 11.575,9.45 A 2.9767,2.9767 0 0 1 14.516,12 h 1.768 a 2.97755,2.97755 0 0 1 2.941,-2.55 c 1.6405,0 2.975,1.3345 2.975,2.975 z m -12.75,6.8 c 0,1.1713 0.9537,2.125 2.125,2.125 1.1713,0 2.125,-0.9537 2.125,-2.125 0,-1.1713 -0.9537,-2.125 -2.125,-2.125 -1.1713,0 -2.125,0.9537 -2.125,2.125 z M 6.05,9.45 c 1.8751,0 3.4,-1.5249 3.4,-3.4 0,-1.8751 -1.5249,-3.4 -3.4,-3.4 -1.8751,0 -3.4,1.5249 -3.4,3.4 0,1.8751 1.5249,3.4 3.4,3.4 z m 7.65,2.975 c 0,-1.1713 -0.9537,-2.125 -2.125,-2.125 -1.1713,0 -2.125,0.9537 -2.125,2.125 0,1.1713 0.9537,2.125 2.125,2.125 1.1713,0 2.125,-0.9537 2.125,-2.125 z m 7.65,0 c 0,-1.1713 -0.9537,-2.125 -2.125,-2.125 -1.1713,0 -2.125,0.9537 -2.125,2.125 0,1.1713 0.9537,2.125 2.125,2.125 1.1713,0 2.125,-0.9537 2.125,-2.125 z m -11.05,6.8 a 0.425,0.425 0 1 0 0.85,0 0.425,0.425 0 0 0 -0.85,0 z m 1.7,0 a 0.425,0.425 0 1 0 0.85,0 0.425,0.425 0 0 0 -0.85,0 z m 10.2,0 c 0,1.6405 -1.3345,2.975 -2.975,2.975 a 2.97755,2.97755 0 0 1 -2.941,-2.5517 c -0.0059,8.5e-4 -0.01105,0.0043 -0.01785,0.0043 l -0.4301,0.0144 H 15.8216 A 0.425,0.425 0 0 1 15.808,18.81785 l 0.4301,-0.01445 c 0.0153,-0.0017 0.02975,0.0051 0.0442,0.0059 A 2.97755,2.97755 0 0 1 19.225,16.25 c 1.6405,0 2.975,1.3345 2.975,2.975 z m -0.85,0 c 0,-1.1713 -0.9537,-2.125 -2.125,-2.125 -1.1713,0 -2.125,0.9537 -2.125,2.125 0,1.1713 0.9537,2.125 2.125,2.125 1.1713,0 2.125,-0.9537 2.125,-2.125 z"
     id="path4"
     inkscape:connector-curvature="0"
     style="stroke-width:0.85000002" />
</svg>
