<?xml version="1.0" encoding="UTF-8" standalone="no"?>
<svg
   xmlns:dc="http://purl.org/dc/elements/1.1/"
   xmlns:cc="http://creativecommons.org/ns#"
   xmlns:rdf="http://www.w3.org/1999/02/22-rdf-syntax-ns#"
   xmlns:svg="http://www.w3.org/2000/svg"
   xmlns="http://www.w3.org/2000/svg"
   xmlns:sodipodi="http://sodipodi.sourceforge.net/DTD/sodipodi-0.dtd"
   xmlns:inkscape="http://www.inkscape.org/namespaces/inkscape"
   role="img"
   viewBox="0 0 24 24"
   version="1.1"
   id="svg6"
   sodipodi:docname="gnubash.svg"
   inkscape:version="0.92.5 (2060ec1f9f, 2020-04-08)">
  <metadata
     id="metadata12">
    <rdf:RDF>
      <cc:Work
         rdf:about="">
        <dc:format>image/svg+xml</dc:format>
        <dc:type
           rdf:resource="http://purl.org/dc/dcmitype/StillImage" />
      </cc:Work>
    </rdf:RDF>
  </metadata>
  <defs
     id="defs10" />
  <sodipodi:namedview
     pagecolor="#ffffff"
     bordercolor="#666666"
     borderopacity="1"
     objecttolerance="10"
     gridtolerance="10"
     guidetolerance="10"
     inkscape:pageopacity="0"
     inkscape:pageshadow="2"
     inkscape:window-width="747"
     inkscape:window-height="480"
     id="namedview8"
     showgrid="false"
     inkscape:zoom="9.8333333"
     inkscape:cx="12"
     inkscape:cy="12"
     inkscape:window-x="0"
     inkscape:window-y="0"
     inkscape:window-maximized="0"
     inkscape:current-layer="svg6" />
  <title
     id="title2">GNU Bash icon</title>
  <path
     d="M 19.6823,5.965 13.24185,2.1417 C 12.85765,1.9139 12.42925,1.8 12,1.8 11.57075,1.8 11.14235,1.9139 10.7573,2.14255 L 4.31685,5.965 C 3.54845,6.42145 3.075,7.26465 3.075,8.17755 v 7.64575 c 0,0.91205 0.47345,1.7561 1.2427,2.21255 l 6.44045,3.82245 C 11.14235,22.0861 11.57075,22.2 12,22.2 c 0.42925,0 0.85765,-0.1139 1.24185,-0.3417 L 19.6823,18.03585 C 20.4507,17.5794 20.925,16.7362 20.925,15.8233 V 8.17755 c 0,-0.9129 -0.47345,-1.7561 -1.2427,-2.21255 z m -4.9878,11.9391 0.01105,0.5491 c 8.5e-4,0.0663 -0.0425,0.14195 -0.09435,0.1683 l -0.32555,0.187 c -0.05185,0.02635 -0.09435,-0.0059 -0.0952,-0.07225 l -0.006,-0.53975 c -0.2788,0.1156 -0.561,0.14365 -0.7412,0.0714 -0.034,-0.0136 -0.04845,-0.06375 -0.03485,-0.1207 l 0.11815,-0.4964 c 0.0093,-0.0391 0.0306,-0.0782 0.05865,-0.10285 0.0102,-0.0094 0.0204,-0.017 0.0306,-0.0221 0.0187,-0.0093 0.03655,-0.0119 0.0527,-0.0051 0.19465,0.06545 0.44285,0.03485 0.6817,-0.08585 0.30345,-0.15385 0.5066,-0.46325 0.5032,-0.77095 -0.0026,-0.2788 -0.15385,-0.39525 -0.52105,-0.3978 -0.4675,8.5e-4 -0.9044,-0.09095 -0.9112,-0.77945 -0.006,-0.56695 0.289,-1.15685 0.75565,-1.53 l -0.006,-0.5542 c -8.5e-4,-0.068 0.0408,-0.1428 0.09435,-0.17 l 0.3145,-0.2006 c 0.05185,-0.02635 0.09435,0.006 0.0952,0.07395 l 0.0051,0.55505 c 0.23205,-0.09265 0.43435,-0.1173 0.6171,-0.0748 0.03995,0.0102 0.05695,0.0646 0.0408,0.12835 l -0.1224,0.4913 c -0.0093,0.0374 -0.0306,0.0748 -0.05525,0.0986 -0.0102,0.0102 -0.02125,0.01785 -0.0323,0.0238 -0.01615,0.0085 -0.0323,0.01105 -0.04845,0.0076 -0.0833,-0.0187 -0.2822,-0.06205 -0.59415,0.09605 -0.32725,0.16575 -0.442,0.4505 -0.43945,0.6613 0.0026,0.25245 0.13175,0.32895 0.57885,0.3366 0.595,0.0102 0.85255,0.2703 0.8585,0.86955 0.006,0.58565 -0.3077,1.21805 -0.7888,1.6048 z m 3.37705,-0.92395 c 0,0.051 -0.0068,0.0986 -0.0493,0.12325 l -1.6286,0.9894 c -0.0425,0.02465 -0.0765,0.0034 -0.0765,-0.0476 v -0.4199 c 0,-0.051 0.03145,-0.07905 0.07395,-0.1037 l 1.60395,-0.95965 c 0.0425,-0.02465 0.0765,-0.0034 0.0765,0.0476 z m 1.1186,-9.4027 -6.0928,3.76295 c -0.7599,0.44455 -1.32005,0.94265 -1.32005,1.85895 v 7.50805 c 0,0.54825 0.221,0.90355 0.561,1.0064 -0.11135,0.01955 -0.2244,0.03315 -0.3383,0.03315 -0.357,0 -0.70805,-0.0969 -1.01745,-0.2805 L 4.5421,17.644 C 3.91225,17.27 3.52125,16.57215 3.52125,15.8233 V 8.17755 c 0,-0.74885 0.391,-1.4467 1.02085,-1.8207 l 6.44045,-3.8233 C 11.2911,2.34995 11.643,2.25305 12,2.25305 c 0.35615,0 0.70805,0.0969 1.01745,0.2805 l 6.44045,3.8233 c 0.5304,0.31535 0.8891,0.86105 0.9894,1.4722 -0.2142,-0.4556 -0.6953,-0.5797 -1.25715,-0.2516 z"
     id="path4"
     style="fill:#000000;fill-opacity:1;stroke-width:0.85000002"
     inkscape:connector-curvature="0" />
</svg>
