<?xml version="1.0" encoding="UTF-8" standalone="no"?>
<svg
   xmlns:dc="http://purl.org/dc/elements/1.1/"
   xmlns:cc="http://creativecommons.org/ns#"
   xmlns:rdf="http://www.w3.org/1999/02/22-rdf-syntax-ns#"
   xmlns:svg="http://www.w3.org/2000/svg"
   xmlns="http://www.w3.org/2000/svg"
   xmlns:sodipodi="http://sodipodi.sourceforge.net/DTD/sodipodi-0.dtd"
   xmlns:inkscape="http://www.inkscape.org/namespaces/inkscape"
   role="img"
   viewBox="0 0 24 24"
   version="1.1"
   id="svg6"
   sodipodi:docname="gnuprivacyguard.svg"
   inkscape:version="0.92.5 (2060ec1f9f, 2020-04-08)">
  <metadata
     id="metadata12">
    <rdf:RDF>
      <cc:Work
         rdf:about="">
        <dc:format>image/svg+xml</dc:format>
        <dc:type
           rdf:resource="http://purl.org/dc/dcmitype/StillImage" />
      </cc:Work>
    </rdf:RDF>
  </metadata>
  <defs
     id="defs10" />
  <sodipodi:namedview
     pagecolor="#ffffff"
     bordercolor="#666666"
     borderopacity="1"
     objecttolerance="10"
     gridtolerance="10"
     guidetolerance="10"
     inkscape:pageopacity="0"
     inkscape:pageshadow="2"
     inkscape:window-width="747"
     inkscape:window-height="480"
     id="namedview8"
     showgrid="false"
     inkscape:zoom="9.8333333"
     inkscape:cx="12"
     inkscape:cy="12"
     inkscape:window-x="0"
     inkscape:window-y="0"
     inkscape:window-maximized="0"
     inkscape:current-layer="svg6" />
  <title
     id="title2">GNU Privacy Guard icon</title>
  <path
     d="m 4.3228,11.64555 h 1.0829 v -3.247 A 6.596,6.596 0 0 1 12.00425,1.8 a 6.596,6.596 0 0 1 6.5977,6.59855 v 3.21555 c -0.0153,0.0085 -0.03145,0.0238 -0.0476,0.03145 l -0.0085,0.0085 -0.0068,0.0076 h -0.0085 l -0.0085,0.0085 -0.0077,0.0076 h -0.0238 l -0.0153,0.0153 h -0.017 l -0.0153,0.0085 h -0.0085 l -0.0076,0.0085 -0.0077,0.0076 h -0.0085 l -0.0076,0.0076 -0.0077,0.0085 -0.0085,0.0076 -0.0077,0.0076 -0.0238,0.01615 -0.01615,0.0085 -0.0238,0.0153 -0.0153,0.0085 -0.017,0.0076 -0.02295,0.0153 -0.01615,0.0085 -0.0085,0.0076 -0.02295,0.01615 -0.017,0.0085 -0.0391,0.02295 -0.01615,0.0085 -0.0153,0.0077 -0.017,0.0085 H 18.1013 L 18.05285,11.932 H 18.0367 c -0.0153,0.0085 -0.03145,0.017 -0.05525,0.0323 h -0.0085 l -0.0077,0.0085 -0.0238,0.0153 -0.0153,0.0085 -0.02465,0.0153 -0.0153,0.0085 h -0.0085 l -0.0238,0.0153 -0.0153,0.0085 -0.017,0.0076 c -0.0153,0.0085 -0.0391,0.01615 -0.05525,0.0238 l -0.0153,0.0085 -0.017,0.0076 -0.03145,0.0153 -0.03145,0.017 -0.03995,0.0153 -0.03995,0.01615 -0.01615,0.0076 -0.03145,0.01615 -0.01615,0.0085 c -1.31325,0.62815 -3.41445,1.2886 -7.4018,1.57505 -2.8577,0.2074 -4.59255,1.46455 -5.7154,2.9767 z m 4.1157,0 h 7.11535 v -3.247 A 3.5564,3.5564 0 0 0 11.99575,4.84045 3.5564,3.5564 0 0 0 8.4385,8.39855 Z M 19.6772,12.8874 V 22.2 H 6.5362 c 1.4484,-0.8041 2.5228,-0.7242 4.31375,-0.66895 2.43525,0.0799 5.1255,-0.93925 6.44725,-2.2916 1.3209,-1.3532 -0.119,-0.31875 -1.61585,0.0629 -1.496,0.3825 -4.3945,0.42245 -6.3359,-0.08755 6.09705,0.0799 8.47705,-1.88615 9.82175,-3.66095 1.34555,-1.76715 -0.58055,-0.31025 -1.83005,0.3026 -1.2495,0.612 -3.4306,1.04295 -5.8344,0.7242 3.6295,-0.0085 6.392,-1.8224 8.16595,-3.69325 z"
     id="path4"
     inkscape:connector-curvature="0"
     style="stroke-width:0.85000002" />
</svg>
