<?xml version="1.0" encoding="UTF-8" standalone="no"?>
<svg
   xmlns:dc="http://purl.org/dc/elements/1.1/"
   xmlns:cc="http://creativecommons.org/ns#"
   xmlns:rdf="http://www.w3.org/1999/02/22-rdf-syntax-ns#"
   xmlns:svg="http://www.w3.org/2000/svg"
   xmlns="http://www.w3.org/2000/svg"
   xmlns:sodipodi="http://sodipodi.sourceforge.net/DTD/sodipodi-0.dtd"
   xmlns:inkscape="http://www.inkscape.org/namespaces/inkscape"
   role="img"
   viewBox="0 0 24 24"
   version="1.1"
   id="svg6"
   sodipodi:docname="googlephotos.svg"
   inkscape:version="0.92.5 (2060ec1f9f, 2020-04-08)">
  <metadata
     id="metadata12">
    <rdf:RDF>
      <cc:Work
         rdf:about="">
        <dc:format>image/svg+xml</dc:format>
        <dc:type
           rdf:resource="http://purl.org/dc/dcmitype/StillImage" />
      </cc:Work>
    </rdf:RDF>
  </metadata>
  <defs
     id="defs10" />
  <sodipodi:namedview
     pagecolor="#ffffff"
     bordercolor="#666666"
     borderopacity="1"
     objecttolerance="10"
     gridtolerance="10"
     guidetolerance="10"
     inkscape:pageopacity="0"
     inkscape:pageshadow="2"
     inkscape:window-width="747"
     inkscape:window-height="480"
     id="namedview8"
     showgrid="false"
     inkscape:zoom="9.8333333"
     inkscape:cx="12"
     inkscape:cy="12"
     inkscape:window-x="0"
     inkscape:window-y="0"
     inkscape:window-maximized="0"
     inkscape:current-layer="svg6" />
  <title
     id="title2">Google Photos icon</title>
  <path
     d="m 12.542409,15.737514 c 0,1.74 0.0016,3.652 -8e-4,5.1952 -8e-4,0.4608 -0.1952,0.6512 -0.6536,0.6664 -5.6359999,0.0624 -7.1415999,-6.2968 -3.5743999,-9.0672 -1.56,0.0128 -3.2152,0.0056 -4.7888,0.0056 -1.0808,0 -1.1312,-0.008 -1.124,-1.0808 0.2064,-5.2664005 6.3568,-6.6200005 9.0583999,-3.1488005 l -0.0128,-5.1656 c -8e-4,-0.556 0.1696,-0.7248 0.7248,-0.74 5.1272,-0.1496 7.328,5.8464 3.5408,9.0608005 l 4.9048,0.0016 c 0.8776,0 0.9928,0.084 0.9824,0.9736 -0.1784,5.3784 -6.2416,6.7008 -9.0568,3.2992 z m 0.0016,-12.2272005 -0.0024,7.9776005 c 5.248,-0.372 5.2784,-7.6256005 0.0024,-7.9776005 z m -1.088,16.9792005 -8e-4,-7.976 c -5.5415999,0.4784 -5.0319999,7.7808 0.0016,7.976 z m -7.9359999,-9.0376 7.9599999,0.0064 c -0.4216,-5.4632005 -7.8095999,-5.0936005 -7.9599999,-0.0064 z m 8.9903999,1.092 c 0.5456,5.5 7.736,5.0272 7.9816,0.008 z"
     id="path4"
     inkscape:connector-curvature="0"
     style="stroke-width:0.80000001" />
</svg>
