<?xml version="1.0" encoding="UTF-8" standalone="no"?>
<svg
   xmlns:dc="http://purl.org/dc/elements/1.1/"
   xmlns:cc="http://creativecommons.org/ns#"
   xmlns:rdf="http://www.w3.org/1999/02/22-rdf-syntax-ns#"
   xmlns:svg="http://www.w3.org/2000/svg"
   xmlns="http://www.w3.org/2000/svg"
   xmlns:sodipodi="http://sodipodi.sourceforge.net/DTD/sodipodi-0.dtd"
   xmlns:inkscape="http://www.inkscape.org/namespaces/inkscape"
   role="img"
   viewBox="0 0 24 24"
   version="1.1"
   id="svg6"
   sodipodi:docname="googlechrome.svg"
   inkscape:version="0.92.5 (2060ec1f9f, 2020-04-08)">
  <metadata
     id="metadata12">
    <rdf:RDF>
      <cc:Work
         rdf:about="">
        <dc:format>image/svg+xml</dc:format>
        <dc:type
           rdf:resource="http://purl.org/dc/dcmitype/StillImage" />
      </cc:Work>
    </rdf:RDF>
  </metadata>
  <defs
     id="defs10" />
  <sodipodi:namedview
     pagecolor="#ffffff"
     bordercolor="#666666"
     borderopacity="1"
     objecttolerance="10"
     gridtolerance="10"
     guidetolerance="10"
     inkscape:pageopacity="0"
     inkscape:pageshadow="2"
     inkscape:window-width="747"
     inkscape:window-height="480"
     id="namedview8"
     showgrid="false"
     inkscape:zoom="9.8333333"
     inkscape:cx="12"
     inkscape:cy="12"
     inkscape:window-x="0"
     inkscape:window-y="0"
     inkscape:window-maximized="0"
     inkscape:current-layer="svg6" />
  <title
     id="title2">Google Chrome icon</title>
  <path
     d="M 11.999999,2.4 C 8.9679985,2.4 6.2647985,3.8056 4.5055985,6.0008 l 3.1624,5.4784 A 4.3632,4.3632 0 0 1 11.999999,7.636 h 8.5528 A 9.6,9.6 0 0 0 11.999999,2.4 Z M 3.9447985,6.776 A 9.5544,9.5544 0 0 0 2.3999985,12 c 0,4.8096 3.536,8.7928 8.1512005,9.4912 l 3.1624,-5.4776 A 4.36,4.36 0 0 1 8.2215985,14.1816 Z M 14.618399,8.5088 a 4.3568,4.3568 0 0 1 1.16,5.672 l 0.0016,8e-4 h -0.0016 l -4.2752,7.4056 c 0.1648,0.008 0.3304,0.0128 0.4968,0.0128 5.3016,0 9.6,-4.2984 9.6,-9.6 0,-1.232 -0.232,-2.4088 -0.6544,-3.4912 z m -2.6184,6.9824 a 3.4912,3.4912 0 1 1 0,-6.9824 3.4912,3.4912 0 0 1 0,6.9824 z"
     id="path4"
     inkscape:connector-curvature="0"
     style="stroke-width:0.80000001" />
</svg>
