<?xml version="1.0" encoding="UTF-8" standalone="no"?>
<svg
   xmlns:dc="http://purl.org/dc/elements/1.1/"
   xmlns:cc="http://creativecommons.org/ns#"
   xmlns:rdf="http://www.w3.org/1999/02/22-rdf-syntax-ns#"
   xmlns:svg="http://www.w3.org/2000/svg"
   xmlns="http://www.w3.org/2000/svg"
   xmlns:sodipodi="http://sodipodi.sourceforge.net/DTD/sodipodi-0.dtd"
   xmlns:inkscape="http://www.inkscape.org/namespaces/inkscape"
   role="img"
   viewBox="0 0 24 24"
   version="1.1"
   id="svg6"
   sodipodi:docname="helm.svg"
   inkscape:version="0.92.5 (2060ec1f9f, 2020-04-08)">
  <metadata
     id="metadata12">
    <rdf:RDF>
      <cc:Work
         rdf:about="">
        <dc:format>image/svg+xml</dc:format>
        <dc:type
           rdf:resource="http://purl.org/dc/dcmitype/StillImage" />
      </cc:Work>
    </rdf:RDF>
  </metadata>
  <defs
     id="defs10" />
  <sodipodi:namedview
     pagecolor="#ffffff"
     bordercolor="#666666"
     borderopacity="1"
     objecttolerance="10"
     gridtolerance="10"
     guidetolerance="10"
     inkscape:pageopacity="0"
     inkscape:pageshadow="2"
     inkscape:window-width="1920"
     inkscape:window-height="1005"
     id="namedview8"
     showgrid="false"
     inkscape:zoom="9.8333333"
     inkscape:cx="12"
     inkscape:cy="12"
     inkscape:window-x="0"
     inkscape:window-y="0"
     inkscape:window-maximized="1"
     inkscape:current-layer="svg6" />
  <title
     id="title2">Helm icon</title>
  <path
     d="m 12.28645,1.8 c -0.40375,0 -0.73185,0.8636 -0.73185,1.92865 0,0.44795 0.05865,0.85935 0.15555,1.1866 A 7.2369,7.2369 0 0 0 8.3433,5.95225 4.44465,4.44465 0 0 0 7.83755,5.0232 C 7.32245,4.2871 6.69855,3.8026 6.31605,3.8077 A 0.32385,0.32385 0 0 0 6.1316,3.8638 C 5.8001,4.09585 6.02705,4.9909 6.6382,5.86385 6.86515,6.1877 7.11335,6.4631 7.3522,6.66965 a 7.38055,7.38055 0 0 0 -1.2988,1.4586 h 1.4739 a 6.10215,6.10215 0 0 1 4.57385,-2.05785 6.103,6.103 0 0 1 4.5747,2.057 H 18.1489 A 7.38395,7.38395 0 0 0 17.0269,6.8269 C 17.3244,6.61525 17.65165,6.28035 17.9432,5.86385 18.55435,4.9909 18.7813,4.09585 18.4498,3.8638 A 0.3247,0.3247 0 0 0 18.26535,3.80855 c -0.3825,-0.00595 -1.0064,0.47855 -1.5215,1.2155 A 4.16245,4.16245 0 0 0 16.16925,6.1503 7.242,7.242 0 0 0 12.8551,4.9433 C 12.9571,4.6118 13.01915,4.18935 13.01915,3.72865 13.01915,2.6636 12.69105,1.8 12.28645,1.8 Z M 3.1804,9.82655 v 4.3877 h 1.1543 v -1.6728 h 1.394 v 1.6728 H 6.88215 V 9.82655 H 5.727 v 1.5623 H 4.333 v -1.5623 z m 5.0252,0 v 4.3877 h 2.7285 v -0.9418 H 9.35905 v -0.8075 h 1.394 v -0.9707 h -1.394 v -0.714 h 1.57505 v -0.9537 z m 3.9933,0 v 4.3877 h 2.7353 v -1.1577 h -1.581 v -3.23 z m 4.0001,0 v 4.3877 h 1.1594 V 11.9677 l 1.15345,1.04125 1.1475,-1.0472 v 2.2525 h 1.16025 v -4.3877 h -0.5219 l -1.785,1.6269 -1.79265,-1.6269 z m -10.047,6.188 a 7.3848,7.3848 0 0 0 1.2002,1.3158 4.4251,4.4251 0 0 0 -0.71485,0.8058 C 6.0262,19.0091 5.8001,19.90415 6.13075,20.1362 6.46225,20.36825 7.2264,19.8489 7.8367,18.9768 a 4.4455,4.4455 0 0 0 0.50575,-0.9282 7.2369,7.2369 0 0 0 3.36685,1.03615 4.2585,4.2585 0 0 0 -0.15555,1.1866 c 0,1.06505 0.3281,1.92865 0.73185,1.92865 0.4046,0 0.7327,-0.8636 0.7327,-1.92865 0,-0.4607 -0.0612,-0.884 -0.16405,-1.2155 a 7.242,7.242 0 0 0 3.315,-1.207 c 0.10285,0.34 0.2992,0.73525 0.57375,1.12795 0.61115,0.8721 1.37445,1.39145 1.70595,1.1594 0.3315,-0.23205 0.10455,-1.1271 -0.5066,-2.00005 C 17.6508,17.71965 17.3244,17.3839 17.0269,17.1714 a 7.3865,7.3865 0 0 0 1.0217,-1.156 H 16.54325 A 6.0979,6.0979 0 0 1 12.1003,17.9296 6.0979,6.0979 0 0 1 7.6582,16.0154 Z"
     id="path4"
     inkscape:connector-curvature="0"
     style="stroke-width:0.85000002" />
</svg>
