<?xml version="1.0" encoding="UTF-8" standalone="no"?>
<svg
   xmlns:dc="http://purl.org/dc/elements/1.1/"
   xmlns:cc="http://creativecommons.org/ns#"
   xmlns:rdf="http://www.w3.org/1999/02/22-rdf-syntax-ns#"
   xmlns:svg="http://www.w3.org/2000/svg"
   xmlns="http://www.w3.org/2000/svg"
   xmlns:sodipodi="http://sodipodi.sourceforge.net/DTD/sodipodi-0.dtd"
   xmlns:inkscape="http://www.inkscape.org/namespaces/inkscape"
   role="img"
   viewBox="0 0 24 24"
   version="1.1"
   id="svg6"
   sodipodi:docname="influxdb.svg"
   inkscape:version="0.92.5 (2060ec1f9f, 2020-04-08)">
  <metadata
     id="metadata12">
    <rdf:RDF>
      <cc:Work
         rdf:about="">
        <dc:format>image/svg+xml</dc:format>
        <dc:type
           rdf:resource="http://purl.org/dc/dcmitype/StillImage" />
      </cc:Work>
    </rdf:RDF>
  </metadata>
  <defs
     id="defs10" />
  <sodipodi:namedview
     pagecolor="#ffffff"
     bordercolor="#666666"
     borderopacity="1"
     objecttolerance="10"
     gridtolerance="10"
     guidetolerance="10"
     inkscape:pageopacity="0"
     inkscape:pageshadow="2"
     inkscape:window-width="747"
     inkscape:window-height="480"
     id="namedview8"
     showgrid="false"
     inkscape:zoom="9.8333333"
     inkscape:cx="12"
     inkscape:cy="12"
     inkscape:window-x="0"
     inkscape:window-y="0"
     inkscape:window-maximized="0"
     inkscape:current-layer="svg6" />
  <title
     id="title2">InfluxDB icon</title>
  <path
     d="M 21.419991,13.9544 19.585591,6 c -0.1024,-0.4288 -0.4968,-0.8744 -0.9424,-0.9944 l -8.3488,-2.5712 C 10.191191,2.4 10.071191,2.4 9.9343907,2.4 c -0.36,0 -0.72,0.1368 -0.9776,0.36 l -5.9824,5.5712 c -0.3264,0.2928 -0.4976,0.8744 -0.3944,1.2856 l 1.9544,8.52 c 0.1024,0.4288 0.4968,0.8744 0.9424,0.9944 l 7.8176003,2.4344 c 0.1024,0.0344 0.2224,0.0344 0.36,0.0344 0.36,0 0.72,-0.1368 0.9768,-0.36 l 6.3944,-5.9488 c 0.3256,-0.3424 0.4976,-0.8912 0.3944,-1.3368 z m -10.2512,-9.6344 5.7424,1.7656 c 0.2232,0.0688 0.2232,0.1712 0,0.2232 l -3.0168,0.6856 c -0.2232,0.0688 -0.5488,-0.0344 -0.7032,-0.2056 l -2.0912,-2.2632 c -0.1888,-0.1888 -0.1544,-0.2744 0.0688,-0.2056 z m 3.5824,10.2856 c 0.0688,0.2232 -0.0856,0.36 -0.308,0.2912 l -6.1888003,-1.92 c -0.2232,-0.068 -0.2744,-0.2568 -0.1032,-0.4112 L 12.883191,8.16 c 0.1712,-0.1712 0.36,-0.1032 0.4112,0.12 z M 4.5519907,9 l 5.0224,-4.68 c 0.1712,-0.1712 0.4288003,-0.1368 0.6000003,0.0168 l 2.52,2.7264 c 0.1712,0.1712 0.1368,0.428 -0.0176,0.6 l -5.0224003,4.68 c -0.1712,0.1712 -0.4288,0.1368 -0.6,-0.0176 l -2.52,-2.7256 c -0.1712,-0.1888 -0.1544,-0.4632 0.0168,-0.6 z m 1.2176,7.4056 -1.32,-5.8288 c -0.0688,-0.2224 0.0344,-0.2736 0.188,-0.1024 l 2.092,2.2624 c 0.1712,0.172 0.2224,0.4976 0.1712,0.72 l -0.9088,2.9488 c -0.068,0.24 -0.1712,0.24 -0.2224,0 z m 7.3544003,3.4288 -6.5664003,-2.04 a 0.444,0.444 0 0 1 -0.2912,-0.5488 l 1.0976,-3.5312 a 0.444,0.444 0 0 1 0.548,-0.2912 l 6.5656003,2.0224 c 0.2232,0.0688 0.36,0.3088 0.292,0.5488 l -1.0976,3.5312 a 0.4784,0.4784 0 0 1 -0.548,0.3088 z m 5.828,-4.7832 -4.388,4.08 c -0.172,0.172 -0.2576,0.1032 -0.1888,-0.12 l 0.9088,-2.948 c 0.068,-0.2232 0.308,-0.4632 0.548,-0.4976 l 3.0176,-0.6856 c 0.2224,-0.0856 0.2568,0.0168 0.1024,0.1712 z m 0.48,-0.8912 -3.6168,0.8232 c -0.2232,0.068 -0.4632,-0.0864 -0.5144,-0.3088 l -1.5432,-6.6856 c -0.068,-0.2232 0.0864,-0.4632 0.3088,-0.5144 l 3.6176,-0.8232 c 0.2224,-0.068 0.4624,0.0856 0.5136,0.3088 l 1.5432,6.6856 c 0.0512,0.2576 -0.0856,0.48 -0.3088,0.5144 z"
     id="path4"
     inkscape:connector-curvature="0"
     style="stroke-width:0.80000001" />
</svg>
