<?xml version="1.0" encoding="UTF-8" standalone="no"?>
<svg
   xmlns:dc="http://purl.org/dc/elements/1.1/"
   xmlns:cc="http://creativecommons.org/ns#"
   xmlns:rdf="http://www.w3.org/1999/02/22-rdf-syntax-ns#"
   xmlns:svg="http://www.w3.org/2000/svg"
   xmlns="http://www.w3.org/2000/svg"
   xmlns:sodipodi="http://sodipodi.sourceforge.net/DTD/sodipodi-0.dtd"
   xmlns:inkscape="http://www.inkscape.org/namespaces/inkscape"
   role="img"
   viewBox="0 0 24 24"
   version="1.1"
   id="svg6"
   sodipodi:docname="jekyll.svg"
   inkscape:version="0.92.5 (2060ec1f9f, 2020-04-08)">
  <metadata
     id="metadata12">
    <rdf:RDF>
      <cc:Work
         rdf:about="">
        <dc:format>image/svg+xml</dc:format>
        <dc:type
           rdf:resource="http://purl.org/dc/dcmitype/StillImage" />
      </cc:Work>
    </rdf:RDF>
  </metadata>
  <defs
     id="defs10" />
  <sodipodi:namedview
     pagecolor="#ffffff"
     bordercolor="#666666"
     borderopacity="1"
     objecttolerance="10"
     gridtolerance="10"
     guidetolerance="10"
     inkscape:pageopacity="0"
     inkscape:pageshadow="2"
     inkscape:window-width="747"
     inkscape:window-height="480"
     id="namedview8"
     showgrid="false"
     inkscape:zoom="9.8333333"
     inkscape:cx="12"
     inkscape:cy="12"
     inkscape:window-x="0"
     inkscape:window-y="0"
     inkscape:window-maximized="0"
     inkscape:current-layer="svg6" />
  <title
     id="title2">Jekyll icon</title>
  <path
     d="m 8.8583295,21.6 c -0.2784,0 -0.5512,-0.0504 -0.816,-0.1512 -1.1,-0.42 -1.6832,-1.616 -1.3808,-2.7216 l -0.012,-0.0048 0.072,-0.1808 L 12.31913,4.008 c 0.084,-0.216 0.0456,-0.728 0.0048,-1.0136 -0.0128,-0.068 -0.0128,-0.1288 0.0064,-0.192 l 0.0064,-0.0184 0.0048,-0.012 V 2.7664 l 0.0072,-0.0152 c 0.0864,-0.2336 0.36,-0.3512 0.8064,-0.3512 0.5384,0 1.2816,0.168 2.0408,0.4584 0.6376,0.2456 1.2184,0.5512 1.6264,0.86 0.4816,0.36 0.6736,0.6832 0.5656,0.96 l -0.0248,0.036 -0.0128,0.012 c -0.036,0.0488 -0.072,0.096 -0.12,0.132 -0.2512,0.2168 -0.6112,0.588 -0.672,0.756 l -5.6504,14.7368 -0.0128,-0.0048 c -0.3952,0.7584 -1.1656005,1.2456 -2.0344005,1.2488 h -0.0048 z m -1.7496,-2.9744 -0.016,0.04 c -0.3576,0.9608 0.1296,2.0456 1.0912,2.4144 0.2168,0.084 0.4408,0.1232 0.6696,0.1232 0.7768,0 1.4640005,-0.468 1.7504005,-1.2 l 0.0216,-0.0488 5.5672,-14.472 c 0.1168,-0.312 0.672,-0.816 0.7832,-0.912 l 0.0128,-0.0128 c 0.0096,-0.012 0.016,-0.012 0.016,-0.024 0,-0.048 -0.0488,-0.216 -0.4456,-0.516 -0.3832,-0.288 -0.9232,-0.576 -1.5232,-0.804 -0.6944,-0.2624 -1.4144,-0.4312 -1.8944,-0.4312 -0.312,0 -0.4192,0.0656 -0.436,0.1008 v 0.032 c 0.0128,0.0832 0.1176,0.828 -0.0272,1.212 L 7.1087295,18.6232 Z M 14.26873,9.42 c 0,0 -0.7712,0.8872 -1.4744,1.2072 -0.704,0.3184 -1.2232,0.2344 -1.856,0.6048 -0.6312,0.3688 -0.9504005,0.8824 -0.9504005,0.8824 l -2.572,6.6896 c -0.2784,0.7552 0.1344,1.64 0.9,1.936 0.768,0.2952 1.632,-0.096 1.9296005,-0.8448 z m -3.9448,7.988 c 0.0832,-0.0328 0.18,0 0.2128,0.084 0.0336,0.0832 0,0.1776 -0.084,0.2112 -0.0832,0.0344 -0.18,0 -0.2128,-0.0832 -0.0336,-0.0776 0,-0.1728 0.084,-0.212 z M 9.5127295,15.9664 c -0.1216,0.0544 -0.2672,0 -0.3176,-0.124 -0.056,-0.1216 0,-0.2672 0.1232,-0.3176 0.1232,-0.056 0.268,0 0.3184,0.1224 0.0592,0.12 0.0064,0.2512 -0.124,0.312 z m 0.2288,-0.8768 c -0.0984,-0.2304 0,-0.4984 0.2296,-0.6064 0.2280005,-0.0992 0.4920005,0 0.6000005,0.228 0.0968,0.2312 0,0.4992 -0.228,0.6056 -0.24,0.1008 -0.5032005,0 -0.6120005,-0.228 z M 11.68233,13.2832 c 0.1224,-0.0592 0.268,0 0.3184,0.12 0.056,0.1232 0,0.2688 -0.1224,0.3192 -0.124,0.056 -0.2696,0 -0.3192,-0.124 -0.0592,-0.1216 0,-0.2672 0.1232,-0.3176 z M 10.64793,12.18 c 0.084,-0.0336 0.1808,0 0.2128,0.084 0.0344,0.0832 0,0.1808 -0.0832,0.2128 -0.0832,0.0336 -0.1808,0 -0.212,-0.0832 -0.0352,-0.0848 0.0048,-0.1816 0.0824,-0.2136 z m 2.6968,-8.868 c 0.08,-0.2088 0.7944,-0.1296 1.596,0.1808 0.7992,0.3072 1.3832,0.7272 1.304,0.936 -0.0832,0.2112 -0.7976,0.1312 -1.5968,-0.1768 -0.804,-0.308 -1.3872,-0.728 -1.3056,-0.9408 h 0.0024 z"
     id="path4"
     inkscape:connector-curvature="0"
     style="stroke-width:0.80000001" />
</svg>
