<?xml version="1.0" encoding="UTF-8" standalone="no"?>
<svg
   xmlns:dc="http://purl.org/dc/elements/1.1/"
   xmlns:cc="http://creativecommons.org/ns#"
   xmlns:rdf="http://www.w3.org/1999/02/22-rdf-syntax-ns#"
   xmlns:svg="http://www.w3.org/2000/svg"
   xmlns="http://www.w3.org/2000/svg"
   xmlns:sodipodi="http://sodipodi.sourceforge.net/DTD/sodipodi-0.dtd"
   xmlns:inkscape="http://www.inkscape.org/namespaces/inkscape"
   role="img"
   viewBox="0 0 24 24"
   version="1.1"
   id="svg6"
   sodipodi:docname="jenkins.svg"
   inkscape:version="0.92.5 (2060ec1f9f, 2020-04-08)">
  <metadata
     id="metadata12">
    <rdf:RDF>
      <cc:Work
         rdf:about="">
        <dc:format>image/svg+xml</dc:format>
        <dc:type
           rdf:resource="http://purl.org/dc/dcmitype/StillImage" />
      </cc:Work>
    </rdf:RDF>
  </metadata>
  <defs
     id="defs10" />
  <sodipodi:namedview
     pagecolor="#ffffff"
     bordercolor="#666666"
     borderopacity="1"
     objecttolerance="10"
     gridtolerance="10"
     guidetolerance="10"
     inkscape:pageopacity="0"
     inkscape:pageshadow="2"
     inkscape:window-width="747"
     inkscape:window-height="480"
     id="namedview8"
     showgrid="false"
     inkscape:zoom="9.8333333"
     inkscape:cx="12"
     inkscape:cy="12"
     inkscape:window-x="0"
     inkscape:window-y="0"
     inkscape:window-maximized="0"
     inkscape:current-layer="svg6" />
  <title
     id="title2">Jenkins icon</title>
  <path
     d="m 4.6975525,21.600019 h -0.78 a 3.0928,3.0928 0 0 1 -0.056,-0.1576 c -0.172,-0.5328 -0.4752,-1.192 -0.5536,-1.7232 -0.1168,-0.7872 0.624,-0.8312 1.0992,-1.172 0.732,-0.528 1.308,-0.82 2.1016,-1.296 0.236,-0.1432 0.9456,-0.4992 1.0248,-0.6632 0.1608,-0.3264 -0.276,-0.7856 -0.392,-1.04 -0.18,-0.4056 -0.276,-0.7496 -0.3008,-1.148 -0.6592,-0.104 -1.164,-0.5016 -1.4752,-0.948 -0.504,-0.74 -0.8528,-2.108 -0.42,-3.1488 0.036,-0.0824 0.2032,-0.244 0.228,-0.3704003 0.048,-0.2464 -0.084,-0.576 -0.096,-0.8384 -0.048,-1.3536 0.2272,-2.52 1.14,-2.928 0.3704,-1.472 1.6904,-1.9624 2.9384,-2.6936 0.464,-0.2736 0.9792005,-0.4496 1.5120005,-0.6456 1.8976,-0.7016 4.8216,-0.5696 6.3952,0.6264 0.6688,0.5064 1.7408,1.576 2.1248,2.3512 1.0096,2.044 0.936,5.4600003 0.2296,7.9472003 -0.096,0.3368 -0.232,0.8256 -0.4264,1.2264 -0.1344,0.28 -0.5512,0.84 -0.5,1.088 0.0512,0.2512 0.952,0.936 1.1456,1.116 0.3472,0.3376 1.008,0.78 1.0592,1.2 0.056,0.4456 -0.1984,1.0688 -0.328,1.5 -0.1736,0.5768 -0.3488,1.1528 -0.5232,1.7048 H 4.6959525 Z m 8.8832005,-2.832 c -0.436,-0.24 -1.0888,-0.4976 -1.652,-0.6056 -0.696,-0.1312 -0.624,0.9504 -0.6,1.5952 0.024,0.5144 0.288,1.0528 0.408,1.3952 0.0608,0.1576 0.072,0.328 0.2048,0.3592 0.24,0.0544 1.032,-0.2608 1.26,-0.3832 0.48,-0.2624 0.8512,-0.6752 1.2592,-0.9512 0.0128,-0.136 0.0128,-0.272 0.024,-0.4064 a 2.1184,2.1184 0 0 0 -0.876,-0.2216 c 0.2512,-0.12 0.6,-0.12 0.828,-0.2656 l 0.0128,-0.1544 c -0.3968,-0.024 -0.552,-0.2032 -0.8168,-0.3488 z m 5.9632,2.348 a 14.224,14.224 0 0 0 0.372,-1.4016 c 0.048,-0.2296 0.172,-0.7344 0.1424,-0.9408 -0.0472,-0.3672 -0.5472,-0.6392 -0.8032,-0.8688 -0.4672,-0.42 -0.76,-0.78 -1.248,-1.1752 -0.1992,0.3 -0.624,0.492 -0.7864,0.7312 1.1576,-0.5512 1.368,2.1 0.9128,2.952 0.072,0.2632 0.3128,0.36 0.4112,0.588 l -0.0688,0.1328 h 1.032 c 0.0104,0 0.024,0 0.0352,0.0112 z m -5.3072,-0.0096 c -0.04,-0.0592 -0.08,-0.108 -0.12,-0.1672 l -0.2408,0.156 h 0.36 z m 2.216,0 c 0.0064,-0.1672 0.0144,-0.3232 0.024,-0.4784 -0.424,0.0232 -0.66,-0.384 -0.9568,-0.4216 -0.2592,-0.036 -0.48,0.2888 -0.816,0.156 -0.076,0.084 -0.1464,0.1816 -0.2272,0.2528 0.1232,0.144 0.236,0.3 0.3392,0.4672 h 0.652 c 0.0112,-0.1312 0.108,-0.228 0.24,-0.228 0.132,0 0.2272,0.0968 0.2272,0.216 h 0.528 z m 1.6928,0 c -0.2512,-0.3832 -0.7576,-0.7184 -1.344,-0.444 l -0.024,0.4328 h 1.368 z m -6.808,0 -0.0832,-0.2752 c -0.18,-0.576 -0.288,-1.008 -0.324,-1.344 -0.7312,-0.3488 -1.5000005,-0.696 -2.1232005,-1.1408 -0.12,-0.084 -0.8872,-1.08 -0.984,-1.044 -1.3912,0.5408 -2.6872,1.488 -3.8512,2.3872 0.2048,0.4456 0.384,0.9128 0.552,1.392 h 6.8040005 z m 6.612,-1.6904 c -0.0232,-0.4096 -0.1312,-1.248 -0.384,-1.392 -0.528,-0.312 -1.4768,0.624 -1.872,0.7544 0.036,0.12 0.108,0.2168 0.12,0.384 0.228,-0.0592 0.516,-0.0232 0.7184,0.0736 -0.2392,0.024 -0.5032,0.024 -0.6592,0.1312 -0.0592,0.156 0.0128,0.384 -0.0232,0.6112 0.552,0.1576 1.2,0.2424 1.908,0.2656 0.1312,-0.1816 0.18,-0.516 0.1688,-0.8656 z m -3.264,-0.288 c -0.0352,0.3 0.0368,0.408 0.096,0.7544 1.008,0.3128 0.8272,-1.392 -0.108,-0.7672 z m -5.2776005,-1.128 c -0.36,0.3656 1.0160005,0.8656 1.4512005,0.892 0,-0.232 0.132,-0.4512 0.108,-0.616 -0.52,-0.0944 -1.2016005,-0.0336 -1.5560005,-0.2776 z m 4.4520005,0.172 c 0,0.0344 -0.0488,0.024 -0.0544,0.0512 0.464,0.3608 0.8112,0.436 1.4416,0.408 0.2832,-0.2096 0.536,-0.4504 0.8344,-0.6456 -0.684,0.0592 -1.5448,0.4856 -2.2192,0.184 z m 2.736,-14.1808003 c -1.2848,-0.7248 -3.48,-1.2728 -4.8608,-0.5848 -1.104,0.5536 -2.6160005,1.472 -3.1192005,2.6336 0.48,1.1216 -0.1328,2.1488 -0.1808,3.2872 -0.0144,0.6056 0.288,1.1360003 0.3128,1.7936003 -0.16,0.2704 -0.66,0.304 -1.008,0.2848 -0.1168,-0.5832 -0.32,-1.2392 -0.924,-1.304 -0.8512,-0.0928 -1.476,0.6112 -1.512,1.3464 -0.048,0.864 0.6664,2.2912 1.668,2.196 0.3904,-0.0368 0.4864,-0.432 0.9112,-0.432 0.228,0.456 -0.356,0.6 -0.4184,0.9232 -0.0128,0.084 0.048,0.4088 0.0832,0.564 0.1864,0.7552 0.5952,1.728 0.996,2.304 0.508,0.72 1.5072005,0.8408 2.5832005,0.9128 0.192,-0.42 0.9,-0.384 1.3648,-0.2768 -0.5528,-0.216 -1.0688,-0.756 -1.5,-1.2232 -0.492,-0.5408 -0.984,-1.128 -1.0088005,-1.824 0.9240005,1.2832 1.6800005,2.4 3.3600005,2.9632 1.272,0.42 2.76,-0.2032 3.7312,-0.8872 0.408,-0.2872 0.6488,-0.744 0.936,-1.1512 1.08,-1.5488 1.584,-3.768 1.4768,-5.9152003 -0.048,-0.8888 -0.048,-1.7768 -0.3488,-2.364 -0.3112,-0.6248 -1.356,-1.1768 -1.98,-0.6248 -0.12,-0.6112 0.504,-0.984 1.236,-0.768 -0.528,-0.6832 -1.0688,-1.4864 -1.8128,-1.9072 z m -3.332,10.3256003 c 0.492,1.2352 2.1792,1.0904 3.604,1.0584 -0.0672,0.1552 -0.2048,0.348 -0.372,0.412 -0.456,0.1856 -1.716,0.3264 -2.3496,-0.0096 -0.4048,-0.216 -0.6592,-0.6984 -0.8816,-0.9816 -0.1096,-0.1376 -0.636,-0.4864 -0.0096,-0.4872 z m 0.1312,-0.696 c 0.7144,0.3712 2.016,0.4136 2.9848,0.384 0.0528,0.2136 0.0528,0.4744 0.0544,0.7304 -1.24,0.064 -2.7088,-0.2432 -3.0352,-1.116 h -0.004 z m 5.34,-0.4688 c -0.3784,0.72 -0.916,1.5176 -2.0312,1.5424 -0.0184,-0.2272 -0.036,-0.588 0,-0.7232 0.8512,-0.0824 1.3816,-0.5168 2.0344,-0.8136 z m -0.5192,-0.5336 c -0.816,0.528 -1.7232,1.1 -3.0592,0.968 -0.2808,-0.248 -0.388,-0.8 -0.112,-1.1664 0.1448,0.2504 0.048,0.708 0.456,0.776 0.7552,0.132 1.6304,-0.4632 2.184,-0.672 0.336,-0.5704 -0.0368,-0.7808 -0.336,-1.1464 -0.6256,-0.744 -1.464,-1.6800003 -1.4416,-2.8080003 0.2512,-0.1792 0.2768,0.2768 0.3128,0.36 0.3232,0.768 1.1392,1.7400003 1.7392,2.4000003 0.144,0.168 0.384,0.312 0.408,0.4192 0.0736,0.312 -0.2032,0.6832 -0.1672,0.888 z m -10.7512005,-0.54 c -0.2512,-0.1472 -0.3144,-0.792 -0.6144,-0.808 -0.428,-0.024 -0.3504,0.84 -0.3488,1.344 -0.296,-0.264 -0.348,-1.092 -0.1312,-1.512 -0.2464,-0.12 -0.356,0.1312 -0.4944,0.2272 0.176,-1.272 1.872,-0.5872 1.592,0.768 z m -1.2944,-4.8824003 c -0.548,0.6048 -0.432,1.7392 -0.3672,2.5504 0.9952,-0.628 2.3184,0.048 2.3064,1.1152003 0.476,-0.0128 0.1784,-0.5952 0.092,-0.9720003 -0.2824,-1.2224 0.4736,-2.5496 0.0328,-3.672 -0.8512,0.0672 -1.5512,0.416 -2.0624,0.972 z m 7.2960005,0.8904 c 0.2456,0.4496 0.3232,0.9184 0.672,1.256 0.156,0.152 0.4592,0.3392 0.3096,0.7600003 -0.036,0.0968 -0.292,0.3128 -0.4408,0.36 -0.5392,0.156 -1.8032,0.024 -1.3768,-0.6480003 0.4504,0.012 1.0512,0.2880003 1.3856,-0.036 -0.2512,-0.4192 -0.708,-1.224 -0.5392,-1.704 z m 4.9584,-0.0104 h 0.0544 c 0.264,0.5344 0.48,1.1 0.8032,1.572 -0.216,0.5024003 -1.6424,0.9520003 -1.6184,0.0456 0.312,-0.136 0.84,-0.028 1.116,-0.2 -0.1544,-0.4448 -0.384,-0.8048 -0.3472,-1.4168 z m -5.5416,-1.2936 c -1.1376,-0.264 -1.7048,0.4736 -2.048,1.2424 -0.3072,-0.0752 -0.1848,-0.492 -0.108,-0.7064 0.204,-0.5608 1.024,-1.3064 1.6952,-1.2048 0.2872,0.0456 0.6784,0.3088 0.4608,0.6672 z m -2.7696,-3.108 c -1.2480005,0.352 -2.8480005,1.2592 -3.3600005,2.3792 0.396,-0.056 0.672,-0.2568 1.064,-0.2808 0.1488,-0.0128 0.3424,0.0592 0.5128,0.012 0.3392,-0.0832 0.624,-0.852 0.8816,-1.128 0.248,-0.276 0.548,-0.3968 0.752,-0.648 0.1336005,-0.072 0.3272005,-0.0592 0.3360005,-0.264 -0.0584,-0.06 -0.12,-0.108 -0.1856,-0.084 v 0.0136 z"
     id="path4"
     inkscape:connector-curvature="0"
     style="stroke-width:0.80000001" />
</svg>
