<?xml version="1.0" encoding="UTF-8" standalone="no"?>
<svg
   xmlns:dc="http://purl.org/dc/elements/1.1/"
   xmlns:cc="http://creativecommons.org/ns#"
   xmlns:rdf="http://www.w3.org/1999/02/22-rdf-syntax-ns#"
   xmlns:svg="http://www.w3.org/2000/svg"
   xmlns="http://www.w3.org/2000/svg"
   xmlns:sodipodi="http://sodipodi.sourceforge.net/DTD/sodipodi-0.dtd"
   xmlns:inkscape="http://www.inkscape.org/namespaces/inkscape"
   role="img"
   viewBox="0 0 24 24"
   version="1.1"
   id="svg6"
   sodipodi:docname="jupyter.svg"
   inkscape:version="0.92.5 (2060ec1f9f, 2020-04-08)">
  <metadata
     id="metadata12">
    <rdf:RDF>
      <cc:Work
         rdf:about="">
        <dc:format>image/svg+xml</dc:format>
        <dc:type
           rdf:resource="http://purl.org/dc/dcmitype/StillImage" />
      </cc:Work>
    </rdf:RDF>
  </metadata>
  <defs
     id="defs10" />
  <sodipodi:namedview
     pagecolor="#ffffff"
     bordercolor="#666666"
     borderopacity="1"
     objecttolerance="10"
     gridtolerance="10"
     guidetolerance="10"
     inkscape:pageopacity="0"
     inkscape:pageshadow="2"
     inkscape:window-width="747"
     inkscape:window-height="480"
     id="namedview8"
     showgrid="false"
     inkscape:zoom="9.8333333"
     inkscape:cx="12"
     inkscape:cy="12"
     inkscape:window-x="0"
     inkscape:window-y="0"
     inkscape:window-maximized="0"
     inkscape:current-layer="svg6" />
  <title
     id="title2">Jupyter icon</title>
  <path
     d="M 8.1255,20.1608 A 1.4272,1.4392 0 0 1 6.6991,21.6 1.4272,1.4392 0 0 1 5.2719,20.1608 1.4272,1.4392 0 0 1 6.6991,18.7216 1.4272,1.4392 0 0 1 8.1255,20.1608 Z M 18.8655,3.5416 A 1.132,1.1416 0 0 1 17.7335,4.684 1.132,1.1416 0 0 1 16.6007,3.5416 1.132,1.1416 0 0 1 17.7335,2.4 1.132,1.1416 0 0 1 18.8655,3.5416 Z M 6.3935,5.0688 A 0.8376,0.8448 0 0 1 5.5567,5.912 0.8376,0.8448 0 0 1 4.7191,5.068 0.8376,0.8448 0 0 1 5.5567,4.224 0.8376,0.8448 0 0 1 6.3935,5.0688 Z m 5.8688,1.2136 c 3.0152,0 5.648,1.104 7.0144,2.7392 A 7.4904,7.4904 0 0 0 16.5623,5.384 7.3904,7.3904 0 0 0 12.2607,4.0016 7.3904,7.3904 0 0 0 7.9599,5.384 7.4904,7.4904 0 0 0 5.2447,9.0216 C 6.6151,7.3896 9.2479,6.2824 12.2623,6.2824 Z m 8e-4,10.636 c -3.0144,0 -5.648,-1.1048 -7.0144,-2.74 a 7.4904,7.4904 0 0 0 2.7152,3.6376 7.3904,7.3904 0 0 0 4.3,1.384 7.3904,7.3904 0 0 0 4.3016,-1.3832 7.4904,7.4904 0 0 0 2.7144,-3.6376 c -1.3696,1.6352 -4.0024,2.74 -7.0176,2.74 z"
     id="path4"
     inkscape:connector-curvature="0"
     style="stroke-width:0.80000001" />
</svg>
