<?xml version="1.0" encoding="UTF-8" standalone="no"?>
<svg
   xmlns:dc="http://purl.org/dc/elements/1.1/"
   xmlns:cc="http://creativecommons.org/ns#"
   xmlns:rdf="http://www.w3.org/1999/02/22-rdf-syntax-ns#"
   xmlns:svg="http://www.w3.org/2000/svg"
   xmlns="http://www.w3.org/2000/svg"
   xmlns:sodipodi="http://sodipodi.sourceforge.net/DTD/sodipodi-0.dtd"
   xmlns:inkscape="http://www.inkscape.org/namespaces/inkscape"
   role="img"
   viewBox="0 0 24 24"
   version="1.1"
   id="svg6"
   sodipodi:docname="kubernetes.svg"
   inkscape:version="0.92.5 (2060ec1f9f, 2020-04-08)">
  <metadata
     id="metadata12">
    <rdf:RDF>
      <cc:Work
         rdf:about="">
        <dc:format>image/svg+xml</dc:format>
        <dc:type
           rdf:resource="http://purl.org/dc/dcmitype/StillImage" />
      </cc:Work>
    </rdf:RDF>
  </metadata>
  <defs
     id="defs10" />
  <sodipodi:namedview
     pagecolor="#ffffff"
     bordercolor="#666666"
     borderopacity="1"
     objecttolerance="10"
     gridtolerance="10"
     guidetolerance="10"
     inkscape:pageopacity="0"
     inkscape:pageshadow="2"
     inkscape:window-width="747"
     inkscape:window-height="480"
     id="namedview8"
     showgrid="false"
     inkscape:zoom="9.8333333"
     inkscape:cx="12"
     inkscape:cy="12"
     inkscape:window-x="0"
     inkscape:window-y="0"
     inkscape:window-maximized="0"
     inkscape:current-layer="svg6" />
  <title
     id="title2">Kubernetes icon</title>
  <path
     d="m 10.563252,13.880003 0.0056,0.008 -0.7992002,1.9304 a 4.1368,4.1368 0 0 1 -1.66,-2.0776 l 2.0624002,-0.3496 0.0032,0.004 a 0.352,0.352 0 0 1 0.3872,0.4848 z m -0.6664002,-1.7032 a 0.352,0.352 0 0 0 0.1384002,-0.6048 l 0.0016,-0.0088 -1.5688002,-1.4032 a 4.1144,4.1144 0 0 0 -0.584,2.604 l 2.0112,-0.58 z m 0.9160002,-1.584 a 0.352,0.352 0 0 0 0.5592,-0.2696 l 0.008,-0.004 0.12,-2.0960002 a 4.1152,4.1152 0 0 0 -2.4080002,1.1536 l 1.7176002,1.2184002 0.0032,-0.0016 z m 0.608,2.2 0.5784,0.2792 0.5776,-0.2776 0.144,-0.624 -0.4,-0.4984 h -0.6432 l -0.4,0.4984 0.1432,0.6232 z m 1.2,-2.476 a 0.352,0.352 0 0 0 0.56,0.2688 l 0.0064,0.0024 1.7072,-1.2104002 a 4.1504,4.1504 0 0 0 -2.3936,-1.1536 l 0.1184,2.0920002 z m 8.7008,4.776 -4.6184,5.7448 a 1.28,1.28 0 0 1 -0.9984,0.4752 l -7.4088002,0.0024 a 1.28,1.28 0 0 1 -0.9976,-0.4768 l -4.6208,-5.744 a 1.2664,1.2664 0 0 1 -0.2456,-1.072 l 1.648,-7.1640002 c 0.0864,-0.376 0.34,-0.6912 0.6904,-0.8584 l 6.6736002,-3.1896 a 1.2848,1.2848 0 0 1 1.108,0 l 6.676,3.188 c 0.3504,0.1672 0.604,0.4832 0.6904,0.8584 l 1.6496,7.1640002 c 0.0864,0.376 -0.004,0.7704 -0.2464,1.072 z m -2.6312,-1.6456 c -0.0336,-0.008 -0.0824,-0.0208 -0.116,-0.0272 -0.1392,-0.0264 -0.252,-0.02 -0.3832,-0.0304 -0.28,-0.0296 -0.5104,-0.0536 -0.716,-0.1184 -0.084,-0.032 -0.144,-0.132 -0.1728,-0.1728 l -0.1608,-0.0472 a 5.16,5.16 0 0 0 -0.084,-1.8656 5.172,5.172 0 0 0 -0.7488,-1.7304002 c 0.0416,-0.0376 0.12,-0.1064 0.1416,-0.1272 0.0064,-0.072 8e-4,-0.1464 0.0752,-0.2256 0.1576,-0.148 0.3552,-0.2704 0.5944,-0.4176 0.1136,-0.0672 0.2184,-0.1096 0.332,-0.1936 0.0256,-0.0192 0.0608,-0.0496 0.088,-0.0712 0.192,-0.1528 0.236,-0.416 0.0984,-0.5888 -0.1376,-0.1728 -0.4048,-0.1888 -0.596,-0.036 -0.0272,0.0216 -0.064,0.0496 -0.0888,0.0704 -0.1072,0.0928 -0.1736,0.184 -0.264,0.28 -0.1968,0.2 -0.36,0.3664 -0.5384,0.4872 -0.0776,0.0448 -0.1912,0.0296 -0.2424,0.0264 l -0.152,0.108 a 5.236,5.236 0 0 0 -3.3168,-1.6024 l -0.0096,-0.1784 c -0.052,-0.0496 -0.1144,-0.092 -0.1304,-0.2 -0.0176,-0.2144 0.012,-0.4456 0.0456,-0.724 0.0184,-0.1304 0.0488,-0.2384 0.0544,-0.38 8e-4,-0.032 -8e-4,-0.0792 -8e-4,-0.1136 0,-0.2448 -0.1792,-0.444 -0.4,-0.444 -0.22,0 -0.3992,0.1992 -0.3992,0.444 l 8e-4,0.0112 c 0,0.0328 -0.0016,0.0736 0,0.1024 0.0048,0.1416 0.0352,0.2496 0.0536,0.38 0.0336,0.2784 0.0624,0.5096 0.0448,0.7248 a 0.436,0.436 0 0 1 -0.1296,0.2064 l -0.0096,0.1688 a 5.1392,5.1392 0 0 0 -3.3328002,1.6024 6.6984,6.6984 0 0 1 -0.144,-0.1024 c -0.072,0.0096 -0.144,0.032 -0.2376,-0.0232 -0.1784,-0.12 -0.3416,-0.2864 -0.5384,-0.4864 -0.0904,-0.096 -0.156,-0.1872 -0.2632,-0.2792 -0.024,-0.0208 -0.0616,-0.0496 -0.0888,-0.0704 a 0.4752,0.4752 0 0 0 -0.2784,-0.1056 0.3848,0.3848 0 0 0 -0.3184,0.1408 c -0.1376,0.1728 -0.0936,0.4368 0.0984,0.5896 l 0.0056,0.004 0.0832,0.0664 c 0.1136,0.084 0.2176,0.1272 0.3312,0.1936 0.2392,0.148 0.4368,0.2704 0.5944,0.4176 0.0608,0.0656 0.072,0.1808 0.08,0.2304 l 0.128,0.1144 a 5.1696,5.1696 0 0 0 -0.816,3.6048002 l -0.1664,0.048 c -0.044,0.0576 -0.1064,0.1472 -0.172,0.1736 -0.2056,0.0648 -0.4368,0.088 -0.716,0.1176 -0.1312,0.0112 -0.244,0.0048 -0.384,0.0312 -0.0296,0.0056 -0.072,0.016 -0.1064,0.024 l -0.0032,0.0016 -0.0056,0.0016 c -0.236,0.0568 -0.3872,0.2736 -0.3384,0.4864 0.0488,0.2136 0.2792,0.3432 0.516,0.292 l 0.0056,-8e-4 0.008,-0.0024 0.1032,-0.0232 c 0.136,-0.0368 0.2352,-0.0904 0.3584,-0.1376 0.264,-0.0944 0.4832,-0.1736 0.696,-0.2048 0.0896,-0.0072 0.184,0.0552 0.2304,0.0808 l 0.1736,-0.0296 a 5.2,5.2 0 0 0 2.304,2.8768 l -0.072,0.1744 c 0.0264,0.0672 0.0552,0.1592 0.0352,0.2256 -0.0776,0.2016 -0.2104,0.4136 -0.3616,0.6504 -0.0728,0.1088 -0.148,0.1936 -0.2144,0.3192 -0.016,0.0296 -0.036,0.076 -0.0512,0.1072 -0.1024,0.22 -0.0272,0.4728 0.1704,0.568 0.1984,0.096 0.4448,-0.0056 0.552,-0.2256 v -0.0016 c 0.016,-0.0312 0.0368,-0.072 0.0496,-0.1016 0.056,-0.1296 0.0752,-0.2408 0.1152,-0.3664 0.1056,-0.2656 0.164,-0.544 0.3096,-0.7176 0.04,-0.048 0.1040002,-0.0656 0.1720002,-0.084 l 0.0904,-0.164 a 5.1624,5.1624 0 0 0 3.6872,0.0096 l 0.0848,0.1536 c 0.0688,0.0224 0.144,0.0336 0.2048,0.124 0.1088,0.1856 0.1832,0.4056 0.2736,0.672 0.04,0.1248 0.0592,0.236 0.116,0.3656 0.0128,0.0296 0.0344,0.072 0.0496,0.1032 0.1064,0.2208 0.3536,0.3216 0.552,0.2256 0.1976,-0.0944 0.2728,-0.348 0.1704,-0.568 -0.016,-0.0312 -0.036,-0.0768 -0.052,-0.1072 -0.0664,-0.1248 -0.1416,-0.2088 -0.2144,-0.3184 -0.152,-0.2368 -0.2768,-0.4328 -0.3544,-0.6344 -0.032,-0.104 0.0056,-0.168 0.0304,-0.2352 -0.0144,-0.0176 -0.0472,-0.1152 -0.0664,-0.1616 a 5.1992,5.1992 0 0 0 2.304,-2.8976 c 0.0512,0.008 0.1408,0.024 0.1704,0.0304 0.06,-0.04 0.1152,-0.0912 0.224,-0.0832 0.2128,0.0312 0.432,0.1104 0.696,0.2048 0.1232,0.048 0.2216,0.1024 0.3584,0.1384 0.0288,0.008 0.0704,0.0152 0.104,0.0224 l 0.0072,0.0024 0.0056,8e-4 c 0.2376,0.0512 0.4672,-0.0784 0.516,-0.292 0.048,-0.2128 -0.1024,-0.4296 -0.3384,-0.4864 z m -3.1704,-3.2864 -1.56,1.3968 v 0.004 a 0.352,0.352 0 0 0 0.1384,0.6056 l 0.0024,0.008 2.0208,0.5824 a 4.1592,4.1592 0 0 0 -0.0864,-1.3392 4.1664,4.1664 0 0 0 -0.5152,-1.2584 z m -3.2104,4.26 a 0.3496,0.3496 0 0 0 -0.3232,-0.1856 0.352,0.352 0 0 0 -0.2976,0.1864 h -0.0016 l -1.0144,1.8336 a 4.1312,4.1312 0 0 0 2.6608,0.0024 l -1.016,-1.8368 z m 1.5104,-1.0344 a 0.352,0.352 0 0 0 -0.216,0.0288 0.352,0.352 0 0 0 -0.1712,0.4576 l -0.0024,0.0032 0.808,1.9504 a 4.12,4.12 0 0 0 1.6648,-2.092 l -2.08,-0.352 z"
     id="path4"
     inkscape:connector-curvature="0"
     style="stroke-width:0.80000001" />
</svg>
