<?xml version="1.0" encoding="UTF-8" standalone="no"?>
<svg
   xmlns:dc="http://purl.org/dc/elements/1.1/"
   xmlns:cc="http://creativecommons.org/ns#"
   xmlns:rdf="http://www.w3.org/1999/02/22-rdf-syntax-ns#"
   xmlns:svg="http://www.w3.org/2000/svg"
   xmlns="http://www.w3.org/2000/svg"
   xmlns:sodipodi="http://sodipodi.sourceforge.net/DTD/sodipodi-0.dtd"
   xmlns:inkscape="http://www.inkscape.org/namespaces/inkscape"
   role="img"
   viewBox="0 0 24 24"
   version="1.1"
   id="svg6"
   sodipodi:docname="linode.svg"
   inkscape:version="0.92.5 (2060ec1f9f, 2020-04-08)">
  <metadata
     id="metadata12">
    <rdf:RDF>
      <cc:Work
         rdf:about="">
        <dc:format>image/svg+xml</dc:format>
        <dc:type
           rdf:resource="http://purl.org/dc/dcmitype/StillImage" />
      </cc:Work>
    </rdf:RDF>
  </metadata>
  <defs
     id="defs10" />
  <sodipodi:namedview
     pagecolor="#ffffff"
     bordercolor="#666666"
     borderopacity="1"
     objecttolerance="10"
     gridtolerance="10"
     guidetolerance="10"
     inkscape:pageopacity="0"
     inkscape:pageshadow="2"
     inkscape:window-width="747"
     inkscape:window-height="480"
     id="namedview8"
     showgrid="false"
     inkscape:zoom="9.8333333"
     inkscape:cx="12"
     inkscape:cy="12"
     inkscape:window-x="0"
     inkscape:window-y="0"
     inkscape:window-maximized="0"
     inkscape:current-layer="svg6" />
  <title
     id="title2">Linode icon</title>
  <path
     d="m 20.004842,10.947202 a 0.12,0.12 0 0 0 -0.056,-0.12 l -2.6088,-1.4568 a 0.112,0.112 0 0 0 -0.112,0 l -2.2168,1.352 a 0.136,0.136 0 0 0 -0.056,0.104 v 1.1608 l -0.904,-0.592 a 0.112,0.112 0 0 0 -0.12,0 l -1.296,0.8 -0.0568,-1.312 a 0.152,0.152 0 0 0 -0.056,-0.096 l -1.32,-0.872 1.208,-0.6248 a 0.128,0.128 0 0 0 0.064,-0.112 l -0.216,-5.0176 a 0.128,0.128 0 0 0 -0.064,-0.104 l -3.3944001,-1.6568 h -0.08 l -4.656,1.448 a 0.128,0.128 0 0 0 -0.064,0.152 l 1.016,4.9864 a 0.176,0.176 0 0 0 0,0.064 l 1.464,1.104 -1.008,0.48 a 0.128,0.128 0 0 0 -0.064,0.136 l 0.8,3.7616 a 0.144,0.144 0 0 0 0,0.056 l 0.992,0.912 -0.64,0.392 a 0.12,0.12 0 0 0 -0.048,0.128 l 0.6,2.9136 a 0.088,0.088 0 0 0 0,0.056 l 2.4016,2.5768 a 0.112,0.112 0 0 0 0.16,0 l 3.1368001,-2.4968 a 0.128,0.128 0 0 0 0.048,-0.096 l -0.056,-1.696 1.056,0.88 a 0.112,0.112 0 0 0 0.144,0 l 2.5136,-2.0088 a 0.192,0.192 0 0 0 0.048,-0.088 l 0.072,-1.256 0.8,0.536 a 0.112,0.112 0 0 0 0.136,0 l 2.0568,-1.6008 a 0.112,0.112 0 0 0 0.04,-0.08 z m -7.6984,0.12 0.056,1.256 0.096,2.2248 -3.3848001,2.2968 -0.528,-3.6256 z m -0.28,-6.7384 0.2,4.7296 -4.0016001,2.072 -0.72,-5.0568 z m -6.7944001,4.5696 -0.968,-4.6904 2.992,1.856 0.7448,4.9624 -1.264,-0.96 z m 1.168,5.5456 -0.704,-3.4088 2.6248,2.192 0.48,3.5056 -1.344,-1.296 z m 0.912,4.4096 -0.52,-2.5128 2.3136,2.28 0.376,2.5296 z m 2.4016,2.4 -0.392,-2.664 3.2008001,-2.2968 0.112,2.624 z m 3.0888001,-4.288 v -0.8648 a 0.128,0.128 0 0 0 -0.04,-0.088 l -0.904,-0.736 0.8,-0.56 a 0.112,0.112 0 0 0 0.048,-0.096 v -0.2088 l 1.112,0.848 v 2.5688 z m 3.5536,-0.9608 -2.2888,1.824 v -2.576 l 2.456,-1.7608 z m 1.032,-0.968 -0.72,-0.5048 0.072,-1.272 a 0.088,0.088 0 0 0 0,-0.048 0.08,0.08 0 0 0 0,-0.04 l -1.544,-1.016 v -1.1128 l 2.4,1.512 z m 2.04,-1.4888 -1.824,1.448 0.208,-2.448 1.9448,-1.3448 z"
     id="path4"
     inkscape:connector-curvature="0"
     style="stroke-width:0.80000001" />
</svg>
