<?xml version="1.0" encoding="UTF-8" standalone="no"?>
<svg
   xmlns:dc="http://purl.org/dc/elements/1.1/"
   xmlns:cc="http://creativecommons.org/ns#"
   xmlns:rdf="http://www.w3.org/1999/02/22-rdf-syntax-ns#"
   xmlns:svg="http://www.w3.org/2000/svg"
   xmlns="http://www.w3.org/2000/svg"
   xmlns:sodipodi="http://sodipodi.sourceforge.net/DTD/sodipodi-0.dtd"
   xmlns:inkscape="http://www.inkscape.org/namespaces/inkscape"
   role="img"
   viewBox="0 0 24 24"
   version="1.1"
   id="svg6"
   sodipodi:docname="linuxmint.svg"
   inkscape:version="0.92.5 (2060ec1f9f, 2020-04-08)">
  <metadata
     id="metadata12">
    <rdf:RDF>
      <cc:Work
         rdf:about="">
        <dc:format>image/svg+xml</dc:format>
        <dc:type
           rdf:resource="http://purl.org/dc/dcmitype/StillImage" />
      </cc:Work>
    </rdf:RDF>
  </metadata>
  <defs
     id="defs10" />
  <sodipodi:namedview
     pagecolor="#ffffff"
     bordercolor="#666666"
     borderopacity="1"
     objecttolerance="10"
     gridtolerance="10"
     guidetolerance="10"
     inkscape:pageopacity="0"
     inkscape:pageshadow="2"
     inkscape:window-width="747"
     inkscape:window-height="480"
     id="namedview8"
     showgrid="false"
     inkscape:zoom="9.8333333"
     inkscape:cx="12"
     inkscape:cy="12"
     inkscape:window-x="0"
     inkscape:window-y="0"
     inkscape:window-maximized="0"
     inkscape:current-layer="svg6" />
  <title
     id="title2">Linux Mint icon</title>
  <path
     d="m 2.4,3.7544 v 3.3544 h 1.4624 c 1.0208,0 1.2016,0.692 1.2016,1.6464 l 0.008,5.9296 c 0,3.072 2.752,5.5608 6.144,5.5608 h 8.3712 c 1.0736,0 2.0128,-0.664 2.0128,-1.6864 V 9.3648 c 0,-3.072 -2.752,-5.56 -6.1464,-5.56 h -3.524 V 3.7944 Z M 6.9784,5.8072 H 8.66 v 8.4488 c 0,1.1304 0.7872,2.008 1.7112,2.008 l 5.736,0.024 c 1.1968,0 2.1288,-0.808 2.1288,-1.7648 L 18.2264,10.0376 A 0.96,0.96 0 0 0 17.9176,9.3096 0.9792,0.9792 0 0 0 17.184,9.0024 c -0.2992,0 -0.52,0.096 -0.7344,0.3072 a 0.96,0.96 0 0 0 -0.3088,0.728 v 3.8384 h -1.7784 v -3.8376 c 0,-0.2912 -0.0992,-0.5184 -0.3112,-0.728 A 0.9664,0.9664 0 0 0 13.3176,9.0032 c -0.2928,0 -0.5176,0.096 -0.7312,0.3072 -0.212,0.2096 -0.312,0.4368 -0.312,0.728 v 3.8384 H 10.496 v -3.8384 c 0,-0.76 0.288,-1.4336 0.8336,-1.9728 a 2.756,2.756 0 0 1 1.988,-0.8176 c 0.7496,0 1.4016,0.276 1.9304,0.776 a 2.7584,2.7584 0 0 1 1.936,-0.776 c 0.7632,0 1.4424,0.2784 1.988,0.8176 a 2.708,2.708 0 0 1 0.8328,1.9728 l 0.0072,4.7928 c -0.084,0.8032 -0.4312,1.5152 -1.024,2.1096 h -0.0016 a 3.4936,3.4936 0 0 1 -2.5392,1.0512 h -6.388 V 17.9616 C 9.2784,17.8792 8.5824,17.5464 8.0032,16.988 7.3272,16.328 6.9784,15.5112 6.9784,14.58 V 5.808 Z"
     id="path4"
     inkscape:connector-curvature="0"
     style="stroke-width:0.80000001" />
</svg>
