<?xml version="1.0" encoding="UTF-8" standalone="no"?>
<svg
   xmlns:dc="http://purl.org/dc/elements/1.1/"
   xmlns:cc="http://creativecommons.org/ns#"
   xmlns:rdf="http://www.w3.org/1999/02/22-rdf-syntax-ns#"
   xmlns:svg="http://www.w3.org/2000/svg"
   xmlns="http://www.w3.org/2000/svg"
   xmlns:sodipodi="http://sodipodi.sourceforge.net/DTD/sodipodi-0.dtd"
   xmlns:inkscape="http://www.inkscape.org/namespaces/inkscape"
   role="img"
   viewBox="0 0 24 24"
   version="1.1"
   id="svg6"
   sodipodi:docname="linux.svg"
   inkscape:version="0.92.5 (2060ec1f9f, 2020-04-08)">
  <metadata
     id="metadata12">
    <rdf:RDF>
      <cc:Work
         rdf:about="">
        <dc:format>image/svg+xml</dc:format>
        <dc:type
           rdf:resource="http://purl.org/dc/dcmitype/StillImage" />
      </cc:Work>
    </rdf:RDF>
  </metadata>
  <defs
     id="defs10" />
  <sodipodi:namedview
     pagecolor="#ffffff"
     bordercolor="#666666"
     borderopacity="1"
     objecttolerance="10"
     gridtolerance="10"
     guidetolerance="10"
     inkscape:pageopacity="0"
     inkscape:pageshadow="2"
     inkscape:window-width="747"
     inkscape:window-height="480"
     id="namedview8"
     showgrid="false"
     inkscape:zoom="9.8333333"
     inkscape:cx="12"
     inkscape:cy="12"
     inkscape:window-x="0"
     inkscape:window-y="0"
     inkscape:window-maximized="0"
     inkscape:current-layer="svg6" />
  <title
     id="title2">Linux icon</title>
  <path
     d="m 12.403182,2.3999721 c -0.124,0 -0.252,0.0064 -0.384,0.0168 -3.3808003,0.2664 -2.4840003,3.8456 -2.5360003,5.0384 -0.0608,0.8736 -0.24,1.5624 -0.84,2.416 -0.708,0.8407999 -1.7016,2.1999999 -2.1728,3.6167999 -0.2224,0.6656 -0.328,1.3472 -0.2296,1.9912 a 0.3392,0.3392 0 0 0 -0.088,0.108 c -0.208,0.2144 -0.36,0.48 -0.5304,0.6712 -0.1592,0.1592 -0.388,0.2136 -0.6376,0.32 -0.2504,0.1088 -0.5264,0.2152 -0.6912,0.544 -0.072,0.1512 -0.1088,0.3152 -0.1056,0.4816 0,0.1592 0.0216,0.32 0.044,0.4288 0.0464,0.3192 0.0928,0.5824 0.032,0.776 -0.1992,0.544 -0.224,0.916 -0.0848,1.1872 0.1392,0.2672 0.428,0.376 0.752,0.4808 0.648,0.16 1.528,0.108 2.2192,0.48 0.7408,0.3728 1.4928,0.536 2.0928,0.376 0.4208,-0.0928 0.7760003,-0.3712 0.9664003,-0.7568 0.4696,-0.0024 0.984,-0.2152 1.808,-0.2672 0.5592,-0.0464 1.2592,0.2136 2.0616,0.16 0.02,0.1072 0.0504,0.1584 0.0912,0.2664 l 0.0024,0.0024 c 0.3128,0.6224 0.8904,0.9056 1.5072,0.8568 0.6168,-0.048 1.2736,-0.4288 1.8056,-1.0448 0.5048,-0.612 1.3464,-0.8672 1.9024,-1.2024 0.2784,-0.1592 0.5032,-0.3752 0.5192,-0.6824 0.0184,-0.32 -0.16,-0.6488 -0.5712,-1.1008 v -0.0776 l -0.0024,-0.0024 c -0.136,-0.16 -0.2,-0.428 -0.2704,-0.7408 -0.068,-0.3208 -0.1456,-0.6288 -0.3936,-0.8368 h -0.0024 c -0.0472,-0.0432 -0.0984,-0.0536 -0.1504,-0.108 a 0.2856,0.2856 0 0 0 -0.152,-0.0512 c 0.3448,-1.0224 0.2112,-2.04 -0.1384,-2.9552 -0.4264,-1.128 -1.172,-2.1104 -1.74,-2.7864 -0.6368,-0.8039999 -1.2608,-1.5655999 -1.248,-2.6943999 0.0208,-1.7216 0.1888,-4.9064 -2.8352,-4.9112 z m 0.4232,2.724 h 0.0104 c 0.1704,0 0.3168,0.0496 0.4672,0.1584 0.152,0.108 0.264,0.2656 0.3504,0.4264 0.084,0.2072 0.1264,0.3672 0.1328,0.5792 0,-0.016 0.0048,-0.032 0.0048,-0.048 v 0.084 a 0.0688,0.0688 0 0 1 -0.0032,-0.0168 l -0.0032,-0.0192 a 1.4456,1.4456 0 0 1 -0.12,0.5648 0.7624,0.7624 0 0 1 -0.1704,0.268 0.568,0.568 0 0 0 -0.0704,-0.0336 c -0.0832,-0.036 -0.1584,-0.0512 -0.2272,-0.1064 a 1.0496,1.0496 0 0 0 -0.176,-0.0528 c 0.04,-0.048 0.1168,-0.1064 0.1464,-0.1584 0.0424,-0.1024 0.0656,-0.2112 0.0704,-0.3216 v -0.016 a 0.968,0.968 0 0 0 -0.0488,-0.32 c -0.036,-0.1072 -0.0808,-0.16 -0.1464,-0.2664 -0.0672,-0.0528 -0.1336,-0.1056 -0.2136,-0.1056 h -0.0128 c -0.0744,0 -0.1408,0.024 -0.2096,0.1056 a 0.64,0.64 0 0 0 -0.164,0.2672 0.944,0.944 0 0 0 -0.072,0.32 v 0.0152 c 0.0016,0.0712 0.0064,0.1432 0.016,0.2136 -0.1544,-0.0536 -0.3504,-0.108 -0.4856,-0.1616 a 1.308,1.308 0 0 1 -0.0144,-0.16 v -0.016 a 1.4176,1.4176 0 0 1 0.12,-0.6144 c 0.0656,-0.176 0.1856,-0.3248 0.344,-0.4264 a 0.788,0.788 0 0 1 0.4752,-0.16 z m -2.3696,0.0472 h 0.0288 c 0.1136,0 0.216,0.0384 0.3192,0.108 0.1168,0.1032 0.2112,0.2304 0.2752,0.372 0.072,0.1592 0.112,0.32 0.1224,0.5336 v 0.0032 c 0.0056,0.1072 0.0048,0.16 -0.0016,0.2128 v 0.064 c -0.024,0.0056 -0.0448,0.0144 -0.0664,0.0192 -0.1216,0.044 -0.2192,0.108 -0.3144,0.16 0.0096,-0.072 0.0104,-0.144 0.0024,-0.2136 v -0.012 c -0.0096,-0.1064 -0.032,-0.16 -0.0656,-0.2664 a 0.4904,0.4904 0 0 0 -0.1328,-0.2136 0.1984,0.1984 0 0 0 -0.1464,-0.0512 h -0.0168 c -0.0568,0.0048 -0.104,0.032 -0.1488,0.1056 a 0.4416,0.4416 0 0 0 -0.096,0.216 0.7552,0.7552 0 0 0 -0.0184,0.264 v 0.012 c 0.0096,0.108 0.0296,0.16 0.064,0.2672 0.0368,0.1072 0.0784,0.16 0.1328,0.2144 0.008,0.0072 0.016,0.0144 0.0272,0.0192 -0.056,0.0456 -0.0936,0.056 -0.1408,0.1088 a 0.2432,0.2432 0 0 1 -0.1048,0.0544 2.096,2.096 0 0 1 -0.2200003,-0.3216 1.4176,1.4176 0 0 1 -0.124,-0.5336 1.4072,1.4072 0 0 1 0.064,-0.5344 1.144,1.144 0 0 1 0.2264003,-0.428 c 0.1024,-0.1064 0.208,-0.16 0.3344,-0.16 z m 1.096,1.3648 c 0.2656,0 0.5864,0.052 0.9728,0.3192 0.2344,0.16 0.4184,0.2152 0.8416,0.3744 h 0.0024 c 0.204,0.1088 0.324,0.2128 0.3824,0.3192 v -0.1048 a 0.4568,0.4568 0 0 1 0.0128,0.376 c -0.0984,0.248 -0.4128,0.5144 -0.8504,0.6736 v 0.0016 c -0.2144,0.108 -0.4008,0.2664 -0.62,0.372 -0.2208,0.108 -0.4704,0.2336 -0.8096,0.2136 a 0.9112,0.9112 0 0 1 -0.3584,-0.0536 2.8528,2.8528 0 0 1 -0.2576,-0.1584 c -0.156,-0.108 -0.2904,-0.2656 -0.4896,-0.372 v -0.004 h -0.004 c -0.32,-0.1968 -0.4928003,-0.4096 -0.5488003,-0.568 -0.056,-0.2144 -0.004,-0.376 0.1544,-0.48 0.1792003,-0.108 0.3040003,-0.2168 0.3864003,-0.2688 0.0832,-0.0592 0.1144,-0.0816 0.1408,-0.1048 h 0.0016 v -0.0024 c 0.1352,-0.1616 0.3488,-0.376 0.6712,-0.4808 0.1112,-0.0288 0.2352,-0.052 0.3728,-0.052 z m 2.24,1.7136 c 0.2864,1.1336 0.9568,2.7799999 1.388,3.5783999 0.2288,0.4272 0.684,1.3272 0.8816,2.4192 0.1248,-0.004 0.264,0.0144 0.4104,0.0512 0.5168,-1.3368 -0.4368,-2.7736 -0.8712,-3.1728 -0.176,-0.16 -0.1856,-0.268 -0.0984,-0.268 0.472,0.4272 1.092,1.2576 1.3168,2.2056 0.104,0.428 0.128,0.8832 0.0168,1.336 0.0536,0.0224 0.108,0.048 0.164,0.0536 0.8256,0.4272 1.1304,0.7504 0.984,1.2296 v -0.0344 c -0.048,-0.0024 -0.096,0 -0.144,0 h -0.0128 c 0.1208,-0.3736 -0.1456,-0.66 -0.852,-0.9792 -0.732,-0.32 -1.3168,-0.2688 -1.416,0.372 -0.0064,0.0344 -0.0104,0.0528 -0.0144,0.108 -0.0544,0.0184 -0.1112,0.0424 -0.1672,0.0512 -0.344,0.2144 -0.5296,0.5352 -0.6344,0.9496 -0.104,0.4264 -0.136,0.9248 -0.164,1.4952 v 0.0024 c -0.016,0.2672 -0.136,0.6704 -0.2552,1.08 -1.2,0.8576 -2.864,1.2304 -4.2784,0.2672 a 2.116,2.116 0 0 0 -0.3216003,-0.4264 1.16,1.16 0 0 0 -0.22,-0.2664 c 0.1456,0 0.2704,-0.024 0.372,-0.0536 a 0.492,0.492 0 0 0 0.2512003,-0.2672 c 0.0864,-0.2136 0,-0.5576 -0.2760003,-0.9304 -0.276,-0.3736 -0.7448,-0.796 -1.4304,-1.2168 -0.504,-0.32 -0.7888,-0.696 -0.92,-1.1168 -0.132,-0.4272 -0.1144,-0.868 -0.012,-1.316 0.196,-0.856 0.6984,-1.688 1.0192,-2.2104 0.0856,-0.052 0.0296,0.108 -0.3264,0.7792 -0.3168,0.6008 -0.912,1.9976 -0.0976,3.0832 a 6.4984,6.4984 0 0 1 0.5176,-2.3008 c 0.4512,-1.0224 1.3944,-2.8031999 1.4688003,-4.2143999 0.0384,0.0288 0.1736,0.108 0.2312,0.1616 0.1744,0.1064 0.304,0.2664 0.472,0.372 0.168,0.1608 0.3816,0.268 0.7008,0.268 0.0312,0.0024 0.06,0.0048 0.088,0.0048 0.3296,0 0.584,-0.1072 0.7976,-0.2144 0.232,-0.1072 0.416,-0.2672 0.592,-0.32 h 0.004 c 0.3736,-0.108 0.668,-0.3216 0.8352,-0.56 z m 1.748,7.1663999 c 0.0296,0.48 0.2744,0.996 0.7056,1.1016 0.4704,0.1072 1.1472,-0.2664 1.4328,-0.612 l 0.1688,-0.008 c 0.252,-0.0056 0.4616,0.008 0.6776,0.2144 l 0.0024,0.0024 c 0.1664,0.1592 0.244,0.424 0.3128,0.7008 0.068,0.32 0.1232,0.624 0.3272,0.8528 0.3888,0.4216 0.516,0.7248 0.5088,0.912 l 0.0024,-0.0056 v 0.0144 l -0.0024,-0.0096 c -0.012,0.2096 -0.148,0.3168 -0.3984,0.476 -0.504,0.3208 -1.3968,0.5696 -1.9656,1.256 -0.4944,0.5896 -1.096,0.912 -1.6288,0.9528 -0.5312,0.0424 -0.9896,-0.16 -1.2592,-0.7184 l -0.004,-0.0024 c -0.168,-0.32 -0.096,-0.82 0.0448,-1.352 0.1408,-0.5344 0.3424,-1.0752 0.3704,-1.5176 0.0296,-0.5712 0.0608,-1.068 0.156,-1.4512 0.096,-0.372 0.2464,-0.6376 0.5128,-0.7872 l 0.036,-0.0176 z m -8.6512003,0.0392 h 0.008 c 0.0424,0 0.084,0.004 0.1256,0.0112 0.3008,0.044 0.5648,0.2664 0.8184,0.6016 l 0.728,1.3312 0.0024,0.0024 c 0.1944,0.4264 0.6032,0.8512 0.9512,1.3096 0.3472,0.4784 0.6160003,0.9048 0.5832003,1.256 v 0.0048 c -0.0456,0.5952 -0.3840003,0.9184 -0.9000003,1.0352 -0.516,0.108 -1.216,0.0016 -1.916,-0.3712 -0.7744,-0.4288 -1.6944,-0.3752 -2.2856,-0.4816 -0.2952,-0.0528 -0.488,-0.16 -0.5784,-0.32 -0.088,-0.16 -0.0904,-0.4816 0.0984,-0.984 v -0.0032 l 0.0016,-0.0024 c 0.0936,-0.2672 0.024,-0.6016 -0.0216,-0.8944 -0.044,-0.3208 -0.0664,-0.568 0.0344,-0.752 0.128,-0.2672 0.3168,-0.32 0.552,-0.4264 0.2352,-0.108 0.512,-0.1616 0.732,-0.376 h 0.0016 v -0.0016 c 0.2048,-0.2144 0.356,-0.4808 0.5344,-0.6704 0.152,-0.1608 0.304,-0.2688 0.5304,-0.2688 z M 12.616782,8.1959721 c -0.348,0.1608 -0.756,0.428 -1.1904,0.428 -0.4336,0 -0.776,-0.2136 -1.024,-0.3728 -0.1232,-0.1072 -0.224,-0.2144 -0.2984,-0.268 -0.1312003,-0.1072 -0.1152003,-0.2664 -0.0592,-0.2664 0.0872,0.0128 0.1032,0.1072 0.1592,0.16 0.0768,0.0528 0.172,0.16 0.288,0.2664 0.2336,0.16 0.544,0.3736 0.9336,0.3736 0.388,0 0.8424,-0.2136 1.1184,-0.3728 0.156,-0.108 0.356,-0.2672 0.5184,-0.3736 0.1248,-0.1088 0.1192,-0.2136 0.2232,-0.2136 0.1024,0.0128 0.0272,0.1072 -0.1176,0.2656 a 6.4776,6.4776 0 0 1 -0.552,0.3744 z m -0.8656,-1.2664 v -0.0176 c -0.0048,-0.016 0.0104,-0.0336 0.0232,-0.04 0.0592,-0.0344 0.144,-0.0216 0.208,0.0032 0.0504,0 0.128,0.0536 0.12,0.108 -0.0048,0.0392 -0.068,0.0528 -0.108,0.0528 -0.044,0 -0.0736,-0.0344 -0.1128,-0.0544 -0.0416,-0.0144 -0.1168,-0.0064 -0.1304,-0.052 z m -0.4408,0 c -0.016,0.0464 -0.0904,0.0392 -0.1328,0.0528 -0.0376,0.02 -0.0688,0.0544 -0.112,0.0544 -0.04,0 -0.104,-0.016 -0.1088,-0.0544 -0.008,-0.0528 0.0704,-0.1064 0.12,-0.1064 0.064,-0.0248 0.1472,-0.0376 0.2072,-0.004 0.0152,0.0072 0.0288,0.024 0.024,0.04 v 0.016 h 0.0024 z"
     id="path4"
     inkscape:connector-curvature="0"
     style="stroke-width:0.80000001" />
</svg>
