<?xml version="1.0" encoding="UTF-8" standalone="no"?>
<svg
   xmlns:dc="http://purl.org/dc/elements/1.1/"
   xmlns:cc="http://creativecommons.org/ns#"
   xmlns:rdf="http://www.w3.org/1999/02/22-rdf-syntax-ns#"
   xmlns:svg="http://www.w3.org/2000/svg"
   xmlns="http://www.w3.org/2000/svg"
   xmlns:sodipodi="http://sodipodi.sourceforge.net/DTD/sodipodi-0.dtd"
   xmlns:inkscape="http://www.inkscape.org/namespaces/inkscape"
   role="img"
   viewBox="0 0 24 24"
   version="1.1"
   id="svg6"
   sodipodi:docname="lubuntu.svg"
   inkscape:version="0.92.5 (2060ec1f9f, 2020-04-08)">
  <metadata
     id="metadata12">
    <rdf:RDF>
      <cc:Work
         rdf:about="">
        <dc:format>image/svg+xml</dc:format>
        <dc:type
           rdf:resource="http://purl.org/dc/dcmitype/StillImage" />
      </cc:Work>
    </rdf:RDF>
  </metadata>
  <defs
     id="defs10" />
  <sodipodi:namedview
     pagecolor="#ffffff"
     bordercolor="#666666"
     borderopacity="1"
     objecttolerance="10"
     gridtolerance="10"
     guidetolerance="10"
     inkscape:pageopacity="0"
     inkscape:pageshadow="2"
     inkscape:window-width="747"
     inkscape:window-height="480"
     id="namedview8"
     showgrid="false"
     inkscape:zoom="9.8333333"
     inkscape:cx="12"
     inkscape:cy="12"
     inkscape:window-x="0"
     inkscape:window-y="0"
     inkscape:window-maximized="0"
     inkscape:current-layer="svg6" />
  <title
     id="title2">Lubuntu icon</title>
  <path
     d="m 12.0001,2.4000011 c -5.3015998,0 -9.5991998,4.2992 -9.5991998,9.6007999 0,0.1232 0.0024,0.2456 0.0072,0.368 3.0656,-2.164 8.2943998,-5.7303999 9.5895998,-5.8239999 0.4296,-0.544 1.896,-0.976 2.1632,-0.9672 l -0.7656,0.9584 c 0,0 -0.024,0.9792 -0.3104,1.1696 2.672,1.7864 3.9552,8.2095999 4.5008,12.1007999 a 9.584,9.584 0 0 0 4.0144,-7.8056 c 0,-5.3015999 -4.2968,-9.6007999 -9.6,-9.6007999 z m -0.4744,8.6735999 c -0.7192,0.0216 -2.1943998,2.1696 -3.8599998,4.4704 -0.8008,1.1056 -1.628,2.2584 -2.3904,3.3072 a 9.568,9.568 0 0 0 6.7247998,2.7488 c 1.8776,0 3.6296,-0.5376 5.1088,-1.4696 -1.1384,-3.48 -3.3024,-9.0392 -5.5176,-9.052 a 0.3152,0.3152 0 0 0 -0.0656,-0.0048 z m -5.3823998,0.8784 c -0.6584,-0.0056 -2.288,0.5608 -3.6856,1.1 0.1424,1.3056 0.5448,2.5328 1.1576,3.628 0.28,-0.424 0.5728,-0.8616 0.864,-1.288 1.1088,-1.6304 2.1832,-3.0704 1.9304,-3.368 -0.0448,-0.0496 -0.1368,-0.072 -0.2664,-0.072 z m 1.732,0.82 c -0.5312,0.08 -2.4512,2.472 -3.976,4.3824 0.248,0.3896 0.5224,0.7584 0.8224,1.1072 1.568,-2.568 3.3224,-5.3656 3.228,-5.4808 a 0.128,0.128 0 0 0 -0.0744,-0.0088 z"
     id="path4"
     inkscape:connector-curvature="0"
     style="stroke-width:0.80000001" />
</svg>
