<?xml version="1.0" encoding="UTF-8" standalone="no"?>
<svg
   xmlns:dc="http://purl.org/dc/elements/1.1/"
   xmlns:cc="http://creativecommons.org/ns#"
   xmlns:rdf="http://www.w3.org/1999/02/22-rdf-syntax-ns#"
   xmlns:svg="http://www.w3.org/2000/svg"
   xmlns="http://www.w3.org/2000/svg"
   xmlns:sodipodi="http://sodipodi.sourceforge.net/DTD/sodipodi-0.dtd"
   xmlns:inkscape="http://www.inkscape.org/namespaces/inkscape"
   role="img"
   viewBox="0 0 24 24"
   version="1.1"
   id="svg6"
   sodipodi:docname="microsoftedge.svg"
   inkscape:version="0.92.5 (2060ec1f9f, 2020-04-08)">
  <metadata
     id="metadata12">
    <rdf:RDF>
      <cc:Work
         rdf:about="">
        <dc:format>image/svg+xml</dc:format>
        <dc:type
           rdf:resource="http://purl.org/dc/dcmitype/StillImage" />
      </cc:Work>
    </rdf:RDF>
  </metadata>
  <defs
     id="defs10" />
  <sodipodi:namedview
     pagecolor="#ffffff"
     bordercolor="#666666"
     borderopacity="1"
     objecttolerance="10"
     gridtolerance="10"
     guidetolerance="10"
     inkscape:pageopacity="0"
     inkscape:pageshadow="2"
     inkscape:window-width="747"
     inkscape:window-height="480"
     id="namedview8"
     showgrid="false"
     inkscape:zoom="9.8333333"
     inkscape:cx="12"
     inkscape:cy="12"
     inkscape:window-x="0"
     inkscape:window-y="0"
     inkscape:window-maximized="0"
     inkscape:current-layer="svg6" />
  <title
     id="title2">Microsoft Edge icon</title>
  <path
     d="m 19.888,16.688 q 0.112,0 0.2,0.096 0.08,0.104 0.08,0.2 0,0.096 -0.088,0.264 l -0.256,0.368 -0.344,0.424 -0.352,0.4 q -0.168,0.2 -0.304,0.336 l -0.176,0.184 q -0.464,0.424 -1.072,0.832 -0.608,0.408 -1.28,0.728 -0.688,0.32 -1.392,0.512 -0.704,0.192 -1.336,0.192 -0.72,0 -1.352,-0.224 -0.64,-0.224 -1.184,-0.624 -0.544,-0.4 -0.976,-0.936 -0.424,-0.528 -0.736,-1.152 -0.304,-0.616 -0.464,-1.28 -0.16,-0.664 -0.16,-1.336 0,-0.8 0.256,-1.568 0.264,-0.776 0.696,-1.44 0.112,0.76 0.44,1.416 0.328,0.656 0.816,1.2 0.48,0.544 1.104,0.968 0.624,0.432 1.312,0.72 0.688,0.288 1.416,0.448 0.736,0.16 1.44,0.16 0.896,0 1.744,-0.192 0.848,-0.184 1.648,-0.576 l 0.16,-0.08 z m -12.4,-1.016 q 0,0.88 0.216,1.72 0.216,0.848 0.624,1.624 0.408,0.768 0.992,1.416 0.592,0.656 1.328,1.12 Q 9.472,21.392 8.408,20.96 7.344,20.52 6.424,19.864 5.504,19.2 4.76,18.344 4.024,17.488 3.496,16.48 2.968,15.472 2.688,14.352 2.4,13.232 2.4,12.048 2.4,11.4 2.656,10.856 2.904,10.312 3.32,9.872 3.744,9.432 4.28,9.104 4.808,8.784 5.36,8.576 5.952,8.36 6.56,8.264 7.184,8.168 7.8,8.168 q 0.56,0 1.136,0.08 0.576,0.096 1.12,0.28 0.544,0.184 1.056,0.456 0.504,0.28 0.928,0.664 -0.28,0 -0.56,0.056 -0.264,0.056 -0.52,0.184 V 9.872 Q 10.456,10.096 10,10.464 9.544,10.832 9.16,11.296 8.776,11.76 8.464,12.304 8.16,12.84 7.944,13.416 q -0.216,0.568 -0.336,1.152 -0.12,0.576 -0.12,1.104 z m 4.48,-13.224 q 1.36,0 2.664,0.312 1.304,0.304 2.456,0.92 1.144,0.616 2.096,1.544 0.944,0.928 1.584,2.16 0.392,0.752 0.608,1.568 0.224,0.8 0.224,1.664 0,0.712 -0.184,1.36 -0.192,0.64 -0.552,1.184 -0.36,0.544 -0.88,0.976 -0.512,0.424 -1.16,0.704 -0.432,0.192 -0.888,0.288 -0.464,0.104 -0.928,0.104 -0.336,0 -0.776,-0.024 -0.432,-0.024 -0.88,-0.096 -0.44,-0.08 -0.84,-0.224 -0.4,-0.152 -0.672,-0.4 -0.096,-0.072 -0.184,-0.192 -0.08,-0.128 -0.08,-0.264 0,-0.12 0.128,-0.28 0.128,-0.16 0.28,-0.4 0.16,-0.224 0.288,-0.544 Q 14.4,12.488 14.4,12.048 14.4,11.2 14.08,10.48 13.76,9.752 13.232,9.168 12.704,8.576 12.016,8.144 11.328,7.704 10.584,7.432 9.912,7.192 9.208,7.08 8.512,6.968 7.8,6.968 6.56,6.968 5.352,7.328 4.144,7.688 3.152,8.44 3.72,7.048 4.6,5.936 5.48,4.832 6.616,4.056 7.744,3.28 9.096,2.864 10.456,2.448 11.96,2.448 Z"
     id="path4"
     inkscape:connector-curvature="0"
     style="stroke-width:0.80000001" />
</svg>
