<?xml version="1.0" encoding="UTF-8" standalone="no"?>
<svg
   xmlns:dc="http://purl.org/dc/elements/1.1/"
   xmlns:cc="http://creativecommons.org/ns#"
   xmlns:rdf="http://www.w3.org/1999/02/22-rdf-syntax-ns#"
   xmlns:svg="http://www.w3.org/2000/svg"
   xmlns="http://www.w3.org/2000/svg"
   xmlns:sodipodi="http://sodipodi.sourceforge.net/DTD/sodipodi-0.dtd"
   xmlns:inkscape="http://www.inkscape.org/namespaces/inkscape"
   role="img"
   viewBox="0 0 24 24"
   version="1.1"
   id="svg6"
   sodipodi:docname="netlify.svg"
   inkscape:version="0.92.5 (2060ec1f9f, 2020-04-08)">
  <metadata
     id="metadata12">
    <rdf:RDF>
      <cc:Work
         rdf:about="">
        <dc:format>image/svg+xml</dc:format>
        <dc:type
           rdf:resource="http://purl.org/dc/dcmitype/StillImage" />
      </cc:Work>
    </rdf:RDF>
  </metadata>
  <defs
     id="defs10" />
  <sodipodi:namedview
     pagecolor="#ffffff"
     bordercolor="#666666"
     borderopacity="1"
     objecttolerance="10"
     gridtolerance="10"
     guidetolerance="10"
     inkscape:pageopacity="0"
     inkscape:pageshadow="2"
     inkscape:window-width="747"
     inkscape:window-height="480"
     id="namedview8"
     showgrid="false"
     inkscape:zoom="9.8333333"
     inkscape:cx="12"
     inkscape:cy="12"
     inkscape:window-x="0"
     inkscape:window-y="0"
     inkscape:window-maximized="0"
     inkscape:current-layer="svg6" />
  <title
     id="title2">Netlify icon</title>
  <path
     d="m 16.31016,9.0628784 -0.007,-0.00296 c -0.004,-0.0016 -0.008,-0.00304 -0.01152,-0.00656 a 0.05512,0.05512 0 0 1 -0.01408,-0.04656 l 0.38712,-2.36648 1.8152,1.81568 -1.88784,0.8032 a 0.0416,0.0416 0 0 1 -0.01648,0.00296 H 16.568 a 0.05176,0.05176 0 0 1 -0.01008,-0.00848 0.8592,0.8592 0 0 0 -0.24776,-0.1908 z m 2.6328,-0.14416 1.94096,1.9407996 c 0.40312,0.4036 0.60488,0.60496 0.67848,0.83832 0.01104,0.03448 0.02,0.06904 0.02704,0.10464 l -4.6384,-1.9643996 a 0.36456,0.36456 0 0 0 -0.0074,-0.00304 c -0.01856,-0.00752 -0.04008,-0.016 -0.04008,-0.03512 0,-0.01896 0.022,-0.028 0.04056,-0.03552 l 0.006,-0.00248 z m 2.56736,3.5066396 c -0.10016,0.18832 -0.29544,0.3836 -0.62592,0.71456 l -2.18824,2.18776 -2.83016,-0.58936 -0.01504,-0.003 c -0.02504,-0.004 -0.0516,-0.0086 -0.0516,-0.03104 a 0.85424,0.85424 0 0 0 -0.328,-0.59736 c -0.01152,-0.01152 -0.0085,-0.0296 -0.005,-0.04608 0,-0.0024 0,-0.005 10e-4,-0.007 l 0.53232,-3.26784 0.002,-0.01104 c 0.003,-0.02504 0.0075,-0.05408 0.03008,-0.05408 a 0.86632,0.86632 0 0 0 0.5808,-0.33296 c 0.0045,-0.005 0.0075,-0.01048 0.0136,-0.01352 0.016,-0.0075 0.03496,0 0.05152,0.007 l 4.83216,2.044 z m -3.31736,3.4056 -3.5984,3.59832 0.616,-3.7856 9.6e-4,-0.005 a 0.0664,0.0664 0 0 1 0.003,-0.01456 c 0.005,-0.012 0.01808,-0.01704 0.03056,-0.022 l 0.006,-0.0025 a 0.9264,0.9264 0 0 0 0.348,-0.25888 c 0.012,-0.01408 0.02656,-0.0276 0.04512,-0.03008 a 0.04504,0.04504 0 0 1 0.01448,0 l 2.53376,0.5208 z m -4.36,4.35992 -0.4056,0.4056 -4.48416,-6.48056 a 0.21232,0.21232 0 0 0 -0.00496,-0.007 c -0.00704,-0.0096 -0.01456,-0.01904 -0.01304,-0.03008 4.8e-4,-0.008 0.00552,-0.01504 0.01104,-0.02104 l 0.00496,-0.0065 c 0.0136,-0.02 0.02504,-0.04 0.0376,-0.0616 l 0.01,-0.01752 0.00152,-0.0015 c 0.00696,-0.012 0.01352,-0.02352 0.02552,-0.03008 0.01048,-0.005 0.02504,-0.003 0.03656,-4.8e-4 l 4.96784,1.02456 a 0.08216,0.08216 0 0 1 0.03808,0.01648 c 0.0064,0.0065 0.008,0.0136 0.0095,0.0216 a 0.87984,0.87984 0 0 0 0.51472,0.58832 c 0.014,0.007 0.008,0.02256 0.0016,0.03904 a 0.1192,0.1192 0 0 0 -0.0076,0.02256 c -0.06256,0.38056 -0.59936,3.6544 -0.7436,4.53824 z m -0.8472,0.84672 c -0.29896,0.296 -0.4752,0.45272 -0.67456,0.51576 a 1.00152,1.00152 0 0 1 -0.60392,0 c -0.23328,-0.07408 -0.43512,-0.27536 -0.83824,-0.67896 l -4.5032,-4.5032 1.17632,-1.82416 a 0.07504,0.07504 0 0 1 0.02,-0.02352 c 0.01256,-0.009 0.03056,-0.005 0.0456,0 a 1.2188,1.2188 0 0 0 0.82024,-0.0416 c 0.01352,-0.005 0.02704,-0.0085 0.03752,10e-4 a 0.0952,0.0952 0 0 1 0.014,0.016 l 4.50616,6.5392 z m -7.054,-5.10048 -1.03304,-1.03312 2.04,-0.87032 a 0.04208,0.04208 0 0 1 0.01656,-0.0035 c 0.01704,0 0.02704,0.01704 0.036,0.03256 a 1.45712,1.45712 0 0 0 0.06512,0.09216 l 0.00656,0.008 c 0.006,0.0085 0.002,0.01704 -0.004,0.02504 l -1.12672,1.74912 z m -1.49024,-1.49024 -1.30688,-1.30696 c -0.2224,-0.22232 -0.3836,-0.38352 -0.49576,-0.52224 l 3.97392,0.82424 a 0.42064,0.42064 0 0 0 0.01496,0.0024 c 0.02456,0.004 0.0516,0.0086 0.0516,0.0316 0,0.02504 -0.0296,0.03656 -0.05456,0.04608 l -0.01152,0.005 z m -2.03096,-2.50128 a 1.00152,1.00152 0 0 1 0.04504,-0.24784 c 0.07416,-0.23336 0.27544,-0.43472 0.67904,-0.83824 L 4.80712,9.1870384 a 1089.3757,1089.3757 0 0 0 2.3164,3.3483996 c 0.0136,0.01808 0.02856,0.03808 0.01304,0.05312 -0.07312,0.08064 -0.14624,0.1688 -0.19784,0.2644 a 0.08008,0.08008 0 0 1 -0.02504,0.03104 c -0.0064,0.004 -0.01352,0.0024 -0.02096,10e-4 H 6.89168 l -4.48112,-0.94 z m 2.84424,-3.2062396 2.2488,-2.2488 c 0.21128,0.09256 0.98048,0.4176 1.66848,0.708 0.5208,0.22032 0.99544,0.42064 1.14464,0.48568 0.01504,0.00608 0.02856,0.012 0.03512,0.02704 0.004,0.00904 0.002,0.02056 0,0.03008 a 1.00296,1.00296 0 0 0 0.26184,0.91536 c 0.01504,0.01504 0,0.03656 -0.01304,0.05512 l -0.007,0.01048 -2.28336,3.5367996 c -0.006,0.0099 -0.01152,0.0184 -0.02152,0.02496 -0.012,0.0075 -0.02904,0.004 -0.04304,4.8e-4 a 1.13872,1.13872 0 0 0 -0.272,-0.03704 c -0.08208,0 -0.1712,0.01504 -0.26128,0.0316 h -5.6e-4 c -0.01,0.0015 -0.01904,0.0035 -0.02704,-0.0025 a 0.10512,0.10512 0 0 1 -0.02248,-0.0256 z m 2.70296,-2.70304 2.91128,-2.9112 c 0.4032,-0.40312 0.60496,-0.60488 0.83824,-0.67848 a 1.00152,1.00152 0 0 1 0.604,0 c 0.23328,0.0736 0.43504,0.27536 0.83816,0.6784 l 0.63096,0.63104 -2.07056,3.20672 a 0.0776,0.0776 0 0 1 -0.02056,0.024 c -0.01248,0.00856 -0.03,0.00504 -0.04504,0 a 1.05008,1.05008 0 0 0 -0.96144,0.18528 c -0.01352,0.01408 -0.0336,0.006 -0.05056,-0.00152 -0.2704,-0.1176 -2.3736,-1.0064 -2.6744,-1.13416 z m 6.26224,-1.84072 1.91184,1.91184 -0.46064,2.8532 v 0.00752 a 0.0676,0.0676 0 0 1 -0.004,0.01904 c -0.005,0.01 -0.01504,0.012 -0.02504,0.01504 a 0.91632,0.91632 0 0 0 -0.2744,0.13672 0.07712,0.07712 0 0 0 -0.01,0.00848 c -0.0056,0.006 -0.01104,0.01152 -0.02,0.01256 a 0.05712,0.05712 0 0 1 -0.0216,-0.00352 l -2.91328,-1.23784 -0.0056,-0.00248 c -0.01848,-0.00752 -0.04048,-0.01656 -0.04048,-0.0356 a 1.10064,1.10064 0 0 0 -0.1552,-0.45816 c -0.01408,-0.02304 -0.0296,-0.04704 -0.0176,-0.07064 z m -1.9688,4.30944 2.73104,1.1568 c 0.01504,0.00696 0.03152,0.01344 0.03808,0.02896 a 0.05304,0.05304 0 0 1 0,0.02856 0.6784,0.6784 0 0 0 -0.01504,0.13168 v 0.07664 c 0,0.01904 -0.01952,0.02704 -0.0376,0.03456 l -0.0055,0.002 c -0.43264,0.1847996 -6.07392,2.5903996 -6.0824,2.5903996 -0.00856,0 -0.0176,0 -0.02608,-0.0086 -0.01504,-0.01504 0,-0.03608 0.01352,-0.05512 a 0.38056,0.38056 0 0 0 0.00696,-0.01 l 2.24432,-3.4751996 0.004,-0.00592 c 0.01304,-0.02104 0.028,-0.04456 0.05208,-0.04456 l 0.02256,0.00344 c 0.05104,0.00704 0.09616,0.0136 0.14168,0.0136 0.34056,0 0.656,-0.16576 0.84632,-0.4492 a 0.08008,0.08008 0 0 1 0.01696,-0.02 c 0.0136,-0.01008 0.0336,-0.00504 0.04912,0.00192 z m -3.1276,4.5993596 6.14904,-2.6224 c 0,0 0.009,0 0.0176,0.0085 0.03352,0.0336 0.06208,0.05608 0.0896,0.07712 l 0.01352,0.0086 c 0.01248,0.007 0.02504,0.01504 0.026,0.028 0,0.005 0,0.008 -10e-4,0.01256 l -0.52672,3.23576 -0.002,0.01304 c -0.0035,0.02504 -0.007,0.0536 -0.03056,0.0536 a 0.86576,0.86576 0 0 0 -0.68752,0.42408 l -0.0025,0.004 c -0.007,0.01152 -0.0136,0.02256 -0.02504,0.02856 -0.01048,0.005 -0.024,0.003 -0.03504,4.8e-4 l -4.90384,-1.01144 c -0.00504,-10e-4 -0.07616,-0.25992 -0.0816,-0.2604 z"
     id="path4"
     inkscape:connector-curvature="0"
     style="stroke-width:0.80000001" />
</svg>
