<?xml version="1.0" encoding="UTF-8" standalone="no"?>
<!-- Created with Inkscape (http://www.inkscape.org/) -->

<svg
   xmlns:dc="http://purl.org/dc/elements/1.1/"
   xmlns:cc="http://creativecommons.org/ns#"
   xmlns:rdf="http://www.w3.org/1999/02/22-rdf-syntax-ns#"
   xmlns:svg="http://www.w3.org/2000/svg"
   xmlns="http://www.w3.org/2000/svg"
   xmlns:sodipodi="http://sodipodi.sourceforge.net/DTD/sodipodi-0.dtd"
   xmlns:inkscape="http://www.inkscape.org/namespaces/inkscape"
   width="256px"
   height="256px"
   viewBox="0 0 256 256"
   version="1.1"
   id="SVGRoot"
   inkscape:version="0.92.5 (2060ec1f9f, 2020-04-08)"
   sodipodi:docname="nomad.svg">
  <defs
     id="defs82" />
  <sodipodi:namedview
     id="base"
     pagecolor="#ffffff"
     bordercolor="#666666"
     borderopacity="1.0"
     inkscape:pageopacity="0.0"
     inkscape:pageshadow="2"
     inkscape:zoom="1"
     inkscape:cx="128"
     inkscape:cy="128"
     inkscape:document-units="px"
     inkscape:current-layer="layer1"
     showgrid="false"
     inkscape:window-width="1920"
     inkscape:window-height="1005"
     inkscape:window-x="0"
     inkscape:window-y="0"
     inkscape:window-maximized="1"
     inkscape:grid-bbox="true" />
  <metadata
     id="metadata85">
    <rdf:RDF>
      <cc:Work
         rdf:about="">
        <dc:format>image/svg+xml</dc:format>
        <dc:type
           rdf:resource="http://purl.org/dc/dcmitype/StillImage" />
        <dc:title></dc:title>
      </cc:Work>
    </rdf:RDF>
  </metadata>
  <g
     inkscape:label="Layer 1"
     inkscape:groupmode="layer"
     id="layer1">
    <polygon
       class="cls-1"
       points="158.26,59.42 158.26,59.34 98.51,25.48 39.74,59.44 79.39,82.72 87.41,77.84 106.9,88.71 106.9,66.13 125.58,54.91 125.58,77.54 "
       id="polygon18"
       transform="matrix(1.44,0,0,1.44,-9.56,-10.2224)"
       style="fill:#00bc7f" />
    <polygon
       class="cls-2"
       points="157.16,59.42 125.58,77.54 125.58,100.01 109.94,109.04 99,102.28 99,160.93 99.31,160.94 158.26,127.07 158.26,59.42 "
       id="polygon20"
       transform="matrix(1.44,0,0,1.44,-9.56,-10.2224)"
       style="fill:#009a69" />
    <polygon
       class="cls-1"
       points="99,160.93 99,102.28 91.1,97.76 91.1,120.33 73.32,131.6 73.32,86.47 80.06,82.31 40.08,59.43 39.74,59.44 39.74,127.07 "
       id="polygon22"
       transform="matrix(1.44,0,0,1.44,-9.56,-10.2224)"
       style="fill:#00bc7f" />
  </g>
</svg>
