<?xml version="1.0" encoding="UTF-8" standalone="no"?>
<svg
   xmlns:dc="http://purl.org/dc/elements/1.1/"
   xmlns:cc="http://creativecommons.org/ns#"
   xmlns:rdf="http://www.w3.org/1999/02/22-rdf-syntax-ns#"
   xmlns:svg="http://www.w3.org/2000/svg"
   xmlns="http://www.w3.org/2000/svg"
   xmlns:sodipodi="http://sodipodi.sourceforge.net/DTD/sodipodi-0.dtd"
   xmlns:inkscape="http://www.inkscape.org/namespaces/inkscape"
   role="img"
   viewBox="0 0 24 24"
   version="1.1"
   id="svg6"
   sodipodi:docname="openstack.svg"
   inkscape:version="0.92.5 (2060ec1f9f, 2020-04-08)">
  <metadata
     id="metadata12">
    <rdf:RDF>
      <cc:Work
         rdf:about="">
        <dc:format>image/svg+xml</dc:format>
        <dc:type
           rdf:resource="http://purl.org/dc/dcmitype/StillImage" />
      </cc:Work>
    </rdf:RDF>
  </metadata>
  <defs
     id="defs10" />
  <sodipodi:namedview
     pagecolor="#ffffff"
     bordercolor="#666666"
     borderopacity="1"
     objecttolerance="10"
     gridtolerance="10"
     guidetolerance="10"
     inkscape:pageopacity="0"
     inkscape:pageshadow="2"
     inkscape:window-width="1920"
     inkscape:window-height="1005"
     id="namedview8"
     showgrid="false"
     inkscape:zoom="26.704248"
     inkscape:cx="20.084746"
     inkscape:cy="9.4576271"
     inkscape:window-x="0"
     inkscape:window-y="0"
     inkscape:window-maximized="1"
     inkscape:current-layer="svg6" />
  <title
     id="title2">OpenStack icon</title>
  <path
     d="m 17.577071,8.5357061 h 4.395101 v 4.3967229 h -4.395101 z m -15.068107,0 H 6.9048762 V 12.932429 H 2.508964 Z m 15.068107,6.3492899 a 0.97912271,0.97912271 0 0 1 -0.978312,0.978312 H 7.8815653 A 0.97912271,0.97912271 0 0 1 6.904065,14.884996 V 14.188984 H 2.508964 v 4.260441 a 1.8138512,1.8138512 0 0 0 1.8081728,1.808984 H 20.159943 A 1.8146624,1.8146624 0 0 0 21.97785,18.450236 V 14.189795 H 17.577071 Z M 20.163188,1.2089153 H 4.3203816 A 1.8138512,1.8138512 0 0 0 2.5113976,3.0178992 V 7.2783401 H 6.9073098 V 6.5823281 A 0.97831151,0.97831151 0 0 1 7.8848101,5.6040162 h 8.7171939 a 0.97831151,0.97831151 0 0 1 0.9775,0.9783119 v 0.696012 H 21.97785 V 3.017088 A 1.8146624,1.8146624 0 0 0 20.163188,1.2089153 Z"
     id="path4"
     inkscape:connector-curvature="0"
     style="stroke-width:0.8112036" />
</svg>
