<?xml version="1.0" encoding="UTF-8" standalone="no"?>
<svg
   xmlns:dc="http://purl.org/dc/elements/1.1/"
   xmlns:cc="http://creativecommons.org/ns#"
   xmlns:rdf="http://www.w3.org/1999/02/22-rdf-syntax-ns#"
   xmlns:svg="http://www.w3.org/2000/svg"
   xmlns="http://www.w3.org/2000/svg"
   xmlns:sodipodi="http://sodipodi.sourceforge.net/DTD/sodipodi-0.dtd"
   xmlns:inkscape="http://www.inkscape.org/namespaces/inkscape"
   role="img"
   viewBox="0 0 24 24"
   version="1.1"
   id="svg6"
   sodipodi:docname="opera.svg"
   inkscape:version="0.92.5 (2060ec1f9f, 2020-04-08)">
  <metadata
     id="metadata12">
    <rdf:RDF>
      <cc:Work
         rdf:about="">
        <dc:format>image/svg+xml</dc:format>
        <dc:type
           rdf:resource="http://purl.org/dc/dcmitype/StillImage" />
      </cc:Work>
    </rdf:RDF>
  </metadata>
  <defs
     id="defs10" />
  <sodipodi:namedview
     pagecolor="#ffffff"
     bordercolor="#666666"
     borderopacity="1"
     objecttolerance="10"
     gridtolerance="10"
     guidetolerance="10"
     inkscape:pageopacity="0"
     inkscape:pageshadow="2"
     inkscape:window-width="747"
     inkscape:window-height="480"
     id="namedview8"
     showgrid="false"
     inkscape:zoom="9.8333333"
     inkscape:cx="-0.30508475"
     inkscape:cy="12"
     inkscape:window-x="0"
     inkscape:window-y="0"
     inkscape:window-maximized="0"
     inkscape:current-layer="svg6" />
  <title
     id="title2">Opera icon</title>
  <path
     d="M 8.8408,6.5904 C 7.7784,7.8432 7.092,9.6968 7.044,11.7744 v 0.4512 c 0.0488,2.0784 0.7344,3.9296 1.7968,5.1832 1.3768,1.7888 3.4232,2.9232 5.7112,2.9232 1.4048,0 2.72,-0.4296 3.8456,-1.1768 C 16.7032,20.6768 14.4592,21.6 12,21.6 11.8464,21.6 11.6936,21.5968 11.544,21.5888 6.4512,21.3512 2.4,17.1488 2.4,12 2.4,6.6968 6.6984,2.4 12,2.4 h 0.036 C 14.48,2.4096 16.708,3.3328 18.3984,4.844 17.272,4.1 15.9576,3.6672 14.5504,3.6672 c -2.2864,0 -4.3336,1.136 -5.712,2.9232 z M 21.6,12 c 0,2.8448 -1.236,5.3984 -3.2016,7.156 -2.4624,1.2 -4.7568,0.3608 -5.5168,-0.164 C 15.3,18.4608 17.1272,15.536 17.1272,12 17.1272,8.4624 15.3008,5.54 12.8816,5.008 13.6408,4.4848 15.936,3.6456 18.3984,4.844 20.364,6.6 21.6,9.156 21.6,12 Z"
     id="path4"
     inkscape:connector-curvature="0"
     style="stroke-width:0.80000001" />
</svg>
