<?xml version="1.0" encoding="UTF-8" standalone="no"?>
<svg
   xmlns:dc="http://purl.org/dc/elements/1.1/"
   xmlns:cc="http://creativecommons.org/ns#"
   xmlns:rdf="http://www.w3.org/1999/02/22-rdf-syntax-ns#"
   xmlns:svg="http://www.w3.org/2000/svg"
   xmlns="http://www.w3.org/2000/svg"
   xmlns:sodipodi="http://sodipodi.sourceforge.net/DTD/sodipodi-0.dtd"
   xmlns:inkscape="http://www.inkscape.org/namespaces/inkscape"
   role="img"
   viewBox="0 0 24 24"
   version="1.1"
   id="svg6"
   sodipodi:docname="phabricator.svg"
   inkscape:version="0.92.5 (2060ec1f9f, 2020-04-08)">
  <metadata
     id="metadata12">
    <rdf:RDF>
      <cc:Work
         rdf:about="">
        <dc:format>image/svg+xml</dc:format>
        <dc:type
           rdf:resource="http://purl.org/dc/dcmitype/StillImage" />
      </cc:Work>
    </rdf:RDF>
  </metadata>
  <defs
     id="defs10" />
  <sodipodi:namedview
     pagecolor="#ffffff"
     bordercolor="#666666"
     borderopacity="1"
     objecttolerance="10"
     gridtolerance="10"
     guidetolerance="10"
     inkscape:pageopacity="0"
     inkscape:pageshadow="2"
     inkscape:window-width="747"
     inkscape:window-height="480"
     id="namedview8"
     showgrid="false"
     inkscape:zoom="9.8333333"
     inkscape:cx="12"
     inkscape:cy="12"
     inkscape:window-x="0"
     inkscape:window-y="0"
     inkscape:window-maximized="0"
     inkscape:current-layer="svg6" />
  <title
     id="title2">Phabricator icon</title>
  <path
     d="m 10.460838,8.5152899 c -0.3264,0.132 -0.384,0.1568 -0.3904,0.1704 -0.0112,0.0272 -0.008,0.616 0.0048,0.8928 l 0.012,0.236 -0.1784003,0.176 -0.1784,0.1752001 -0.1536,-0.004 a 20.9584,20.9584 0 0 0 -0.9,0.0024 c -0.1016,0.0096 -0.0976,0.008 -0.12,0.06 -0.096,0.2288 -0.296,0.728 -0.296,0.7376 0,0.0064 0.0128,0.028 0.0272,0.048 0.0344,0.0472 0.3672,0.3776 0.552,0.5504 l 0.192,0.1792 0.0456,0.0416 0.0016,0.2504 0.0024,0.2504 -0.3064,0.3072 c -0.304,0.3032 -0.4152,0.42 -0.46,0.4848 l -0.0224,0.0336 0.168,0.396 c 0.16,0.376 0.1704,0.3968 0.188,0.4016 0.056,0.016 0.2296,0.0192 0.672,0.016 l 0.4624,-0.004 0.1792,0.1808 0.1808003,0.1808 v 0.2624 c 0,0.4024 0.0144,0.768 0.0328,0.8552 l 0.0064,0.0296 0.396,0.168 c 0.2176,0.0912 0.3992,0.1664 0.4032,0.1664 0.0328,0 0.4448,-0.4064 0.7408,-0.7312 l 0.056,-0.0632 0.2568,0.004 0.256,0.004 0.3136,0.312 c 0.344,0.34 0.504,0.488 0.5312,0.488 0.0032,0 0.1824,-0.0712 0.3968,-0.1568 0.3304,-0.132 0.3912,-0.1584 0.396,-0.1712 0.0176,-0.0424 0.0152,-0.4656 -0.0048,-0.8944 l -0.0112,-0.2336 0.1784,-0.1768 0.1784,-0.1776 0.2144,0.0056 c 0.264,0.0072 0.824,0.0024 0.8864,-0.0072 a 0.156,0.156 0 0 0 0.052,-0.0152 c 0.0112,-0.0112 0.3168,-0.764 0.3168,-0.7792 a 0.2184,0.2184 0 0 0 -0.0384,-0.0592 c -0.048,-0.0592 -0.3616,-0.3696 -0.5544,-0.5488 l -0.1848,-0.172 -0.0376,-0.036 -0.0032,-0.2512 -0.0032,-0.2512 0.2912,-0.2896 c 0.2944,-0.2928 0.4176,-0.424 0.4704,-0.4968 l 0.0288,-0.04 -0.1688,-0.3944 a 6.2344,6.2344 0 0 0 -0.1784,-0.4 0.48,0.48 0 0 0 -0.0832,-0.0136 15.2528,15.2528 0 0 0 -0.9088,-0.0024 l -0.144,0.0048 -0.184,-0.18 -0.184,-0.1808001 v -0.2632 c 0,-0.4208 -0.0152,-0.7824 -0.0344,-0.86 l -0.008,-0.0296 -0.3896,-0.1656 a 10.764,10.764 0 0 0 -0.404,-0.1656 c -0.0176,0 -0.096,0.0656 -0.1952,0.1632 -0.1472,0.1456 -0.3288,0.332 -0.4688,0.4816 l -0.14,0.1488 -0.252,-0.004 -0.252,-0.004 -0.264,-0.2632 c -0.3896,-0.3864 -0.5536,-0.536 -0.5904,-0.5344 -0.008,0 -0.1872,0.0704 -0.3976,0.1552 z m 1.6504,2.3504001 c 0.552,0.072 0.9896,0.5112 1.0544,1.0552 0.012,0.1008 0.004,0.2912 -0.016,0.3864 a 1.2328,1.2328 0 0 1 -1.0408,0.9632 c -0.0696,0.0104 -0.256,0.0104 -0.3264,0 a 1.2296,1.2296 0 0 1 -0.9752,-0.7528 1.2128,1.2128 0 0 1 0.7144,-1.5872 1.344,1.344 0 0 1 0.256,-0.064 c 0.0816,-0.012 0.244,-0.012 0.3336,0 z m -0.4408,-6.3280001 a 7.432,7.432 0 0 0 -2.4264003,0.5216 7.3808,7.3808 0 0 0 -2.344,1.4984 c -0.1032,0.0976 -3.8976,3.9072001 -3.9528,3.9680001 a 2.2504,2.2504 0 0 0 -0.5392,1.2392 c -0.0104,0.088 -0.0104,0.3792 0,0.468 a 2.232,2.232 0 0 0 0.4816,1.168 c 0.072,0.0904 0.112,0.1304 2.5224,2.5504 1.2304,1.2352 1.4112,1.4144 1.6352,1.6168 a 7.4088,7.4088 0 0 0 5.4968003,1.8792 7.38,7.38 0 0 0 4.536,-1.9912 c 0.14,-0.1296 3.9048,-3.9088 3.9784,-3.9928 0.2888,-0.3296 0.472,-0.744 0.5304,-1.2016 0.0152,-0.1256 0.0152,-0.4 -8e-4,-0.5256 a 2.232,2.232 0 0 0 -0.5296,-1.2016 623.672,623.672 0 0 0 -3.9624,-3.9736001 7.3824,7.3824 0 0 0 -3.316,-1.8128 7.5992,7.5992 0 0 0 -1.344,-0.2048 12.1656,12.1656 0 0 0 -0.7656,-0.0064 z m 0.656,1.5424 c 0.6032,0.032 1.2056,0.16 1.8024,0.3872 0.2176,0.0824 0.5728,0.2528 0.796,0.3808 a 5.956,5.956 0 0 1 2.588,3.0192 5.96,5.96 0 0 1 0.208,3.6104001 5.916,5.916 0 0 1 -5.1544,4.424 c -0.272,0.0256 -0.6704,0.0336 -0.9152,0.016 -1.3952,-0.0928 -2.6400003,-0.6248 -3.6560003,-1.5624 a 5.9296,5.9296 0 0 1 -1.856,-5.096 5.904,5.904 0 0 1 1.248,-2.9632001 5.8992,5.8992 0 0 1 2.8256003,-1.9488 5.8984,5.8984 0 0 1 2.1152,-0.2672 z"
     id="path4"
     inkscape:connector-curvature="0"
     style="stroke-width:0.80000001" />
</svg>
