<?xml version="1.0" encoding="UTF-8" standalone="no"?>
<svg
   xmlns:dc="http://purl.org/dc/elements/1.1/"
   xmlns:cc="http://creativecommons.org/ns#"
   xmlns:rdf="http://www.w3.org/1999/02/22-rdf-syntax-ns#"
   xmlns:svg="http://www.w3.org/2000/svg"
   xmlns="http://www.w3.org/2000/svg"
   xmlns:sodipodi="http://sodipodi.sourceforge.net/DTD/sodipodi-0.dtd"
   xmlns:inkscape="http://www.inkscape.org/namespaces/inkscape"
   role="img"
   viewBox="0 0 24 24"
   version="1.1"
   id="svg6"
   sodipodi:docname="redhatopenshift.svg"
   inkscape:version="0.92.5 (2060ec1f9f, 2020-04-08)">
  <metadata
     id="metadata12">
    <rdf:RDF>
      <cc:Work
         rdf:about="">
        <dc:format>image/svg+xml</dc:format>
        <dc:type
           rdf:resource="http://purl.org/dc/dcmitype/StillImage" />
      </cc:Work>
    </rdf:RDF>
  </metadata>
  <defs
     id="defs10" />
  <sodipodi:namedview
     pagecolor="#ffffff"
     bordercolor="#666666"
     borderopacity="1"
     objecttolerance="10"
     gridtolerance="10"
     guidetolerance="10"
     inkscape:pageopacity="0"
     inkscape:pageshadow="2"
     inkscape:window-width="747"
     inkscape:window-height="480"
     id="namedview8"
     showgrid="false"
     inkscape:zoom="9.8333333"
     inkscape:cx="12"
     inkscape:cy="12"
     inkscape:window-x="0"
     inkscape:window-y="0"
     inkscape:window-maximized="0"
     inkscape:current-layer="svg6" />
  <title
     id="title2">Red Hat Open Shift icon</title>
  <path
     d="m 19.732,11.849686 c -0.088,-1.1016 -0.3808,-2.1792 -0.864,-3.1728 l 2.732,-0.9976 c -0.2144,-0.4448 -0.468,-0.8736 -0.7544,-1.276 l -1.2808,0.4664 c -2.8272,-3.96 -8.3296,-4.8784 -12.2904,-2.052 -2.5152,1.7952 -3.9064,4.7776 -3.6656,7.8584 l 1.2832,-0.4672 c 0.0408,0.492 0.1224,0.9792 0.244,1.4576 l -2.736,1.0016 c 0.2704,1.0712 0.7376,2.0832 1.3768,2.9848 l 1.4496,-0.5272 c 2.8208,3.96 8.3184,4.8848 12.2792,2.064 1.244,-0.8856 2.2368,-2.08 2.8792,-3.4656 0.6416,-1.372 0.9152,-2.888 0.7928,-4.3976 z m -3.792,-2.108 c 0.5496,0.9816 0.7984,2.1032 0.716,3.2256 l 1.4472,-0.5256 c -0.0504,0.6848 -0.2256,1.3552 -0.5168,1.9768 -1.336,2.8672 -4.7424,4.1104 -7.6112,2.7776 -0.6256,-0.292 -1.1928,-0.696 -1.6736,-1.192 l -1.4504,0.528 c -0.7832,-0.808 -1.312,-1.828 -1.5224,-2.9336 l 2.7408,-0.9936 c -0.0968,-0.4992 -0.1272,-1.0096 -0.0888,-1.5168 H 7.976 l -1.2832,0.4664 c 0.2352,-3.1456 2.976,-5.5048 6.1216,-5.2696 0.6944,0.052 1.3728,0.2304 2.0032,0.5264 v -0.0048 c 0.6224,0.2912 1.1864,0.6936 1.6656,1.1864 l 1.2792,-0.4656 c 0.0016,0.0016 0.0032,0.0024 0.0048,0.004 0.3528,0.3632 0.656,0.772 0.9024,1.2144 z"
     id="path4"
     inkscape:connector-curvature="0"
     style="stroke-width:0.80000001" />
</svg>
