<?xml version="1.0" encoding="UTF-8" standalone="no"?>
<svg
   xmlns:dc="http://purl.org/dc/elements/1.1/"
   xmlns:cc="http://creativecommons.org/ns#"
   xmlns:rdf="http://www.w3.org/1999/02/22-rdf-syntax-ns#"
   xmlns:svg="http://www.w3.org/2000/svg"
   xmlns="http://www.w3.org/2000/svg"
   xmlns:sodipodi="http://sodipodi.sourceforge.net/DTD/sodipodi-0.dtd"
   xmlns:inkscape="http://www.inkscape.org/namespaces/inkscape"
   role="img"
   viewBox="0 0 24 24"
   version="1.1"
   id="svg6"
   sodipodi:docname="semver.svg"
   inkscape:version="0.92.5 (2060ec1f9f, 2020-04-08)">
  <metadata
     id="metadata12">
    <rdf:RDF>
      <cc:Work
         rdf:about="">
        <dc:format>image/svg+xml</dc:format>
        <dc:type
           rdf:resource="http://purl.org/dc/dcmitype/StillImage" />
      </cc:Work>
    </rdf:RDF>
  </metadata>
  <defs
     id="defs10" />
  <sodipodi:namedview
     pagecolor="#ffffff"
     bordercolor="#666666"
     borderopacity="1"
     objecttolerance="10"
     gridtolerance="10"
     guidetolerance="10"
     inkscape:pageopacity="0"
     inkscape:pageshadow="2"
     inkscape:window-width="1920"
     inkscape:window-height="1005"
     id="namedview8"
     showgrid="false"
     inkscape:zoom="9.8333333"
     inkscape:cx="12"
     inkscape:cy="12"
     inkscape:window-x="0"
     inkscape:window-y="0"
     inkscape:window-maximized="1"
     inkscape:current-layer="svg6" />
  <title
     id="title2">SemVer icon</title>
  <path
     d="m 2.1035115,9.4703453 a 10.2595,10.2595 0 0 0 2.22105,9.2165497 10.24335,10.24335 0 0 0 8.8230005,3.45355 c 6.6028,-0.59755 11.1231,-8.32915 8.08945,-14.2799997 -0.3536,-1.0115 -1.7595,-0.3128 -1.61755,0.5066 0.24395,0.595 0.4471,1.20785 0.60605,1.8317497 a 8.48555,8.48555 0 0 1 -3.3371,8.7125 8.47025,8.47025 0 0 1 -12.5859505,-3.23765 8.4864,8.4864 0 0 1 1.2716,-9.2428997 8.4728,8.4728 0 0 1 4.1225,-2.5874 8.3878,8.3878 0 0 1 5.9670005,0.53635 0.28305,0.28305 0 0 1 0.13175,0.36465 l -3.3677,9.0269997 c -0.09095,0.6885 -0.5865,0.6681 -0.67745,0 L 9.7271615,7.5068453 a 1.3362,1.3362 0 0 0 -0.65705,-0.8398 c -1.0115,-0.476 -2.62905,0.56695 -2.02215,1.83175 l 3.3269005,8.8748497 c 0.4454,1.18405 0.86955,1.5589 1.7493,1.5589 0.87975,0 1.30475,-0.374 1.7493,-1.5589 l 4.9266,-12.2246997 a 0.8806,0.8806 0 0 0 -0.31365,-1.0115 c -5.55135,-4.80844996 -14.7143505,-1.79265 -16.3829005,5.33205 z"
     id="path4"
     inkscape:connector-curvature="0"
     style="stroke-width:0.85000002" />
</svg>
