<?xml version="1.0" encoding="UTF-8" standalone="no"?>
<svg
   xmlns:dc="http://purl.org/dc/elements/1.1/"
   xmlns:cc="http://creativecommons.org/ns#"
   xmlns:rdf="http://www.w3.org/1999/02/22-rdf-syntax-ns#"
   xmlns:svg="http://www.w3.org/2000/svg"
   xmlns="http://www.w3.org/2000/svg"
   xmlns:sodipodi="http://sodipodi.sourceforge.net/DTD/sodipodi-0.dtd"
   xmlns:inkscape="http://www.inkscape.org/namespaces/inkscape"
   role="img"
   viewBox="0 0 24 24"
   version="1.1"
   id="svg6"
   sodipodi:docname="subversion.svg"
   inkscape:version="0.92.5 (2060ec1f9f, 2020-04-08)">
  <metadata
     id="metadata12">
    <rdf:RDF>
      <cc:Work
         rdf:about="">
        <dc:format>image/svg+xml</dc:format>
        <dc:type
           rdf:resource="http://purl.org/dc/dcmitype/StillImage" />
      </cc:Work>
    </rdf:RDF>
  </metadata>
  <defs
     id="defs10" />
  <sodipodi:namedview
     pagecolor="#ffffff"
     bordercolor="#666666"
     borderopacity="1"
     objecttolerance="10"
     gridtolerance="10"
     guidetolerance="10"
     inkscape:pageopacity="0"
     inkscape:pageshadow="2"
     inkscape:window-width="747"
     inkscape:window-height="480"
     id="namedview8"
     showgrid="false"
     inkscape:zoom="9.8333333"
     inkscape:cx="12"
     inkscape:cy="12"
     inkscape:window-x="0"
     inkscape:window-y="0"
     inkscape:window-maximized="0"
     inkscape:current-layer="svg6" />
  <title
     id="title2">Subversion icon</title>
  <path
     d="m 21.6,19.0024 v -5.0448 c -2.628,1.0368 -5.8896,2.0448 -9.784,3.0288 -3.6272,0.916 -6.7664,1.576 -9.416,1.98 v 0.036 z m -19.2,-5.34 v 4.1064 c 2.9904,-0.44 5.6928,-0.9648 8.104,-1.5736 2.3696,-0.5984 4.196,-1.18 5.4776,-1.744 1.2816,-0.5624 1.872,-1.0376 1.776,-1.424 -0.0856,-0.336 -0.6768,-0.508 -1.7736,-0.516 -0.5624,0.008 -1.336,0.048 -2.3232,0.12 -0.9888,0.072 -2.2192,0.1872 -3.688,0.3408 -2.28,0.2432 -4.1728,0.4296 -5.68,0.5552 -0.7168,0.06 -1.348,0.1056 -1.8928,0.136 z m 0.828,2.36 c 0.048,0 0.0912,0.02 0.128,0.056 0.0368,0.0368 0.056,0.0824 0.056,0.1328 0,0.0528 -0.0192,0.096 -0.056,0.1344 -0.0376,0.036 -0.0832,0.0528 -0.1312,0.0528 -0.0256,0 -0.0512,-0.0048 -0.0736,-0.0144 -0.024,-0.0096 -0.0432,-0.024 -0.06,-0.04 -0.0184,-0.0112 -0.032,-0.0352 -0.04,-0.0592 0,-0.012 -0.0128,-0.036 -0.0128,-0.072 0,-0.048 0.024,-0.096 0.06,-0.132 0.036,-0.036 0.084,-0.048 0.144,-0.048 z m 0.648,0 c 0.0504,0 0.0936,0.02 0.132,0.056 0.036,0.0368 0.0528,0.0824 0.0528,0.1328 0,0.0528 -0.0176,0.096 -0.0536,0.1344 -0.048,0.036 -0.0848,0.0528 -0.144,0.0528 -0.024,0 -0.048,-0.0048 -0.072,-0.0144 -0.024,-0.0096 -0.048,-0.024 -0.0608,-0.04 -0.024,-0.0112 -0.036,-0.0352 -0.048,-0.0592 -0.012,-0.012 -0.012,-0.036 -0.012,-0.072 0,-0.048 0.0112,-0.096 0.048,-0.132 0.0368,-0.036 0.0832,-0.048 0.1312,-0.048 z m -0.648,-1.208 c 0.048,0 0.0912,0.0176 0.128,0.056 0.0368,0.036 0.056,0.08 0.056,0.132 0,0.0512 -0.0192,0.096 -0.056,0.132 -0.0368,0.036 -0.08,0.056 -0.1312,0.056 -0.052,0 -0.0976,-0.0192 -0.1336,-0.056 -0.036,-0.036 -0.056,-0.0816 -0.056,-0.132 0,-0.0536 0.0128,-0.0984 0.048,-0.1344 0.0352,-0.036 0.0848,-0.0544 0.1328,-0.0544 z m 0.648,0 c 0.0504,0 0.0936,0.0176 0.132,0.056 0.036,0.036 0.0528,0.08 0.0528,0.132 0,0.0512 -0.0176,0.096 -0.0536,0.132 -0.048,0.036 -0.0848,0.056 -0.144,0.056 -0.0592,0 -0.096,-0.0192 -0.1328,-0.056 -0.036,-0.036 -0.06,-0.0816 -0.06,-0.132 0,-0.0536 0.0112,-0.0984 0.048,-0.1344 0.0368,-0.036 0.0832,-0.0544 0.1312,-0.0544 z M 21.6,6.0776 V 9.928 c -1.308,0.08 -2.944,0.2216 -4.9104,0.4272 -1.992,0.216 -3.616,0.384 -4.8744,0.492 -1.2608,0.12 -2.1704,0.1808 -2.728,0.192 -1.0904,0.024 -1.672,-0.12 -1.756,-0.4432 -0.084,-0.36 0.564,-0.84 1.956,-1.416 1.392,-0.588 3.24,-1.176 5.52,-1.752 2.004,-0.504 4.272,-0.948 6.792,-1.32 z m -0.684,-1.08 c -2.604,0.484 -5.3016,1.08 -8.0912,1.784 C 8.4696,7.8816 4.9952,8.976 2.4,10.0584 v -5.06 h 18.5168 z"
     id="path4"
     inkscape:connector-curvature="0"
     style="stroke-width:0.80000001" />
</svg>
