<?xml version="1.0" encoding="UTF-8" standalone="no"?>
<svg
   xmlns:dc="http://purl.org/dc/elements/1.1/"
   xmlns:cc="http://creativecommons.org/ns#"
   xmlns:rdf="http://www.w3.org/1999/02/22-rdf-syntax-ns#"
   xmlns:svg="http://www.w3.org/2000/svg"
   xmlns="http://www.w3.org/2000/svg"
   xmlns:sodipodi="http://sodipodi.sourceforge.net/DTD/sodipodi-0.dtd"
   xmlns:inkscape="http://www.inkscape.org/namespaces/inkscape"
   role="img"
   viewBox="0 0 24 24"
   version="1.1"
   id="svg6"
   sodipodi:docname="torbrowser.svg"
   inkscape:version="0.92.5 (2060ec1f9f, 2020-04-08)">
  <metadata
     id="metadata12">
    <rdf:RDF>
      <cc:Work
         rdf:about="">
        <dc:format>image/svg+xml</dc:format>
        <dc:type
           rdf:resource="http://purl.org/dc/dcmitype/StillImage" />
      </cc:Work>
    </rdf:RDF>
  </metadata>
  <defs
     id="defs10" />
  <sodipodi:namedview
     pagecolor="#ffffff"
     bordercolor="#666666"
     borderopacity="1"
     objecttolerance="10"
     gridtolerance="10"
     guidetolerance="10"
     inkscape:pageopacity="0"
     inkscape:pageshadow="2"
     inkscape:window-width="747"
     inkscape:window-height="480"
     id="namedview8"
     showgrid="false"
     inkscape:zoom="9.8333333"
     inkscape:cx="12"
     inkscape:cy="12"
     inkscape:window-x="0"
     inkscape:window-y="0"
     inkscape:window-maximized="0"
     inkscape:current-layer="svg6" />
  <title
     id="title2">Tor Browser icon</title>
  <path
     d="M 12,19.856 V 18.688 A 6.688,6.688 0 0 0 18.688,12 6.688,6.688 0 0 0 12,5.312 V 4.144 A 7.864,7.864 0 0 1 19.856,12 7.864,7.864 0 0 1 12,19.856 Z m 0,-4.072 A 3.792,3.792 0 0 0 15.784,12 3.792,3.792 0 0 0 12,8.216 V 7.056 A 4.936,4.936 0 0 1 16.944,12 4.936,4.936 0 0 1 12,16.944 Z M 12,9.968 A 2.032,2.032 0 0 1 14.04,12 2.032,2.032 0 0 1 12,14.032 Z M 2.4,12 A 9.6,9.6 0 0 0 12,21.6 9.6,9.6 0 0 0 21.6,12 9.6,9.6 0 0 0 12,2.4 9.6,9.6 0 0 0 2.4,12 Z"
     id="path4"
     inkscape:connector-curvature="0"
     style="stroke-width:0.80000001" />
</svg>
