<?xml version="1.0" encoding="UTF-8" standalone="no"?>
<svg
   xmlns:dc="http://purl.org/dc/elements/1.1/"
   xmlns:cc="http://creativecommons.org/ns#"
   xmlns:rdf="http://www.w3.org/1999/02/22-rdf-syntax-ns#"
   xmlns:svg="http://www.w3.org/2000/svg"
   xmlns="http://www.w3.org/2000/svg"
   xmlns:sodipodi="http://sodipodi.sourceforge.net/DTD/sodipodi-0.dtd"
   xmlns:inkscape="http://www.inkscape.org/namespaces/inkscape"
   role="img"
   viewBox="0 0 24 24"
   version="1.1"
   id="svg6"
   sodipodi:docname="ubiquiti.svg"
   inkscape:version="0.92.5 (2060ec1f9f, 2020-04-08)">
  <metadata
     id="metadata12">
    <rdf:RDF>
      <cc:Work
         rdf:about="">
        <dc:format>image/svg+xml</dc:format>
        <dc:type
           rdf:resource="http://purl.org/dc/dcmitype/StillImage" />
      </cc:Work>
    </rdf:RDF>
  </metadata>
  <defs
     id="defs10" />
  <sodipodi:namedview
     pagecolor="#ffffff"
     bordercolor="#666666"
     borderopacity="1"
     objecttolerance="10"
     gridtolerance="10"
     guidetolerance="10"
     inkscape:pageopacity="0"
     inkscape:pageshadow="2"
     inkscape:window-width="747"
     inkscape:window-height="480"
     id="namedview8"
     showgrid="false"
     inkscape:zoom="9.8333333"
     inkscape:cx="12"
     inkscape:cy="12"
     inkscape:window-x="0"
     inkscape:window-y="0"
     inkscape:window-maximized="0"
     inkscape:current-layer="svg6" />
  <title
     id="title2">Ubiquiti icon</title>
  <path
     d="M 6.6648,5.5896 H 5.6096 v -1.056 h 1.056 z m 6.084,12.8008 c -1.424,-0.064 -2.52,-0.4256 -3.368,-0.948 0.5744,2.4944 2.724,3.72 2.828,3.7784 l 0.6336,0.3496 c 4.8504,-0.324 7.6888,-3.4544 7.6888,-7.5488 v -0.8872 c -1.1528,3.76 -3.836,5.4344 -7.7824,5.256 M 5.6048,10.084 h 1.0656 v 2.352 H 7.7392 V 8.5016 H 8.808 v 7.6896 C 8.8072,19.84 12,21.6 12,21.6 6.636,21.6 3.4688,18.348 3.4688,14.0216 V 5.32 H 4.536 v 5.8192 H 5.6048 Z M 4.536,3.4672 H 3.4688 V 2.4 H 4.536 Z m 2.1288,5.5624 h -1.056 v -1.056 h 1.056 z M 7.732,7.4456 H 6.676 V 6.3896 H 7.732 Z M 8.8064,6.1176 H 7.7392 v -1.056 h 1.068 z M 7.7392,4.5232 H 6.6704 v -1.056 h 1.0688 z m 12.3784,8.4848 0.4136,-1.3504 V 2.412 c -4.836,0 -5.3392,1.8536 -5.3392,3.6248 V 16.192 c 0,0.5256 -0.0512,1.0832 -0.1576,1.6296 2.564,-0.4664 4.2368,-2.052 5.0832,-4.8128 z"
     id="path4"
     inkscape:connector-curvature="0"
     style="stroke-width:0.80000001" />
</svg>
