<?xml version="1.0" encoding="UTF-8" standalone="no"?>
<svg
   xmlns:dc="http://purl.org/dc/elements/1.1/"
   xmlns:cc="http://creativecommons.org/ns#"
   xmlns:rdf="http://www.w3.org/1999/02/22-rdf-syntax-ns#"
   xmlns:svg="http://www.w3.org/2000/svg"
   xmlns="http://www.w3.org/2000/svg"
   xmlns:sodipodi="http://sodipodi.sourceforge.net/DTD/sodipodi-0.dtd"
   xmlns:inkscape="http://www.inkscape.org/namespaces/inkscape"
   role="img"
   viewBox="0 0 24 24"
   version="1.1"
   id="svg6"
   sodipodi:docname="vivaldi.svg"
   inkscape:version="0.92.5 (2060ec1f9f, 2020-04-08)">
  <metadata
     id="metadata12">
    <rdf:RDF>
      <cc:Work
         rdf:about="">
        <dc:format>image/svg+xml</dc:format>
        <dc:type
           rdf:resource="http://purl.org/dc/dcmitype/StillImage" />
      </cc:Work>
    </rdf:RDF>
  </metadata>
  <defs
     id="defs10" />
  <sodipodi:namedview
     pagecolor="#ffffff"
     bordercolor="#666666"
     borderopacity="1"
     objecttolerance="10"
     gridtolerance="10"
     guidetolerance="10"
     inkscape:pageopacity="0"
     inkscape:pageshadow="2"
     inkscape:window-width="747"
     inkscape:window-height="480"
     id="namedview8"
     showgrid="false"
     inkscape:zoom="9.8333333"
     inkscape:cx="12"
     inkscape:cy="12"
     inkscape:window-x="0"
     inkscape:window-y="0"
     inkscape:window-maximized="0"
     inkscape:current-layer="svg6" />
  <title
     id="title2">Vivaldi icon</title>
  <path
     d="M 12,2.4 C 7.8,2.4 5.4536,2.4 3.9296,3.9232 2.4056,5.448 2.4,7.8 2.4,12 c 0,4.2 0,6.54 1.5296,8.064 C 5.46,21.588 7.8,21.6 12,21.6 c 4.2,0 6.5464,0 8.0704,-1.5232 C 21.5944,18.552 21.6,16.2 21.6,12 21.6,7.8 21.6,5.46 20.0704,3.936 18.54,2.412 16.2,2.4 12,2.4 Z m -0.1344,2.4 a 7.2,7.2 0 0 1 5.192,2.1184 7.2,7.2 0 0 1 0,10.1632 A 7.2,7.2 0 1 1 11.8656,4.8 Z M 8.4544,8.3968 A 1.1464,1.1464 0 0 0 8.3408,8.4 1.2,1.2 0 0 0 7.368,10.2 l 1.3608,2.4 c 0.744,1.2656 1.4712,2.5616 2.2328,3.8576 a 1.1336,1.1336 0 0 0 1.128,0.6 1.2,1.2 0 0 0 0.9784,-0.648 L 16.6256,10.2 A 1.248,1.248 0 0 0 16.8,9.4144 a 1.2,1.2 0 1 0 -2.2624,0.7312 2.0104,2.0104 0 0 1 0.2048,0.8952 v 0.1968 a 1.9144,1.9144 0 0 1 -2.016,1.704 1.8784,1.8784 0 0 1 -1.572,-0.9712 c -0.2456,-0.408 -0.48,-0.828 -0.72,-1.2424 C 10.0984,10.152 9.7736,9.6 9.4376,9 A 1.1464,1.1464 0 0 0 8.4544,8.3968 Z"
     id="path4"
     inkscape:connector-curvature="0"
     style="stroke-width:0.80000001" />
</svg>
