<?xml version="1.0" encoding="UTF-8" standalone="no"?>
<svg
   xmlns:dc="http://purl.org/dc/elements/1.1/"
   xmlns:cc="http://creativecommons.org/ns#"
   xmlns:rdf="http://www.w3.org/1999/02/22-rdf-syntax-ns#"
   xmlns:svg="http://www.w3.org/2000/svg"
   xmlns="http://www.w3.org/2000/svg"
   xmlns:sodipodi="http://sodipodi.sourceforge.net/DTD/sodipodi-0.dtd"
   xmlns:inkscape="http://www.inkscape.org/namespaces/inkscape"
   role="img"
   viewBox="0 0 24 24"
   version="1.1"
   id="svg6"
   sodipodi:docname="wireguard.svg"
   inkscape:version="0.92.5 (2060ec1f9f, 2020-04-08)">
  <metadata
     id="metadata12">
    <rdf:RDF>
      <cc:Work
         rdf:about="">
        <dc:format>image/svg+xml</dc:format>
        <dc:type
           rdf:resource="http://purl.org/dc/dcmitype/StillImage" />
      </cc:Work>
    </rdf:RDF>
  </metadata>
  <defs
     id="defs10" />
  <sodipodi:namedview
     pagecolor="#ffffff"
     bordercolor="#666666"
     borderopacity="1"
     objecttolerance="10"
     gridtolerance="10"
     guidetolerance="10"
     inkscape:pageopacity="0"
     inkscape:pageshadow="2"
     inkscape:window-width="747"
     inkscape:window-height="480"
     id="namedview8"
     showgrid="false"
     inkscape:zoom="9.8333333"
     inkscape:cx="12"
     inkscape:cy="12"
     inkscape:window-x="0"
     inkscape:window-y="0"
     inkscape:window-maximized="0"
     inkscape:current-layer="svg6" />
  <title
     id="title2">WireGuard icon</title>
  <path
     d="m 21.584038,11.716 c 0,0 0.4424,-9.316 -9.796,-9.316 -9.0535996,0 -9.3367996,8.936 -9.3367996,8.936 0,0 -1.3312,10.264 9.5463996,10.264 10.4344,0 9.5864,-9.884 9.5864,-9.884 z M 8.9240384,8.4608 c 1.9199996,-1.176 4.3751996,-0.4568 5.2943996,1.3104 0.1744,0.3352 0.1968,0.8504 0.0864,1.2024 -0.3816,1.2128 -1.2808,1.8928 -2.516,2.1824 0.364,-0.312 0.6536,-0.6656 0.7464,-1.1536 a 1.6896,1.6896 0 0 0 -0.2912,-1.3416 1.712,1.712 0 0 0 -1.972,-0.6 c -0.7599996,0.288 -1.1759996,0.9824 -1.1015996,1.8352 0.0696,0.792 0.6712,1.3056 1.7959996,1.5008 -0.168,0.0888 -0.2976,0.1544 -0.424,0.2248 a 4.0904,4.0904 0 0 0 -1.3151996,1.144 c -0.1144,0.1536 -0.192,0.1664 -0.3664,0.06 -2.2616,-1.3832 -2.4072,-4.8536 0.0624,-6.3648 z m -1.692,8.5456 c -0.364,0.0928 -0.716,0.2288 -1.0872,0.3504 0.1816,-1.2256 1.6168,-2.3544 2.8312,-2.2256 a 3.128,3.128 0 0 0 -0.592,1.6576 c -0.4032,0.0744 -0.784,0.124 -1.152,0.2176 z M 14.962438,5.04 c 0.3584,0.0136 0.7184,0.008 1.0776,0.016 a 1.8592,1.8592 0 0 1 0.2672,0.0376 2.5992,2.5992 0 0 1 -0.272,0.3472 c -0.128,0.12 -0.2728,0.2368 -0.4584,0.0552 -0.044,-0.044 -0.1496,-0.0336 -0.2264,-0.0352 -0.3576,-0.004 -0.7152,-0.016 -1.072,-0.0024 a 6.6584,6.6584 0 0 0 -0.9232,0.0944 c -0.0576,0.0104 -0.1424,0.2 -0.1168,0.2704 0.0624,0.1656 0.1528,0.348 0.2872,0.4536 0.4952,0.392 1.0216,0.7424 1.52,1.1304 0.4832,0.3776 0.9336,0.792 1.208,1.36 0.3568,0.7424 0.368,1.52 0.2136,2.3016 -0.2576,1.304 -0.9176,2.384 -1.9864,3.1696 -0.4304,0.316 -0.964,0.496 -1.4568,0.7224 -0.4344,0.2 -0.88,0.372 -1.3152,0.5696 -0.784,0.3568 -1.224,1.208 -1.0952,2.092 0.1192,0.812 0.832,1.4896 1.6472,1.6296 0.9784,0.168 1.9888,-0.4688 2.228,-1.464 0.2688,-1.1176 -0.3384,-2.1168 -1.476,-2.4192 l -0.2048,-0.0528 c 0.304,-0.136 0.5664,-0.2328 0.8096,-0.3664 q 0.6344,-0.3496 1.2464,-0.74 c 0.12,-0.0768 0.1848,-0.0768 0.288,0.0112 0.7816,0.6768 1.248,1.5184 1.3792,2.5496 0.216,1.708 -0.592,3.2768 -2.1168,4.0808 -2.3584,1.244 -5.2455996,-0.172 -5.7663996,-2.7872 -0.4464,-2.24 1.1344,-4.272 3.0375996,-4.664 0.8184,-0.1688 1.5664,-0.5096 2.148,-1.14 0.376,-0.4064 0.5576,-0.7552 0.62,-0.9128 a 2.532,2.532 0 0 0 0.1736,-0.9264 2.168,2.168 0 0 0 -0.1896,-0.7936 c -0.1984,-0.4528 -0.96,-1.1728 -1.148,-1.3248 l -1.792,-1.4032 c -0.0632,-0.052 -0.1344,-0.048 -0.288,-0.0376 -0.184,0.0128 -0.652,0.0384 -0.8536,-0.0144 0.1632,-0.124 0.608,-0.304 0.8,-0.448 -0.5808,-0.392 -1.2431996,-0.2512 -1.8519996,-0.368 0.1408,-0.2624 0.8367996,-0.6648 1.2327996,-0.7104 a 5.8584,5.8584 0 0 0 -0.108,-0.6576 c -0.024,-0.0888 -0.1232,-0.176 -0.2104,-0.2264 C 10.008838,4.3136 9.7856384,4.212 9.5440384,4.0896 a 1.404,1.404 0 0 1 0.7247996,-0.224 2.708,2.708 0 0 1 0.7264,0.0704 c 0.432,0.0984 0.776,0.0336 1.1192,-0.2592 -0.2704,-0.1088 -0.5408,-0.208 -0.8024,-0.3256 a 7.8744,7.8744 0 0 1 -0.7536,-0.3944 c 0.68,0.0944 1.3368,0.3496 2.032,0.256 l 0.0176,-0.0944 -1.6144,-0.376 c 0.9624,-0.088 1.8584,-0.1024 2.7072,0.3104 0.2392,0.1168 0.488,0.2128 0.7176,0.3456 0.112,0.064 0.1864,0.192 0.2784,0.292 0.072,0.0784 0.1312,0.184 0.2208,0.232 0.3392,0.18 0.712,0.1872 1.0928,0.1784 l 0.008,-0.128 c 0.3832,0.12 0.8136,0.5616 0.8136,0.884 -0.6208,0 -1.24,-0.0024 -1.86,0.0032 -0.0664,0 -0.132,0.0488 -0.1976,0.0752 0.0624,0.0368 0.124,0.1024 0.188,0.1048 z m -0.8,-0.9176 a 0.0944,0.0944 0 0 0 -0.0128,0.152 0.1432,0.1432 0 0 0 0.1968,0.052 c 0.06,-0.0304 0.1184,-0.0624 0.1904,-0.1 -0.0576,-0.0496 -0.104,-0.0912 -0.152,-0.1304 -0.0848,-0.0696 -0.1544,-0.0256 -0.2224,0.0264 z"
     id="path4"
     inkscape:connector-curvature="0"
     style="stroke-width:0.80000001" />
</svg>
