<?xml version="1.0" encoding="UTF-8" standalone="no"?>
<svg
   xmlns:dc="http://purl.org/dc/elements/1.1/"
   xmlns:cc="http://creativecommons.org/ns#"
   xmlns:rdf="http://www.w3.org/1999/02/22-rdf-syntax-ns#"
   xmlns:svg="http://www.w3.org/2000/svg"
   xmlns="http://www.w3.org/2000/svg"
   xmlns:sodipodi="http://sodipodi.sourceforge.net/DTD/sodipodi-0.dtd"
   xmlns:inkscape="http://www.inkscape.org/namespaces/inkscape"
   role="img"
   viewBox="0 0 24 24"
   version="1.1"
   id="svg6"
   sodipodi:docname="wolfram.svg"
   inkscape:version="0.92.5 (2060ec1f9f, 2020-04-08)">
  <metadata
     id="metadata12">
    <rdf:RDF>
      <cc:Work
         rdf:about="">
        <dc:format>image/svg+xml</dc:format>
        <dc:type
           rdf:resource="http://purl.org/dc/dcmitype/StillImage" />
      </cc:Work>
    </rdf:RDF>
  </metadata>
  <defs
     id="defs10" />
  <sodipodi:namedview
     pagecolor="#ffffff"
     bordercolor="#666666"
     borderopacity="1"
     objecttolerance="10"
     gridtolerance="10"
     guidetolerance="10"
     inkscape:pageopacity="0"
     inkscape:pageshadow="2"
     inkscape:window-width="747"
     inkscape:window-height="480"
     id="namedview8"
     showgrid="false"
     inkscape:zoom="9.8333333"
     inkscape:cx="12"
     inkscape:cy="12"
     inkscape:window-x="0"
     inkscape:window-y="0"
     inkscape:window-maximized="0"
     inkscape:current-layer="svg6" />
  <title
     id="title2">Wolfram icon</title>
  <path
     d="M 18.484,12.0008 21.1296,9.0344 17.2464,8.1872 17.6424,4.232 14.0024,5.8288 12,2.4 9.996,5.8296 6.3576,4.2328 6.7528,8.188 2.8696,9.0312 l 2.644,2.9656 -2.644,2.9704 3.8832,0.8424 -0.4,3.956 L 9.9952,18.1704 12,21.6 l 2.0032,-3.4296 3.64,1.5952 -0.396,-3.9504 3.8832,-0.848 z m 1.284,2.2336 -2.2888,-0.7856 -1.5192,-1.9768 2.0208,0.7536 z M 20.1352,9.3576 18.0536,11.692 15.6008,10.7792 17.076,8.6896 Z M 16.7048,8.2984 15.4784,10.0416 15.5488,7.512 16.9792,5.58 Z M 14.0616,6.3792 16.5344,5.296 15.12,7.1984 12.7656,8.0376 Z m 0.9496,1.4176 -0.0768,2.9216 -2.6728,0.896 V 8.7752 Z M 12,3.4464 13.5752,6.1432 12,8.1592 10.4232,6.1424 Z M 9.9384,6.3792 11.2336,8.0368 8.8752,7.1984 7.4656,5.296 Z m 1.796,2.396 v 2.8392 L 9.0664,10.7184 8.9848,7.7968 Z M 8.4512,7.512 8.52,10.0416 7.2944,8.2984 7.0216,5.5808 Z M 3.864,9.3536 6.9232,8.6896 8.3944,10.7792 5.9424,11.688 Z M 6.0192,12.2216 8.04,11.472 6.52,13.4488 4.2312,14.2304 Z m -1.6744,2.5272 2.3432,-0.8 2.436,0.7168 -2.0976,0.6696 z m 2.624,4.1696 0.3136,-3.1168 2.4888,-0.7856 0.0656,2.648 z M 9.9216,14.352 7.1232,13.528 8.904,11.2144 l 2.668,0.9008 z m 1.8128,5.7528 -1.3688,-2.3472 -0.0528,-2.2168 1.4216,2.0776 z m -1.384,-5.44 L 12,12.4256 13.6504,14.6648 12,17.0688 Z m 3.2832,3.0928 -1.372,2.3472 v -2.4856 l 1.4256,-2.0776 z m -1.2112,-5.6416 2.6728,-0.9008 1.7768,2.3136 -2.7992,0.824 z m 1.74,5.548 0.0616,-2.648 2.4928,0.7856 0.3088,3.1208 z m 2.8112,-2.3296 -2.1,-0.6696 2.4392,-0.7168 2.3424,0.8024 z"
     id="path4"
     inkscape:connector-curvature="0"
     style="stroke-width:0.80000001" />
</svg>
