<?xml version="1.0" encoding="UTF-8" standalone="no"?>
<svg
   xmlns:dc="http://purl.org/dc/elements/1.1/"
   xmlns:cc="http://creativecommons.org/ns#"
   xmlns:rdf="http://www.w3.org/1999/02/22-rdf-syntax-ns#"
   xmlns:svg="http://www.w3.org/2000/svg"
   xmlns="http://www.w3.org/2000/svg"
   xmlns:sodipodi="http://sodipodi.sourceforge.net/DTD/sodipodi-0.dtd"
   xmlns:inkscape="http://www.inkscape.org/namespaces/inkscape"
   role="img"
   viewBox="0 0 24 24"
   version="1.1"
   id="svg6"
   sodipodi:docname="wolframmathematica.svg"
   inkscape:version="0.92.5 (2060ec1f9f, 2020-04-08)">
  <metadata
     id="metadata12">
    <rdf:RDF>
      <cc:Work
         rdf:about="">
        <dc:format>image/svg+xml</dc:format>
        <dc:type
           rdf:resource="http://purl.org/dc/dcmitype/StillImage" />
      </cc:Work>
    </rdf:RDF>
  </metadata>
  <defs
     id="defs10" />
  <sodipodi:namedview
     pagecolor="#ffffff"
     bordercolor="#666666"
     borderopacity="1"
     objecttolerance="10"
     gridtolerance="10"
     guidetolerance="10"
     inkscape:pageopacity="0"
     inkscape:pageshadow="2"
     inkscape:window-width="747"
     inkscape:window-height="480"
     id="namedview8"
     showgrid="false"
     inkscape:zoom="9.8333333"
     inkscape:cx="12"
     inkscape:cy="12"
     inkscape:window-x="0"
     inkscape:window-y="0"
     inkscape:window-maximized="0"
     inkscape:current-layer="svg6" />
  <title
     id="title2">Wolfram Mathematica icon</title>
  <path
     d="m 14.992,10.96 c -0.424,-1.224 0.112,-3.2 0.112,-3.2 0,0 -1.824,1.048 -3.16,1.04 -1.336,-0.008 -3.04,-1.04 -3.04,-1.04 0,0 0.448,1.968 0.056,3.232 -0.384,1.264 -1.976,2.672 -1.976,2.672 0,0 2.064,0.184 3.08,0.88 1.016,0.696 1.936,2.768 1.936,2.768 0,0 0.624,-1.88 1.856,-2.728 1.232,-0.856 3.168,-0.92 3.168,-0.92 0,0 -1.6,-1.472 -2.032,-2.696 z m -1.6,2.952 c -0.872,0.648 -1.4,1.752 -1.4,1.752 0,0 -0.608,-1.144 -1.44,-1.776 C 9.712,13.256 8.496,13.112 8.496,13.112 A 4.048,4.048 0 0 0 9.72,11.216 c 0.368,-1.232 0.144,-2.184 0.144,-2.184 0,0 0.736,0.56 2.096,0.56 1.36,0 2.232,-0.56 2.232,-0.56 0,0 -0.304,1.264 0.056,2.16 0.352,0.912 1.256,1.928 1.256,1.928 0,0 -1.248,0.136 -2.112,0.792 z M 13.384,10.08 c 0,0 -0.76,0.304 -1.416,0.296 -0.656,0 -1.36,-0.296 -1.36,-0.296 0.04,0.464 0,0.92 -0.136,1.36 -0.216,0.688 -0.728,1.312 -0.728,1.312 A 3.384,3.384 0 0 1 12,14.36 c 0,0 0.36,-0.68 0.944,-1.064 0.4,-0.248 0.84,-0.44 1.304,-0.56 0,0 -0.592,-0.624 -0.816,-1.256 -0.224,-0.624 -0.048,-1.4 -0.048,-1.4 z M 18.48,12 21.128,9.04 17.248,8.184 17.648,4.232 14,5.832 12,2.4 10,5.832 6.36,4.232 6.752,8.192 2.872,9.032 5.512,12 2.88,14.96 l 3.88,0.856 -0.4,3.952 3.64,-1.6 2,3.432 2,-3.432 3.648,1.6 -0.4,-3.952 3.88,-0.848 L 18.488,12 Z m -4.216,3.16 C 13.6,15.648 12,19.048 12,19.048 c 0,0 -1.2,-3.088 -2.4,-3.888 -1.184,-0.8 -4.304,-0.976 -4.304,-0.976 0,0 2.392,-1.896 2.856,-3.576 0.472,-1.68 -0.296,-4.296 -0.296,-4.296 0,0 2.32,1.68 4.064,1.68 1.736,0 4.208,-1.68 4.208,-1.68 0,0 -0.656,3.6 -0.424,4.368 0.24,0.768 2.984,3.504 2.984,3.504 0,0 -3.76,0.496 -4.432,0.976 z"
     id="path4"
     inkscape:connector-curvature="0"
     style="stroke-width:0.80000001" />
</svg>
